<mxfile host="app.diagrams.net" agent="Mozilla/5.0 (Windows NT 10.0; Win64; x64) AppleWebKit/537.36 (KHTML, like Gecko) Chrome/131.0.0.0 Safari/537.36" version="24.8.7">
  <diagram name="第 1 页" id="3Nni3DlRx-zw82KPzrw4">
    <mxGraphModel dx="1709" dy="893" grid="0" gridSize="10" guides="1" tooltips="1" connect="1" arrows="1" fold="1" page="1" pageScale="1" pageWidth="600" pageHeight="500" math="0" shadow="0">
      <root>
        <mxCell id="0" />
        <mxCell id="1" parent="0" />
        <mxCell id="YfVbJzQeN4ctegPPI_n_-1" value="" style="shape=image;verticalLabelPosition=bottom;labelBackgroundColor=default;verticalAlign=top;aspect=fixed;imageAspect=0;image=data:image/svg+xml,PHN2ZyB4bWxucz0iaHR0cDovL3d3dy53My5vcmcvMjAwMC9zdmciIHhtbG5zOnhsaW5rPSJodHRwOi8vd3d3LnczLm9yZy8xOTk5L3hsaW5rIiB2ZXJzaW9uPSIxLjEiIHZpZXdCb3g9IjAgMCA1NzYgNDY4IiBoZWlnaHQ9IjQ2OHB0IiB3aWR0aD0iNTc2cHQiPiYjeGE7IDxtZXRhZGF0YT4mI3hhOyAgJiN4YTsgICAmI3hhOyAgICAmI3hhOyAgICAyMDI0LTExLTIyVDEyOjQ2OjUyLjk3NTkyMyYjeGE7ICAgIGltYWdlL3N2Zyt4bWwmI3hhOyAgICAmI3hhOyAgICAgJiN4YTsgICAgICBNYXRwbG90bGliIHYzLjcuMSwgaHR0cHM6Ly9tYXRwbG90bGliLm9yZy8mI3hhOyAgICAgJiN4YTsgICAgJiN4YTsgICAmI3hhOyAgJiN4YTsgPC9tZXRhZGF0YT4mI3hhOyA8ZGVmcz4mI3hhOyAgPHN0eWxlIHR5cGU9InRleHQvY3NzIj4qe3N0cm9rZS1saW5lam9pbjogcm91bmQ7IHN0cm9rZS1saW5lY2FwOiBidXR0fTwvc3R5bGU+JiN4YTsgPC9kZWZzPiYjeGE7IDxnIGlkPSJmaWd1cmVfMSI+JiN4YTsgIDxnIGlkPSJwYXRjaF8xIj4mI3hhOyAgIDxwYXRoIHN0eWxlPSJmaWxsOiAjZmZmZmZmIiBkPSJNIDAgNDY4ICYjMTA7TCA1NzYgNDY4ICYjMTA7TCA1NzYgMCAmIzEwO0wgMCAwICYjMTA7eiIvPiYjeGE7ICA8L2c+JiN4YTsgIDxnIGlkPSJheGVzXzEiPiYjeGE7ICAgPGcgaWQ9InBhdGNoXzIiPiYjeGE7ICAgIDxwYXRoIHN0eWxlPSJmaWxsOiAjZmZmZmZmIiBkPSJNIDU4LjcxIDQxOC4yOTQ4ICYjMTA7TCA1NjUuMiA0MTguMjk0OCAmIzEwO0wgNTY1LjIgMzYuNiAmIzEwO0wgNTguNzEgMzYuNiAmIzEwO3oiLz4mI3hhOyAgIDwvZz4mI3hhOyAgIDxnIGlkPSJtYXRwbG90bGliLmF4aXNfMSI+JiN4YTsgICAgPGcgaWQ9Inh0aWNrXzEiPiYjeGE7ICAgICA8ZyBpZD0ibGluZTJkXzEiLz4mI3hhOyAgICAgPGcgaWQ9InRleHRfMSI+JiN4YTsgICAgICAmI3hhOyAgICAgIDxnIHRyYW5zZm9ybT0idHJhbnNsYXRlKDEwNS4xODEyNTEgNDM0LjYyNzMpIHNjYWxlKDAuMTIgLTAuMTIpIiBzdHlsZT0iZmlsbDogIzI2MjYyNiI+JiN4YTsgICAgICAgPGRlZnM+JiN4YTsgICAgICAgIDxwYXRoIHRyYW5zZm9ybT0ic2NhbGUoMC4wMTU2MjUpIiBkPSJNIDI5NTYgMjE2MyAmIzEwO1EgMzM5NyAyMDY5IDM2MTYgMTg2MyAmIzEwO1EgMzkxOSAxNTc1IDM5MTkgMTE1OSAmIzEwO1EgMzkxOSA4NDQgMzcxOSA1NTUgJiMxMDtRIDM1MTkgMjY2IDMxNzAgMTMzICYjMTA7USAyODIyIDAgMjEwNiAwICYjMTA7TCAxMDYgMCAmIzEwO0wgMTA2IDExNiAmIzEwO0wgMjY2IDExNiAmIzEwO1EgNTMxIDExNiA2NDcgMjg0ICYjMTA7USA3MTkgMzk0IDcxOSA3NTAgJiMxMDtMIDcxOSAzNDg4ICYjMTA7USA3MTkgMzg4MSA2MjggMzk4NCAmIzEwO1EgNTA2IDQxMjIgMjY2IDQxMjIgJiMxMDtMIDEwNiA0MTIyICYjMTA7TCAxMDYgNDIzOCAmIzEwO0wgMTkzOCA0MjM4ICYjMTA7USAyNDUwIDQyMzggMjc1OSA0MTYzICYjMTA7USAzMjI4IDQwNTAgMzQ3NSAzNzY0ICYjMTA7USAzNzIyIDM0NzggMzcyMiAzMTA2ICYjMTA7USAzNzIyIDI3ODggMzUyOCAyNTM2ICYjMTA7USAzMzM0IDIyODQgMjk1NiAyMTYzICYjMTA7eiYjMTA7TSAxMzE5IDIzMzEgJiMxMDtRIDE0MzQgMjMwOSAxNTgyIDIyOTggJiMxMDtRIDE3MzEgMjI4OCAxOTA5IDIyODggJiMxMDtRIDIzNjYgMjI4OCAyNTk1IDIzODYgJiMxMDtRIDI4MjUgMjQ4NCAyOTQ3IDI2ODcgJiMxMDtRIDMwNjkgMjg5MSAzMDY5IDMxMzEgJiMxMDtRIDMwNjkgMzUwMyAyNzY2IDM3NjUgJiMxMDtRIDI0NjMgNDAyOCAxODgxIDQwMjggJiMxMDtRIDE1NjkgNDAyOCAxMzE5IDM5NTkgJiMxMDtMIDEzMTkgMjMzMSAmIzEwO3omIzEwO00gMTMxOSAzMDYgJiMxMDtRIDE2ODEgMjIyIDIwMzQgMjIyICYjMTA7USAyNjAwIDIyMiAyODk3IDQ3NiAmIzEwO1EgMzE5NCA3MzEgMzE5NCAxMTA2ICYjMTA7USAzMTk0IDEzNTMgMzA1OSAxNTgxICYjMTA7USAyOTI1IDE4MDkgMjYyMiAxOTQwICYjMTA7USAyMzE5IDIwNzIgMTg3MiAyMDcyICYjMTA7USAxNjc4IDIwNzIgMTU0MCAyMDY1ICYjMTA7USAxNDAzIDIwNTkgMTMxOSAyMDQ0ICYjMTA7TCAxMzE5IDMwNiAmIzEwO3oiIGlkPSJUaW1lc05ld1JvbWFuUFNNVC00MiIvPiYjeGE7ICAgICAgICA8cGF0aCB0cmFuc2Zvcm09InNjYWxlKDAuMDE1NjI1KSIgZD0iTSAxNjAwIDI5NDcgJiMxMDtRIDIyNTAgMjk0NyAyNjQ0IDI0NTMgJiMxMDtRIDI5NzggMjAzMSAyOTc4IDE0ODQgJiMxMDtRIDI5NzggMTEwMCAyNzkzIDcwNiAmIzEwO1EgMjYwOSAzMTMgMjI4NiAxMTIgJiMxMDtRIDE5NjMgLTg4IDE1NjYgLTg4ICYjMTA7USA5MTkgLTg4IDUzOCA0MjggJiMxMDtRIDIxNiA4NjMgMjE2IDE0MDMgJiMxMDtRIDIxNiAxNzk3IDQxMSAyMTg2ICYjMTA7USA2MDYgMjU3NSA5MjUgMjc2MSAmIzEwO1EgMTI0NCAyOTQ3IDE2MDAgMjk0NyAmIzEwO3omIzEwO00gMTUwMyAyNzQ0ICYjMTA7USAxMzM4IDI3NDQgMTE3MCAyNjQ1ICYjMTA7USAxMDAzIDI1NDcgOTAwIDIzMDAgJiMxMDtRIDc5NyAyMDUzIDc5NyAxNjY2ICYjMTA7USA3OTcgMTA0MSAxMDQ1IDU4NyAmIzEwO1EgMTI5NCAxMzQgMTcwMCAxMzQgJiMxMDtRIDIwMDMgMTM0IDIyMDAgMzg0ICYjMTA7USAyMzk3IDYzNCAyMzk3IDEyNDQgJiMxMDtRIDIzOTcgMjAwNiAyMDY5IDI0NDQgJiMxMDtRIDE4NDcgMjc0NCAxNTAzIDI3NDQgJiMxMDt6IiBpZD0iVGltZXNOZXdSb21hblBTTVQtNmYiLz4mI3hhOyAgICAgICAgPHBhdGggdHJhbnNmb3JtPSJzY2FsZSgwLjAxNTYyNSkiIGQ9Ik0gODQgMjg2MyAmIzEwO0wgMTQzMSAyODYzICYjMTA7TCAxNDMxIDI3NDcgJiMxMDtRIDEzMDMgMjc0NyAxMjUxIDI3MDMgJiMxMDtRIDEyMDAgMjY1OSAxMjAwIDI1ODggJiMxMDtRIDEyMDAgMjUxMyAxMzA5IDIzNTYgJiMxMDtRIDEzNDQgMjMwNiAxNDEzIDIyMDAgJiMxMDtMIDE2MTYgMTg3NSAmIzEwO0wgMTg1MCAyMjAwICYjMTA7USAyMDc1IDI1MDkgMjA3NSAyNTkxICYjMTA7USAyMDc1IDI2NTYgMjAyMiAyNzAxICYjMTA7USAxOTY5IDI3NDcgMTg1MCAyNzQ3ICYjMTA7TCAxODUwIDI4NjMgJiMxMDtMIDI4MTkgMjg2MyAmIzEwO0wgMjgxOSAyNzQ3ICYjMTA7USAyNjY2IDI3MzggMjU1MyAyNjYzICYjMTA7USAyNDAwIDI1NTYgMjEzNCAyMjAwICYjMTA7TCAxNzQ0IDE2NzggJiMxMDtMIDI0NTYgNjUzICYjMTA7USAyNzE5IDI3NSAyODMxIDE5OCAmIzEwO1EgMjk0NCAxMjIgMzEyMiAxMTMgJiMxMDtMIDMxMjIgMCAmIzEwO0wgMTc3MiAwICYjMTA7TCAxNzcyIDExMyAmIzEwO1EgMTkxMyAxMTMgMTk5MSAxNzUgJiMxMDtRIDIwNTAgMjE5IDIwNTAgMjkxICYjMTA7USAyMDUwIDM2MyAxODUwIDY1MyAmIzEwO0wgMTQzMSAxMjY2ICYjMTA7TCA5NzIgNjUzICYjMTA7USA3NTkgMzY5IDc1OSAzMTYgJiMxMDtRIDc1OSAyNDEgODI5IDE4MCAmIzEwO1EgOTAwIDExOSAxMDQxIDExMyAmIzEwO0wgMTA0MSAwICYjMTA7TCAxMDYgMCAmIzEwO0wgMTA2IDExMyAmIzEwO1EgMjE5IDEyOCAzMDMgMTkxICYjMTA7USA0MjIgMjgxIDcwMyA2NTMgJiMxMDtMIDEzMDMgMTQ1MCAmIzEwO0wgNzU5IDIyMzggJiMxMDtRIDUyOCAyNTc1IDQwMSAyNjYxICYjMTA7USAyNzUgMjc0NyA4NCAyNzQ3ICYjMTA7TCA4NCAyODYzICYjMTA7eiIgaWQ9IlRpbWVzTmV3Um9tYW5QU01ULTc4Ii8+JiN4YTsgICAgICAgPC9kZWZzPiYjeGE7ICAgICAgIDx1c2UgeGxpbms6aHJlZj0iI1RpbWVzTmV3Um9tYW5QU01ULTQyIi8+JiN4YTsgICAgICAgPHVzZSB4PSI2Ni42OTkyMTkiIHhsaW5rOmhyZWY9IiNUaW1lc05ld1JvbWFuUFNNVC02ZiIvPiYjeGE7ICAgICAgIDx1c2UgeD0iMTE2LjY5OTIxOSIgeGxpbms6aHJlZj0iI1RpbWVzTmV3Um9tYW5QU01ULTc4Ii8+JiN4YTsgICAgICA8L2c+JiN4YTsgICAgIDwvZz4mI3hhOyAgICA8L2c+JiN4YTsgICAgPGcgaWQ9Inh0aWNrXzIiPiYjeGE7ICAgICA8ZyBpZD0ibGluZTJkXzIiLz4mI3hhOyAgICAgPGcgaWQ9InRleHRfMiI+JiN4YTsgICAgICAmI3hhOyAgICAgIDxnIHRyYW5zZm9ybT0idHJhbnNsYXRlKDIwMy41Njk4NDQgNDM0LjYyNzMpIHNjYWxlKDAuMTIgLTAuMTIpIiBzdHlsZT0iZmlsbDogIzI2MjYyNiI+JiN4YTsgICAgICAgPGRlZnM+JiN4YTsgICAgICAgIDxwYXRoIHRyYW5zZm9ybT0ic2NhbGUoMC4wMTU2MjUpIiBkPSJNIDE4MjIgNDEzICYjMTA7USAxMzgxIDcyIDEyNjkgMTkgJiMxMDtRIDExMDAgLTU5IDkwOSAtNTkgJiMxMDtRIDYxMyAtNTkgNDIwIDE0NCAmIzEwO1EgMjI4IDM0NyAyMjggNjc4ICYjMTA7USAyMjggODg4IDMyMiAxMDQxICYjMTA7USA0NTAgMTI1MyA3NjcgMTQ0MCAmIzEwO1EgMTA4NCAxNjI4IDE4MjIgMTg5NyAmIzEwO0wgMTgyMiAyMDA5ICYjMTA7USAxODIyIDI0MzggMTY4NiAyNTk3ICYjMTA7USAxNTUwIDI3NTYgMTI5MSAyNzU2ICYjMTA7USAxMDk0IDI3NTYgOTc4IDI2NTAgJiMxMDtRIDg1OSAyNTQ0IDg1OSAyNDA2ICYjMTA7TCA4NjYgMjIyNSAmIzEwO1EgODY2IDIwODEgNzkyIDIwMDMgJiMxMDtRIDcxOSAxOTI1IDYwMCAxOTI1ICYjMTA7USA0ODQgMTkyNSA0MTEgMjAwNiAmIzEwO1EgMzM4IDIwODggMzM4IDIyMjggJiMxMDtRIDMzOCAyNDk3IDYxMyAyNzIyICYjMTA7USA4ODggMjk0NyAxMzg0IDI5NDcgJiMxMDtRIDE3NjYgMjk0NyAyMDA5IDI4MTkgJiMxMDtRIDIxOTQgMjcyMiAyMjgxIDI1MTYgJiMxMDtRIDIzMzggMjM4MSAyMzM4IDE5NjYgJiMxMDtMIDIzMzggOTk0ICYjMTA7USAyMzM4IDU4NCAyMzUzIDQ5MiAmIzEwO1EgMjM2OSA0MDAgMjQwNSAzNjkgJiMxMDtRIDI0NDEgMzM4IDI0ODggMzM4ICYjMTA7USAyNTM4IDMzOCAyNTc1IDM1OSAmIzEwO1EgMjY0MSA0MDAgMjgyOCA1ODggJiMxMDtMIDI4MjggNDEzICYjMTA7USAyNDc4IC01NiAyMTU5IC01NiAmIzEwO1EgMjAwNiAtNTYgMTkxNSA1MCAmIzEwO1EgMTgyNSAxNTYgMTgyMiA0MTMgJiMxMDt6JiMxMDtNIDE4MjIgNjE2ICYjMTA7TCAxODIyIDE3MDYgJiMxMDtRIDEzNTAgMTUxOSAxMjEzIDE0NDEgJiMxMDtRIDk2NiAxMzAzIDg1OSAxMTUzICYjMTA7USA3NTMgMTAwMyA3NTMgODI1ICYjMTA7USA3NTMgNjAwIDg4NyA0NTEgJiMxMDtRIDEwMjIgMzAzIDExOTcgMzAzICYjMTA7USAxNDM0IDMwMyAxODIyIDYxNiAmIzEwO3oiIGlkPSJUaW1lc05ld1JvbWFuUFNNVC02MSIvPiYjeGE7ICAgICAgICA8cGF0aCB0cmFuc2Zvcm09InNjYWxlKDAuMDE1NjI1KSIgZD0iTSAxMTg0IDQ0NDQgJiMxMDtMIDExODQgNjQ3ICYjMTA7USAxMTg0IDM3OCAxMjIzIDI5MCAmIzEwO1EgMTI2MyAyMDMgMTM0NCAxNTggJiMxMDtRIDE0MjUgMTEzIDE2NDcgMTEzICYjMTA7TCAxNjQ3IDAgJiMxMDtMIDI0NCAwICYjMTA7TCAyNDQgMTEzICYjMTA7USA0NDEgMTEzIDUxMiAxNTMgJiMxMDtRIDU4NCAxOTQgNjI1IDI4NyAmIzEwO1EgNjY2IDM4MSA2NjYgNjQ3ICYjMTA7TCA2NjYgMzI0NyAmIzEwO1EgNjY2IDM3MzEgNjQ0IDM4NDIgJiMxMDtRIDYyMiAzOTUzIDU3MyAzOTkzICYjMTA7USA1MjUgNDAzNCA0NTAgNDAzNCAmIzEwO1EgMzY5IDQwMzQgMjQ0IDM5ODQgJiMxMDtMIDE5MSA0MDk0ICYjMTA7TCAxMDQ0IDQ0NDQgJiMxMDtMIDExODQgNDQ0NCAmIzEwO3oiIGlkPSJUaW1lc05ld1JvbWFuUFNNVC02YyIvPiYjeGE7ICAgICAgIDwvZGVmcz4mI3hhOyAgICAgICA8dXNlIHhsaW5rOmhyZWY9IiNUaW1lc05ld1JvbWFuUFNNVC00MiIvPiYjeGE7ICAgICAgIDx1c2UgeD0iNjYuNjk5MjE5IiB4bGluazpocmVmPSIjVGltZXNOZXdSb21hblBTTVQtNjEiLz4mI3hhOyAgICAgICA8dXNlIHg9IjExMS4wODM5ODQiIHhsaW5rOmhyZWY9IiNUaW1lc05ld1JvbWFuUFNNVC02YyIvPiYjeGE7ICAgICAgIDx1c2UgeD0iMTM4Ljg2NzE4OCIgeGxpbms6aHJlZj0iI1RpbWVzTmV3Um9tYW5QU01ULTZjIi8+JiN4YTsgICAgICA8L2c+JiN4YTsgICAgIDwvZz4mI3hhOyAgICA8L2c+JiN4YTsgICAgPGcgaWQ9Inh0aWNrXzMiPiYjeGE7ICAgICA8ZyBpZD0ibGluZTJkXzMiLz4mI3hhOyAgICAgPGcgaWQ9InRleHRfMyI+JiN4YTsgICAgICAmI3hhOyAgICAgIDxnIHRyYW5zZm9ybT0idHJhbnNsYXRlKDI4OC4yOTcxODcgNDM0LjYyNzMpIHNjYWxlKDAuMTIgLTAuMTIpIiBzdHlsZT0iZmlsbDogIzI2MjYyNiI+JiN4YTsgICAgICAgPGRlZnM+JiN4YTsgICAgICAgIDxwYXRoIHRyYW5zZm9ybT0ic2NhbGUoMC4wMTU2MjUpIiBkPSJNIDEzMTYgMjI3MiAmIzEwO0wgMzI4NCAyMjcyICYjMTA7TCAzMjg0IDM0ODQgJiMxMDtRIDMyODQgMzgwOSAzMjQ0IDM5MTMgJiMxMDtRIDMyMTMgMzk5MSAzMTEzIDQwNDcgJiMxMDtRIDI5NzggNDEyMiAyODI4IDQxMjIgJiMxMDtMIDI2NzggNDEyMiAmIzEwO0wgMjY3OCA0MjM4ICYjMTA7TCA0NDkxIDQyMzggJiMxMDtMIDQ0OTEgNDEyMiAmIzEwO0wgNDM0MSA0MTIyICYjMTA7USA0MTkxIDQxMjIgNDA1NiA0MDUwICYjMTA7USAzOTU2IDQwMDAgMzkyMCAzODk4ICYjMTA7USAzODg0IDM3OTcgMzg4NCAzNDg0ICYjMTA7TCAzODg0IDc1MCAmIzEwO1EgMzg4NCA0MjggMzkyNSAzMjUgJiMxMDtRIDM5NTYgMjQ3IDQwNTMgMTkxICYjMTA7USA0MTkxIDExNiA0MzQxIDExNiAmIzEwO0wgNDQ5MSAxMTYgJiMxMDtMIDQ0OTEgMCAmIzEwO0wgMjY3OCAwICYjMTA7TCAyNjc4IDExNiAmIzEwO0wgMjgyOCAxMTYgJiMxMDtRIDMwODggMTE2IDMyMDYgMjY5ICYjMTA7USAzMjg0IDM2OSAzMjg0IDc1MCAmIzEwO0wgMzI4NCAyMDQxICYjMTA7TCAxMzE2IDIwNDEgJiMxMDtMIDEzMTYgNzUwICYjMTA7USAxMzE2IDQyOCAxMzU2IDMyNSAmIzEwO1EgMTM4OCAyNDcgMTQ4OCAxOTEgJiMxMDtRIDE2MjIgMTE2IDE3NzIgMTE2ICYjMTA7TCAxOTI1IDExNiAmIzEwO0wgMTkyNSAwICYjMTA7TCAxMDkgMCAmIzEwO0wgMTA5IDExNiAmIzEwO0wgMjU5IDExNiAmIzEwO1EgNTIyIDExNiA2NDEgMjY5ICYjMTA7USA3MTYgMzY5IDcxNiA3NTAgJiMxMDtMIDcxNiAzNDg0ICYjMTA7USA3MTYgMzgwOSA2NzUgMzkxMyAmIzEwO1EgNjQ0IDM5OTEgNTQ3IDQwNDcgJiMxMDtRIDQwOSA0MTIyIDI1OSA0MTIyICYjMTA7TCAxMDkgNDEyMiAmIzEwO0wgMTA5IDQyMzggJiMxMDtMIDE5MjUgNDIzOCAmIzEwO0wgMTkyNSA0MTIyICYjMTA7TCAxNzcyIDQxMjIgJiMxMDtRIDE2MjIgNDEyMiAxNDg4IDQwNTAgJiMxMDtRIDEzOTEgNDAwMCAxMzUzIDM4OTggJiMxMDtRIDEzMTYgMzc5NyAxMzE2IDM0ODQgJiMxMDtMIDEzMTYgMjI3MiAmIzEwO3oiIGlkPSJUaW1lc05ld1JvbWFuUFNNVC00OCIvPiYjeGE7ICAgICAgICA8cGF0aCB0cmFuc2Zvcm09InNjYWxlKDAuMDE1NjI1KSIgZD0iTSAxMDM0IDIzNDEgJiMxMDtRIDE1MzggMjk0NyAxOTk0IDI5NDcgJiMxMDtRIDIyMjggMjk0NyAyMzk3IDI4MzAgJiMxMDtRIDI1NjYgMjcxMyAyNjY2IDI0NDQgJiMxMDtRIDI3MzQgMjI1NiAyNzM0IDE4NjkgJiMxMDtMIDI3MzQgNjQ3ICYjMTA7USAyNzM0IDM3NSAyNzc4IDI3OCAmIzEwO1EgMjgxMyAyMDAgMjg4OSAxNTYgJiMxMDtRIDI5NjYgMTEzIDMxNzIgMTEzICYjMTA7TCAzMTcyIDAgJiMxMDtMIDE3NTYgMCAmIzEwO0wgMTc1NiAxMTMgJiMxMDtMIDE4MTYgMTEzICYjMTA7USAyMDE2IDExMyAyMDk1IDE3MyAmIzEwO1EgMjE3NSAyMzQgMjIwNiAzNTMgJiMxMDtRIDIyMTkgNDAwIDIyMTkgNjQ3ICYjMTA7TCAyMjE5IDE4MTkgJiMxMDtRIDIyMTkgMjIwOSAyMTE3IDIzODYgJiMxMDtRIDIwMTYgMjU2MyAxNzc1IDI1NjMgJiMxMDtRIDE0MDMgMjU2MyAxMDM0IDIxNTYgJiMxMDtMIDEwMzQgNjQ3ICYjMTA7USAxMDM0IDM1NiAxMDY5IDI4OCAmIzEwO1EgMTExMyAxOTcgMTE4OSAxNTUgJiMxMDtRIDEyNjYgMTEzIDE1MDAgMTEzICYjMTA7TCAxNTAwIDAgJiMxMDtMIDg0IDAgJiMxMDtMIDg0IDExMyAmIzEwO0wgMTQ3IDExMyAmIzEwO1EgMzY2IDExMyA0NDIgMjIzICYjMTA7USA1MTkgMzM0IDUxOSA2NDcgJiMxMDtMIDUxOSAxNzA5ICYjMTA7USA1MTkgMjIyNSA0OTUgMjMzNyAmIzEwO1EgNDcyIDI0NTAgNDIzIDI0OTAgJiMxMDtRIDM3NSAyNTMxIDI5NCAyNTMxICYjMTA7USAyMDYgMjUzMSA4NCAyNDg0ICYjMTA7TCAzOCAyNTk3ICYjMTA7TCA5MDAgMjk0NyAmIzEwO0wgMTAzNCAyOTQ3ICYjMTA7TCAxMDM0IDIzNDEgJiMxMDt6IiBpZD0iVGltZXNOZXdSb21hblBTTVQtNmUiLz4mI3hhOyAgICAgICAgPHBhdGggdHJhbnNmb3JtPSJzY2FsZSgwLjAxNTYyNSkiIGQ9Ik0gMjIyMiAzMjIgJiMxMDtRIDIwMTMgMTAzIDE4MTMgNyAmIzEwO1EgMTYxMyAtODggMTM4MSAtODggJiMxMDtRIDkxMyAtODggNTYzIDMwNCAmIzEwO1EgMjEzIDY5NyAyMTMgMTMxMyAmIzEwO1EgMjEzIDE5MjggNjAwIDI0MzkgJiMxMDtRIDk4OCAyOTUwIDE1OTcgMjk1MCAmIzEwO1EgMTk3NSAyOTUwIDIyMjIgMjcwOSAmIzEwO0wgMjIyMiAzMjM4ICYjMTA7USAyMjIyIDM3MjggMjE5OCAzODQwICYjMTA7USAyMTc1IDM5NTMgMjEyNSAzOTkzICYjMTA7USAyMDc1IDQwMzQgMjAwMCA0MDM0ICYjMTA7USAxOTE5IDQwMzQgMTc4NCAzOTg0ICYjMTA7TCAxNzQ0IDQwOTQgJiMxMDtMIDI1OTcgNDQ0NCAmIzEwO0wgMjczOCA0NDQ0ICYjMTA7TCAyNzM4IDExMzQgJiMxMDtRIDI3MzggNjMxIDI3NjEgNTIwICYjMTA7USAyNzg0IDQwOSAyODM2IDM2NSAmIzEwO1EgMjg4OCAzMjIgMjk1NiAzMjIgJiMxMDtRIDMwNDEgMzIyIDMxODEgMzc1ICYjMTA7TCAzMjE2IDI2NiAmIzEwO0wgMjM2NiAtODggJiMxMDtMIDIyMjIgLTg4ICYjMTA7TCAyMjIyIDMyMiAmIzEwO3omIzEwO00gMjIyMiA1NDEgJiMxMDtMIDIyMjIgMjAxNiAmIzEwO1EgMjIwMyAyMjI4IDIxMDkgMjQwMyAmIzEwO1EgMjAxNiAyNTc4IDE4NjEgMjY2NyAmIzEwO1EgMTcwNiAyNzU2IDE1NTkgMjc1NiAmIzEwO1EgMTI4NCAyNzU2IDEwNjkgMjUwOSAmIzEwO1EgNzg0IDIxODQgNzg0IDE1NTkgJiMxMDtRIDc4NCA5MjggMTA1OSA1OTIgJiMxMDtRIDEzMzQgMjU2IDE2NzIgMjU2ICYjMTA7USAxOTU2IDI1NiAyMjIyIDU0MSAmIzEwO3oiIGlkPSJUaW1lc05ld1JvbWFuUFNNVC02NCIvPiYjeGE7ICAgICAgICA8cGF0aCB0cmFuc2Zvcm09InNjYWxlKDAuMDE1NjI1KSIgZD0iTSA1MyAyODYzICYjMTA7TCAxNDAwIDI4NjMgJiMxMDtMIDE0MDAgMjc0NyAmIzEwO0wgMTMxMyAyNzQ3ICYjMTA7USAxMTkxIDI3NDcgMTEyNyAyNjg3ICYjMTA7USAxMDYzIDI2MjggMTA2MyAyNTI4ICYjMTA7USAxMDYzIDI0MTkgMTEyOCAyMjY5ICYjMTA7TCAxNzk0IDY4OCAmIzEwO0wgMjQ2MyAyMzI4ICYjMTA7USAyNTM0IDI1MDMgMjUzNCAyNTk0ICYjMTA7USAyNTM0IDI2MzggMjUwOSAyNjY2ICYjMTA7USAyNDc1IDI3MTMgMjQyMiAyNzMwICYjMTA7USAyMzY5IDI3NDcgMjIwNiAyNzQ3ICYjMTA7TCAyMjA2IDI4NjMgJiMxMDtMIDMxNDEgMjg2MyAmIzEwO0wgMzE0MSAyNzQ3ICYjMTA7USAyOTc4IDI3MzQgMjkxNiAyNjgxICYjMTA7USAyODA2IDI1ODggMjcxOSAyMzY5ICYjMTA7TCAxNzAzIC04OCAmIzEwO0wgMTU3NSAtODggJiMxMDtMIDU1MyAyMzI4ICYjMTA7USA0ODQgMjQ5NyA0MjEgMjU3MCAmIzEwO1EgMzU5IDI2NDQgMjYzIDI2OTQgJiMxMDtRIDIwOSAyNzIyIDUzIDI3NDcgJiMxMDtMIDUzIDI4NjMgJiMxMDt6IiBpZD0iVGltZXNOZXdSb21hblBTTVQtNzYiLz4mI3hhOyAgICAgICAgPHBhdGggdHJhbnNmb3JtPSJzY2FsZSgwLjAxNTYyNSkiIGQ9Ik0gNjgxIDE3ODQgJiMxMDtRIDY3OCAxMTQ3IDk5MSA3ODQgJiMxMDtRIDEzMDMgNDIyIDE3MjUgNDIyICYjMTA7USAyMDA2IDQyMiAyMjE0IDU3NiAmIzEwO1EgMjQyMiA3MzEgMjU2MyAxMTA2ICYjMTA7TCAyNjU5IDEwNDQgJiMxMDtRIDI1OTQgNjE2IDIyNzggMjY0ICYjMTA7USAxOTYzIC04OCAxNDg4IC04OCAmIzEwO1EgOTcyIC04OCA2MDUgMzE0ICYjMTA7USAyMzggNzE2IDIzOCAxMzk0ICYjMTA7USAyMzggMjEyOCA2MTQgMjUzOSAmIzEwO1EgOTkxIDI5NTAgMTU1OSAyOTUwICYjMTA7USAyMDQxIDI5NTAgMjM1MCAyNjMzICYjMTA7USAyNjU5IDIzMTYgMjY1OSAxNzg0ICYjMTA7TCA2ODEgMTc4NCAmIzEwO3omIzEwO00gNjgxIDE5NjYgJiMxMDtMIDIwMDYgMTk2NiAmIzEwO1EgMTk5MSAyMjQxIDE5NDEgMjM1MyAmIzEwO1EgMTg2MyAyNTI4IDE3MDggMjYyOCAmIzEwO1EgMTU1MyAyNzI4IDEzODQgMjcyOCAmIzEwO1EgMTEyNSAyNzI4IDkyMCAyNTI2ICYjMTA7USA3MTYgMjMyNSA2ODEgMTk2NiAmIzEwO3oiIGlkPSJUaW1lc05ld1JvbWFuUFNNVC02NSIvPiYjeGE7ICAgICAgICA8cGF0aCB0cmFuc2Zvcm09InNjYWxlKDAuMDE1NjI1KSIgZD0iTSAxMDM4IDI5NDcgJiMxMDtMIDEwMzggMjMwMyAmIzEwO1EgMTM5NyAyOTQ3IDE3NzUgMjk0NyAmIzEwO1EgMTk0NyAyOTQ3IDIwNTkgMjg0MiAmIzEwO1EgMjE3MiAyNzM4IDIxNzIgMjYwMCAmIzEwO1EgMjE3MiAyNDc4IDIwOTAgMjM5MyAmIzEwO1EgMjAwOSAyMzA5IDE4OTcgMjMwOSAmIzEwO1EgMTc4OCAyMzA5IDE2NTIgMjQxNyAmIzEwO1EgMTUxNiAyNTI1IDE0NTAgMjUyNSAmIzEwO1EgMTM5NCAyNTI1IDEzMjggMjQ2MyAmIzEwO1EgMTE4OCAyMzM0IDEwMzggMjA0MSAmIzEwO0wgMTAzOCA2NjkgJiMxMDtRIDEwMzggNDMxIDEwOTcgMzA5ICYjMTA7USAxMTM4IDIyNSAxMjQxIDE2OSAmIzEwO1EgMTM0NCAxMTMgMTUzOCAxMTMgJiMxMDtMIDE1MzggMCAmIzEwO0wgNzIgMCAmIzEwO0wgNzIgMTEzICYjMTA7USAyOTEgMTEzIDM5NyAxODEgJiMxMDtRIDQ3NSAyMzEgNTA2IDM0MSAmIzEwO1EgNTIyIDM5NCA1MjIgNjQ0ICYjMTA7TCA1MjIgMTc1MyAmIzEwO1EgNTIyIDIyNTMgNTAxIDIzNDggJiMxMDtRIDQ4MSAyNDQ0IDQyNiAyNDg3ICYjMTA7USAzNzIgMjUzMSAyOTEgMjUzMSAmIzEwO1EgMTk0IDI1MzEgNzIgMjQ4NCAmIzEwO0wgNDEgMjU5NyAmIzEwO0wgOTA2IDI5NDcgJiMxMDtMIDEwMzggMjk0NyAmIzEwO3oiIGlkPSJUaW1lc05ld1JvbWFuUFNNVC03MiIvPiYjeGE7ICAgICAgIDwvZGVmcz4mI3hhOyAgICAgICA8dXNlIHhsaW5rOmhyZWY9IiNUaW1lc05ld1JvbWFuUFNNVC00OCIvPiYjeGE7ICAgICAgIDx1c2UgeD0iNzIuMjE2Nzk3IiB4bGluazpocmVmPSIjVGltZXNOZXdSb21hblBTTVQtNjEiLz4mI3hhOyAgICAgICA8dXNlIHg9IjExNi42MDE1NjIiIHhsaW5rOmhyZWY9IiNUaW1lc05ld1JvbWFuUFNNVC02ZSIvPiYjeGE7ICAgICAgIDx1c2UgeD0iMTY2LjYwMTU2MiIgeGxpbms6aHJlZj0iI1RpbWVzTmV3Um9tYW5QU01ULTY0Ii8+JiN4YTsgICAgICAgPHVzZSB4PSIyMTYuNjAxNTYyIiB4bGluazpocmVmPSIjVGltZXNOZXdSb21hblBTTVQtNmYiLz4mI3hhOyAgICAgICA8dXNlIHg9IjI2Ni42MDE1NjIiIHhsaW5rOmhyZWY9IiNUaW1lc05ld1JvbWFuUFNNVC03NiIvPiYjeGE7ICAgICAgIDx1c2UgeD0iMzE2LjYwMTU2MiIgeGxpbms6aHJlZj0iI1RpbWVzTmV3Um9tYW5QU01ULTY1Ii8+JiN4YTsgICAgICAgPHVzZSB4PSIzNjAuOTg2MzI4IiB4bGluazpocmVmPSIjVGltZXNOZXdSb21hblBTTVQtNzIiLz4mI3hhOyAgICAgIDwvZz4mI3hhOyAgICAgPC9nPiYjeGE7ICAgIDwvZz4mI3hhOyAgICA8ZyBpZD0ieHRpY2tfNCI+JiN4YTsgICAgIDxnIGlkPSJsaW5lMmRfNCIvPiYjeGE7ICAgICA8ZyBpZD0idGV4dF80Ij4mI3hhOyAgICAgICYjeGE7ICAgICAgPGcgdHJhbnNmb3JtPSJ0cmFuc2xhdGUoMzkzLjM0NTc4MSA0MzQuNjI3Mykgc2NhbGUoMC4xMiAtMC4xMikiIHN0eWxlPSJmaWxsOiAjMjYyNjI2Ij4mI3hhOyAgICAgICA8ZGVmcz4mI3hhOyAgICAgICAgPHBhdGggdHJhbnNmb3JtPSJzY2FsZSgwLjAxNTYyNSkiIGQ9Ik0gMzY2OSAxMTcyICYjMTA7TCAzNzcyIDExNTAgJiMxMDtMIDM0MDkgMCAmIzEwO0wgMTI4IDAgJiMxMDtMIDEyOCAxMTYgJiMxMDtMIDI4OCAxMTYgJiMxMDtRIDU1NiAxMTYgNjcyIDI5MSAmIzEwO1EgNzM4IDM5MSA3MzggNzUzICYjMTA7TCA3MzggMzQ4OCAmIzEwO1EgNzM4IDM4ODQgNjUwIDM5ODQgJiMxMDtRIDUyOCA0MTIyIDI4OCA0MTIyICYjMTA7TCAxMjggNDEyMiAmIzEwO0wgMTI4IDQyMzggJiMxMDtMIDIwNDcgNDIzOCAmIzEwO0wgMjA0NyA0MTIyICYjMTA7USAxNzA5IDQxMjUgMTU3MyA0MDU5ICYjMTA7USAxNDM4IDM5OTQgMTM4OCAzODk0ICYjMTA7USAxMzM4IDM3OTQgMTMzOCAzNDE2ICYjMTA7TCAxMzM4IDc1MyAmIzEwO1EgMTMzOCA0OTQgMTM4OCAzOTcgJiMxMDtRIDE0MjUgMzMxIDE1MDMgMzAwICYjMTA7USAxNTgxIDI2OSAxOTkxIDI2OSAmIzEwO0wgMjMwMCAyNjkgJiMxMDtRIDI3ODggMjY5IDI5ODQgMzQxICYjMTA7USAzMTgxIDQxMyAzMzQzIDU5NSAmIzEwO1EgMzUwNiA3NzggMzY2OSAxMTcyICYjMTA7eiIgaWQ9IlRpbWVzTmV3Um9tYW5QU01ULTRjIi8+JiN4YTsgICAgICAgIDxwYXRoIHRyYW5zZm9ybT0ic2NhbGUoMC4wMTU2MjUpIiBkPSJNIC02IDI1NzggJiMxMDtMIDg3NSAyOTM0ICYjMTA7TCA5OTQgMjkzNCAmIzEwO0wgOTk0IDIyNjYgJiMxMDtRIDEyMTYgMjY0NCAxNDM5IDI3OTUgJiMxMDtRIDE2NjMgMjk0NyAxOTA5IDI5NDcgJiMxMDtRIDIzNDEgMjk0NyAyNjI4IDI2MDkgJiMxMDtRIDI5ODEgMjE5NyAyOTgxIDE1MzQgJiMxMDtRIDI5ODEgNzk0IDI1NTYgMzA5ICYjMTA7USAyMjA2IC04OCAxNjc1IC04OCAmIzEwO1EgMTQ0NCAtODggMTI3NSAtMjIgJiMxMDtRIDExNTAgMjUgOTk0IDE2NiAmIzEwO0wgOTk0IC03MDYgJiMxMDtRIDk5NCAtMTAwMCAxMDMwIC0xMDc5ICYjMTA7USAxMDY2IC0xMTU5IDExNTUgLTEyMDYgJiMxMDtRIDEyNDQgLTEyNTMgMTQ3OCAtMTI1MyAmIzEwO0wgMTQ3OCAtMTM2OSAmIzEwO0wgLTIyIC0xMzY5ICYjMTA7TCAtMjIgLTEyNTMgJiMxMDtMIDU2IC0xMjUzICYjMTA7USAyMjggLTEyNTYgMzUwIC0xMTg4ICYjMTA7USA0MDkgLTExNTMgNDQyIC0xMDc2ICYjMTA7USA0NzUgLTEwMDAgNDc1IC02ODggJiMxMDtMIDQ3NSAyMDE5ICYjMTA7USA0NzUgMjI5NyA0NTAgMjM3MiAmIzEwO1EgNDI1IDI0NDcgMzcwIDI0ODQgJiMxMDtRIDMxNiAyNTIyIDIyMiAyNTIyICYjMTA7USAxNDcgMjUyMiAzMSAyNDc4ICYjMTA7TCAtNiAyNTc4ICYjMTA7eiYjMTA7TSA5OTQgMjA4MSAmIzEwO0wgOTk0IDEwMTMgJiMxMDtRIDk5NCA2NjYgMTAyMiA1NTYgJiMxMDtRIDEwNjYgMzc1IDEyMzYgMjM3ICYjMTA7USAxNDA2IDEwMCAxNjY2IDEwMCAmIzEwO1EgMTk3OCAxMDAgMjE3MiAzNDQgJiMxMDtRIDI0MjUgNjYzIDI0MjUgMTI0MSAmIzEwO1EgMjQyNSAxODk3IDIxMzggMjI1MCAmIzEwO1EgMTkzOCAyNDk0IDE2NjMgMjQ5NCAmIzEwO1EgMTUxMyAyNDk0IDEzNjYgMjQxOSAmIzEwO1EgMTI1MyAyMzYzIDk5NCAyMDgxICYjMTA7eiIgaWQ9IlRpbWVzTmV3Um9tYW5QU01ULTcwIi8+JiN4YTsgICAgICAgIDxwYXRoIHRyYW5zZm9ybT0ic2NhbGUoMC4wMTU2MjUpIiBkPSJNIDEwMzEgMzgwMyAmIzEwO0wgMTAzMSAyODYzICYjMTA7TCAxNzAwIDI4NjMgJiMxMDtMIDE3MDAgMjY0NCAmIzEwO0wgMTAzMSAyNjQ0ICYjMTA7TCAxMDMxIDc4OCAmIzEwO1EgMTAzMSA1MDkgMTExMSA0MTIgJiMxMDtRIDExOTEgMzE2IDEzMTYgMzE2ICYjMTA7USAxNDE5IDMxNiAxNTE2IDM4MCAmIzEwO1EgMTYxMyA0NDQgMTY2NiA1NjkgJiMxMDtMIDE3ODggNTY5ICYjMTA7USAxNjc4IDI2MyAxNDc4IDEwOCAmIzEwO1EgMTI3OCAtNDcgMTA2NiAtNDcgJiMxMDtRIDkyMiAtNDcgNzg0IDMzICYjMTA7USA2NDcgMTEzIDU4MSAyNjEgJiMxMDtRIDUxNiA0MDkgNTE2IDcxOSAmIzEwO0wgNTE2IDI2NDQgJiMxMDtMIDYzIDI2NDQgJiMxMDtMIDYzIDI3NDcgJiMxMDtRIDIzNCAyODE2IDQxNCAyOTgwICYjMTA7USA1OTQgMzE0NCA3MzQgMzM2OSAmIzEwO1EgODA2IDM0ODggOTM0IDM4MDMgJiMxMDtMIDEwMzEgMzgwMyAmIzEwO3oiIGlkPSJUaW1lc05ld1JvbWFuUFNNVC03NCIvPiYjeGE7ICAgICAgIDwvZGVmcz4mI3hhOyAgICAgICA8dXNlIHhsaW5rOmhyZWY9IiNUaW1lc05ld1JvbWFuUFNNVC00YyIvPiYjeGE7ICAgICAgIDx1c2UgeD0iNjEuMDgzOTg0IiB4bGluazpocmVmPSIjVGltZXNOZXdSb21hblBTTVQtNjEiLz4mI3hhOyAgICAgICA8dXNlIHg9IjEwNS40Njg3NSIgeGxpbms6aHJlZj0iI1RpbWVzTmV3Um9tYW5QU01ULTcwIi8+JiN4YTsgICAgICAgPHVzZSB4PSIxNTUuNDY4NzUiIHhsaW5rOmhyZWY9IiNUaW1lc05ld1JvbWFuUFNNVC03NCIvPiYjeGE7ICAgICAgIDx1c2UgeD0iMTgzLjI1MTk1MyIgeGxpbms6aHJlZj0iI1RpbWVzTmV3Um9tYW5QU01ULTZmIi8+JiN4YTsgICAgICAgPHVzZSB4PSIyMzMuMjUxOTUzIiB4bGluazpocmVmPSIjVGltZXNOZXdSb21hblBTTVQtNzAiLz4mI3hhOyAgICAgIDwvZz4mI3hhOyAgICAgPC9nPiYjeGE7ICAgIDwvZz4mI3hhOyAgICA8ZyBpZD0ieHRpY2tfNSI+JiN4YTsgICAgIDxnIGlkPSJsaW5lMmRfNSIvPiYjeGE7ICAgICA8ZyBpZD0idGV4dF81Ij4mI3hhOyAgICAgICYjeGE7ICAgICAgPGcgdHJhbnNmb3JtPSJ0cmFuc2xhdGUoNDkyLjcyOTk5OSA0MzQuNjI3Mykgc2NhbGUoMC4xMiAtMC4xMikiIHN0eWxlPSJmaWxsOiAjMjYyNjI2Ij4mI3hhOyAgICAgICA8ZGVmcz4mI3hhOyAgICAgICAgPHBhdGggdHJhbnNmb3JtPSJzY2FsZSgwLjAxNTYyNSkiIGQ9Ik0gMjkzNCA0MzM0ICYjMTA7TCAyOTM0IDI4NjkgJiMxMDtMIDI4MTkgMjg2OSAmIzEwO1EgMjc2MyAzMjkxIDI2MTcgMzU0MSAmIzEwO1EgMjQ3MiAzNzkxIDIyMDMgMzkzNyAmIzEwO1EgMTkzNCA0MDg0IDE2NDcgNDA4NCAmIzEwO1EgMTMyMiA0MDg0IDExMDkgMzg4NiAmIzEwO1EgODk3IDM2ODggODk3IDM0MzQgJiMxMDtRIDg5NyAzMjQxIDEwMzEgMzA4MSAmIzEwO1EgMTIyNSAyODQ3IDE5NTMgMjQ1NiAmIzEwO1EgMjU0NyAyMTM4IDI3NjQgMTk2NyAmIzEwO1EgMjk4MSAxNzk3IDMwOTggMTU2NSAmIzEwO1EgMzIxNiAxMzM0IDMyMTYgMTA4MSAmIzEwO1EgMzIxNiA2MDAgMjg0MiAyNTEgJiMxMDtRIDI0NjkgLTk3IDE4ODEgLTk3ICYjMTA7USAxNjk3IC05NyAxNTM0IC02OSAmIzEwO1EgMTQzOCAtNTMgMTEzMyA0NSAmIzEwO1EgODI4IDE0NCA3NDcgMTQ0ICYjMTA7USA2NjkgMTQ0IDYyMyA5NyAmIzEwO1EgNTc4IDUwIDU1NiAtOTcgJiMxMDtMIDQ0MSAtOTcgJiMxMDtMIDQ0MSAxMzU2ICYjMTA7TCA1NTYgMTM1NiAmIzEwO1EgNjM4IDkwMCA3NzUgNjczICYjMTA7USA5MTMgNDQ3IDExOTUgMjk3ICYjMTA7USAxNDc4IDE0NyAxODE2IDE0NyAmIzEwO1EgMjIwNiAxNDcgMjQzMiAzNTMgJiMxMDtRIDI2NTkgNTU5IDI2NTkgODQxICYjMTA7USAyNjU5IDk5NyAyNTczIDExNTYgJiMxMDtRIDI0ODggMTMxNiAyMzA2IDE0NTMgJiMxMDtRIDIxODQgMTU0NyAxNjQwIDE4NTEgJiMxMDtRIDEwOTcgMjE1NiA4NjcgMjMzNyAmIzEwO1EgNjM4IDI1MTkgNTE5IDI3MzcgJiMxMDtRIDQwMCAyOTU2IDQwMCAzMjE5ICYjMTA7USA0MDAgMzY3NSA3NTAgNDAwNCAmIzEwO1EgMTEwMCA0MzM0IDE2NDEgNDMzNCAmIzEwO1EgMTk3OCA0MzM0IDIzNTYgNDE2OSAmIzEwO1EgMjUzMSA0MDkxIDI2MDMgNDA5MSAmIzEwO1EgMjY4NCA0MDkxIDI3MzYgNDEzOSAmIzEwO1EgMjc4OCA0MTg4IDI4MTkgNDMzNCAmIzEwO0wgMjkzNCA0MzM0ICYjMTA7eiIgaWQ9IlRpbWVzTmV3Um9tYW5QU01ULTUzIi8+JiN4YTsgICAgICAgIDxwYXRoIHRyYW5zZm9ybT0ic2NhbGUoMC4wMTU2MjUpIiBkPSJNIDQxIDI4NjMgJiMxMDtMIDEyNDEgMjg2MyAmIzEwO0wgMTI0MSAyNzQ3ICYjMTA7USAxMDc1IDI3MzQgMTAyMyAyNjg3ICYjMTA7USA5NzIgMjY0MSA5NzIgMjU1MyAmIzEwO1EgOTcyIDI0NTYgMTAyNSAyMzE5ICYjMTA7TCAxNjM4IDY3MiAmIzEwO0wgMjI1MyAyMDEzICYjMTA7TCAyMDkxIDI0MzQgJiMxMDtRIDIwMTYgMjYyMiAxODk0IDI2OTQgJiMxMDtRIDE4MjUgMjczOCAxNjM4IDI3NDcgJiMxMDtMIDE2MzggMjg2MyAmIzEwO0wgMzAwMCAyODYzICYjMTA7TCAzMDAwIDI3NDcgJiMxMDtRIDI3NzUgMjczOCAyNjgxIDI2NjYgJiMxMDtRIDI2MTkgMjYxNiAyNjE5IDI1MDYgJiMxMDtRIDI2MTkgMjQ0NCAyNjQ0IDIzNzggJiMxMDtMIDMyOTQgNzM0ICYjMTA7TCAzODk3IDIzMTkgJiMxMDtRIDM5NTkgMjQ4OCAzOTU5IDI1ODggJiMxMDtRIDM5NTkgMjY0NyAzODk4IDI2OTQgJiMxMDtRIDM4MzggMjc0MSAzNjU5IDI3NDcgJiMxMDtMIDM2NTkgMjg2MyAmIzEwO0wgNDU2MyAyODYzICYjMTA7TCA0NTYzIDI3NDcgJiMxMDtRIDQyOTEgMjcwNiA0MTYzIDIzNzggJiMxMDtMIDMyMDYgLTg4ICYjMTA7TCAzMDc4IC04OCAmIzEwO0wgMjM2MyAxNzQxICYjMTA7TCAxNTI4IC04OCAmIzEwO0wgMTQxMyAtODggJiMxMDtMIDQ5NCAyMzE5ICYjMTA7USA0MDMgMjU0NyAzMTUgMjYyNiAmIzEwO1EgMjI4IDI3MDYgNDEgMjc0NyAmIzEwO0wgNDEgMjg2MyAmIzEwO3oiIGlkPSJUaW1lc05ld1JvbWFuUFNNVC03NyIvPiYjeGE7ICAgICAgIDwvZGVmcz4mI3hhOyAgICAgICA8dXNlIHhsaW5rOmhyZWY9IiNUaW1lc05ld1JvbWFuUFNNVC01MyIvPiYjeGE7ICAgICAgIDx1c2UgeD0iNTUuNjE1MjM0IiB4bGluazpocmVmPSIjVGltZXNOZXdSb21hblBTTVQtNzciLz4mI3hhOyAgICAgICA8dXNlIHg9IjEyNy44MzIwMzEiIHhsaW5rOmhyZWY9IiNUaW1lc05ld1JvbWFuUFNNVC02NSIvPiYjeGE7ICAgICAgIDx1c2UgeD0iMTcyLjIxNjc5NyIgeGxpbms6aHJlZj0iI1RpbWVzTmV3Um9tYW5QU01ULTY1Ii8+JiN4YTsgICAgICAgPHVzZSB4PSIyMTYuNjAxNTYyIiB4bGluazpocmVmPSIjVGltZXNOZXdSb21hblBTTVQtNzAiLz4mI3hhOyAgICAgIDwvZz4mI3hhOyAgICAgPC9nPiYjeGE7ICAgIDwvZz4mI3hhOyAgICA8ZyBpZD0idGV4dF82Ij4mI3hhOyAgICAgJiN4YTsgICAgIDxnIHRyYW5zZm9ybT0idHJhbnNsYXRlKDI5My44Nzc2NTYgNDU0Ljk0NjI0OCkgc2NhbGUoMC4xNSAtMC4xNSkiIHN0eWxlPSJmaWxsOiAjMjYyNjI2Ij4mI3hhOyAgICAgIDxkZWZzPiYjeGE7ICAgICAgIDxwYXRoIHRyYW5zZm9ybT0ic2NhbGUoMC4wMTU2MjUpIiBkPSJNIDQwMzggNDIzOCAmIzEwO0wgNDAzOCAzMDkxICYjMTA7TCAzOTI1IDMwOTEgJiMxMDtRIDM4MjUgMzQ4OCAzNzAzIDM2NjEgJiMxMDtRIDM1ODEgMzgzNCAzMzY5IDM5MzggJiMxMDtRIDMyNTAgMzk5NCAyOTUzIDM5OTQgJiMxMDtMIDI2MzggMzk5NCAmIzEwO0wgMjYzOCA3MjUgJiMxMDtRIDI2MzggNDAwIDI2NzMgMzE5ICYjMTA7USAyNzA5IDIzOCAyODE0IDE3NyAmIzEwO1EgMjkxOSAxMTYgMzEwMCAxMTYgJiMxMDtMIDMyNDEgMTE2ICYjMTA7TCAzMjQxIDAgJiMxMDtMIDEwMjIgMCAmIzEwO0wgMTAyMiAxMTYgJiMxMDtMIDExNjMgMTE2ICYjMTA7USAxMzQ3IDExNiAxNDU5IDE4MSAmIzEwO1EgMTU0MSAyMjUgMTU4OCAzMzEgJiMxMDtRIDE2MjIgNDA2IDE2MjIgNzI1ICYjMTA7TCAxNjIyIDM5OTQgJiMxMDtMIDEzMTYgMzk5NCAmIzEwO1EgODg4IDM5OTQgNjk0IDM4MTMgJiMxMDtRIDQyMiAzNTU5IDM1MCAzMDkxICYjMTA7TCAyMzEgMzA5MSAmIzEwO0wgMjMxIDQyMzggJiMxMDtMIDQwMzggNDIzOCAmIzEwO3oiIGlkPSJUaW1lc05ld1JvbWFuUFMtQm9sZE1ULTU0Ii8+JiN4YTsgICAgICAgPHBhdGggdHJhbnNmb3JtPSJzY2FsZSgwLjAxNTYyNSkiIGQ9Ik0gMTgyOCA0MzEgJiMxMDtRIDEyOTQgLTQxIDg2OSAtNDEgJiMxMDtRIDYxOSAtNDEgNDUzIDEyMyAmIzEwO1EgMjg4IDI4OCAyODggNTM0ICYjMTA7USAyODggODY5IDU3NSAxMTM2ICYjMTA7USA4NjMgMTQwMyAxODI4IDE4NDcgJiMxMDtMIDE4MjggMjE0MSAmIzEwO1EgMTgyOCAyNDcyIDE3OTIgMjU1OCAmIzEwO1EgMTc1NiAyNjQ0IDE2NTYgMjcwOCAmIzEwO1EgMTU1NiAyNzcyIDE0MzEgMjc3MiAmIzEwO1EgMTIyOCAyNzcyIDEwOTcgMjY4MSAmIzEwO1EgMTAxNiAyNjI1IDEwMTYgMjU1MCAmIzEwO1EgMTAxNiAyNDg0IDExMDMgMjM4OCAmIzEwO1EgMTIyMiAyMjUzIDEyMjIgMjEyOCAmIzEwO1EgMTIyMiAxOTc1IDExMDggMTg2NyAmIzEwO1EgOTk0IDE3NTkgODA5IDE3NTkgJiMxMDtRIDYxMyAxNzU5IDQ4MCAxODc4ICYjMTA7USAzNDcgMTk5NyAzNDcgMjE1NiAmIzEwO1EgMzQ3IDIzODEgNTI1IDI1ODYgJiMxMDtRIDcwMyAyNzkxIDEwMjIgMjkwMCAmIzEwO1EgMTM0MSAzMDA5IDE2ODQgMzAwOSAmIzEwO1EgMjEwMCAzMDA5IDIzNDIgMjgzMiAmIzEwO1EgMjU4NCAyNjU2IDI2NTYgMjQ1MCAmIzEwO1EgMjcwMCAyMzE5IDI3MDAgMTg0NyAmIzEwO0wgMjcwMCA3MTMgJiMxMDtRIDI3MDAgNTEzIDI3MTUgNDYxICYjMTA7USAyNzMxIDQwOSAyNzYyIDM4NCAmIzEwO1EgMjc5NCAzNTkgMjgzNCAzNTkgJiMxMDtRIDI5MTYgMzU5IDMwMDAgNDc1ICYjMTA7TCAzMDk0IDQwMCAmIzEwO1EgMjkzOCAxNjkgMjc3MCA2NCAmIzEwO1EgMjYwMyAtNDEgMjM5MSAtNDEgJiMxMDtRIDIxNDEgLTQxIDIwMDAgNzYgJiMxMDtRIDE4NTkgMTk0IDE4MjggNDMxICYjMTA7eiYjMTA7TSAxODI4IDY1OSAmIzEwO0wgMTgyOCAxNjM4ICYjMTA7USAxNDUwIDE0MTYgMTI2NiAxMTYzICYjMTA7USAxMTQ0IDk5NCAxMTQ0IDgyMiAmIzEwO1EgMTE0NCA2NzggMTI0NyA1NjkgJiMxMDtRIDEzMjUgNDg0IDE0NjYgNDg0ICYjMTA7USAxNjIyIDQ4NCAxODI4IDY1OSAmIzEwO3oiIGlkPSJUaW1lc05ld1JvbWFuUFMtQm9sZE1ULTYxIi8+JiN4YTsgICAgICAgPHBhdGggdHJhbnNmb3JtPSJzY2FsZSgwLjAxNTYyNSkiIGQ9Ik0gMjA2MyAzMDAzICYjMTA7TCAyMTA5IDIwMDYgJiMxMDtMIDIwMDMgMjAwNiAmIzEwO1EgMTgxMyAyNDUwIDE2MDggMjYxMiAmIzEwO1EgMTQwMyAyNzc1IDEyMDAgMjc3NSAmIzEwO1EgMTA3MiAyNzc1IDk4MSAyNjg5ICYjMTA7USA4OTEgMjYwMyA4OTEgMjQ5MSAmIzEwO1EgODkxIDI0MDYgOTUzIDIzMjggJiMxMDtRIDEwNTMgMjIwMCAxNTEyIDE4ODkgJiMxMDtRIDE5NzIgMTU3OCAyMTE3IDEzNjEgJiMxMDtRIDIyNjMgMTE0NCAyMjYzIDg3NSAmIzEwO1EgMjI2MyA2MzEgMjE0MSAzOTcgJiMxMDtRIDIwMTkgMTYzIDE3OTcgMzcgJiMxMDtRIDE1NzUgLTg4IDEzMDYgLTg4ICYjMTA7USAxMDk3IC04OCA3NDcgNDQgJiMxMDtRIDY1MyA3OCA2MTkgNzggJiMxMDtRIDUxNiA3OCA0NDcgLTc4ICYjMTA7TCAzNDQgLTc4ICYjMTA7TCAyOTQgOTcyICYjMTA7TCA0MDAgOTcyICYjMTA7USA1NDEgNTU5IDc4NiAzNTMgJiMxMDtRIDEwMzEgMTQ3IDEyNTAgMTQ3ICYjMTA7USAxNDAwIDE0NyAxNDk1IDIzOSAmIzEwO1EgMTU5MSAzMzEgMTU5MSA0NjMgJiMxMDtRIDE1OTEgNjEzIDE0OTcgNzIyICYjMTA7USAxNDAzIDgzMSAxMDc4IDEwNTMgJiMxMDtRIDYwMCAxMzg0IDQ1OSAxNTU5ICYjMTA7USAyNTMgMTgxNiAyNTMgMjEyNSAmIzEwO1EgMjUzIDI0NjMgNDg2IDI3MzYgJiMxMDtRIDcxOSAzMDA5IDExNTkgMzAwOSAmIzEwO1EgMTM5NyAzMDA5IDE2MTkgMjg5NCAmIzEwO1EgMTcwMyAyODQ3IDE3NTYgMjg0NyAmIzEwO1EgMTgxMyAyODQ3IDE4NDcgMjg3MCAmIzEwO1EgMTg4MSAyODk0IDE5NTYgMzAwMyAmIzEwO0wgMjA2MyAzMDAzICYjMTA7eiIgaWQ9IlRpbWVzTmV3Um9tYW5QUy1Cb2xkTVQtNzMiLz4mI3hhOyAgICAgICA8cGF0aCB0cmFuc2Zvcm09InNjYWxlKDAuMDE1NjI1KSIgZD0iTSAxNDAzIDQyMzggJiMxMDtMIDE0MDMgMTQ1MCAmIzEwO0wgMjA4MSAyMTE2ICYjMTA7USAyMjkxIDIzMTkgMjM0MiAyNDA5ICYjMTA7USAyMzk0IDI1MDAgMjM5NCAyNTg0ICYjMTA7USAyMzk0IDI2NjkgMjMyNSAyNzI1ICYjMTA7USAyMjU2IDI3ODEgMjA1NiAyODA2ICYjMTA7TCAyMDU2IDI5MjIgJiMxMDtMIDMzNjYgMjkyMiAmIzEwO0wgMzM2NiAyODA2ICYjMTA7USAzMTc4IDI3OTcgMzAzNyAyNzE3ICYjMTA7USAyODk3IDI2MzggMjQ4OCAyMjM4ICYjMTA7TCAyMTY5IDE5MjUgJiMxMDtMIDI4NTYgOTE5ICYjMTA7USAzMjcyIDMwNiAzMzUwIDIzMSAmIzEwO1EgMzQ1NiAxMjUgMzYxOSAxMTMgJiMxMDtMIDM2MTkgMCAmIzEwO0wgMjEwOSAwICYjMTA7TCAyMTA5IDExMyAmIzEwO1EgMjIwOSAxMTMgMjI1NCAxNTAgJiMxMDtRIDIzMDAgMTg4IDIzMDAgMjMxICYjMTA7USAyMzAwIDMwMyAyMTY5IDQ5NyAmIzEwO0wgMTU5MSAxMzQ0ICYjMTA7TCAxNDAzIDExNTkgJiMxMDtMIDE0MDMgNjM0ICYjMTA7USAxNDAzIDMwMCAxNDY1IDIxNyAmIzEwO1EgMTUyOCAxMzQgMTcyMiAxMTMgJiMxMDtMIDE3MjIgMCAmIzEwO0wgMjEzIDAgJiMxMDtMIDIxMyAxMTMgJiMxMDtRIDM5NyAxMzEgNDc1IDIzMSAmIzEwO1EgNTI4IDMwMCA1MjggNjM0ICYjMTA7TCA1MjggMzYwMyAmIzEwO1EgNTI4IDM5MzQgNDY3IDQwMTUgJiMxMDtRIDQwNiA0MDk3IDIxMyA0MTIyICYjMTA7TCAyMTMgNDIzOCAmIzEwO0wgMTQwMyA0MjM4ICYjMTA7eiIgaWQ9IlRpbWVzTmV3Um9tYW5QUy1Cb2xkTVQtNmIiLz4mI3hhOyAgICAgIDwvZGVmcz4mI3hhOyAgICAgIDx1c2UgeGxpbms6aHJlZj0iI1RpbWVzTmV3Um9tYW5QUy1Cb2xkTVQtNTQiLz4mI3hhOyAgICAgIDx1c2UgeD0iNTcuNTc0MjE5IiB4bGluazpocmVmPSIjVGltZXNOZXdSb21hblBTLUJvbGRNVC02MSIvPiYjeGE7ICAgICAgPHVzZSB4PSIxMDcuNTc0MjE5IiB4bGluazpocmVmPSIjVGltZXNOZXdSb21hblBTLUJvbGRNVC03MyIvPiYjeGE7ICAgICAgPHVzZSB4PSIxNDYuNDkwMjM0IiB4bGluazpocmVmPSIjVGltZXNOZXdSb21hblBTLUJvbGRNVC02YiIvPiYjeGE7ICAgICAgPHVzZSB4PSIyMDIuMTA1NDY5IiB4bGluazpocmVmPSIjVGltZXNOZXdSb21hblBTLUJvbGRNVC03MyIvPiYjeGE7ICAgICA8L2c+JiN4YTsgICAgPC9nPiYjeGE7ICAgPC9nPiYjeGE7ICAgPGcgaWQ9Im1hdHBsb3RsaWIuYXhpc18yIj4mI3hhOyAgICA8ZyBpZD0ieXRpY2tfMSI+JiN4YTsgICAgIDxnIGlkPSJsaW5lMmRfNiI+JiN4YTsgICAgICA8cGF0aCBzdHlsZT0iZmlsbDogbm9uZTsgc3Ryb2tlOiAjY2NjY2NjOyBzdHJva2Utb3BhY2l0eTogMC4zOyBzdHJva2Utd2lkdGg6IDAuODsgc3Ryb2tlLWxpbmVjYXA6IHJvdW5kIiBjbGlwLXBhdGg9InVybCgjcDcwMDkwYzNhOTIpIiBkPSJNIDU4LjcxIDM4MC4xMjUzMiAmIzEwO0wgNTY1LjIgMzgwLjEyNTMyIi8+JiN4YTsgICAgIDwvZz4mI3hhOyAgICAgPGcgaWQ9ImxpbmUyZF83Ii8+JiN4YTsgICAgIDxnIGlkPSJ0ZXh0XzciPiYjeGE7ICAgICAgJiN4YTsgICAgICA8ZyB0cmFuc2Zvcm09InRyYW5zbGF0ZSgzMy4yMTQzNzUgMzg0LjI5MTU3KSBzY2FsZSgwLjEyIC0wLjEyKSIgc3R5bGU9ImZpbGw6ICMyNjI2MjYiPiYjeGE7ICAgICAgIDxkZWZzPiYjeGE7ICAgICAgICA8cGF0aCB0cmFuc2Zvcm09InNjYWxlKDAuMDE1NjI1KSIgZD0iTSAyOTM0IDgxNiAmIzEwO0wgMjYzOCAwICYjMTA7TCAxMzggMCAmIzEwO0wgMTM4IDExNiAmIzEwO1EgMTI0MSAxMTIyIDE2OTEgMTc1OSAmIzEwO1EgMjE0MSAyMzk3IDIxNDEgMjkyNSAmIzEwO1EgMjE0MSAzMzI4IDE4OTQgMzU4NyAmIzEwO1EgMTY0NyAzODQ3IDEzMDMgMzg0NyAmIzEwO1EgOTkxIDM4NDcgNzQyIDM2NjQgJiMxMDtRIDQ5NCAzNDgxIDM3NSAzMTI4ICYjMTA7TCAyNTkgMzEyOCAmIzEwO1EgMzM4IDM3MDYgNjYxIDQwMTUgJiMxMDtRIDk4NCA0MzI1IDE0NjkgNDMyNSAmIzEwO1EgMTk4NCA0MzI1IDIzMjkgMzk5NCAmIzEwO1EgMjY3NSAzNjYzIDI2NzUgMzIxMyAmIzEwO1EgMjY3NSAyODkxIDI1MjUgMjU2OSAmIzEwO1EgMjI5NCAyMDYzIDE3NzUgMTQ5NyAmIzEwO1EgOTk3IDY0NyA4MDMgNDcyICYjMTA7TCAxOTA5IDQ3MiAmIzEwO1EgMjI0NyA0NzIgMjM4MyA0OTcgJiMxMDtRIDI1MTkgNTIyIDI2MjggNTk4ICYjMTA7USAyNzM4IDY3NSAyODE5IDgxNiAmIzEwO0wgMjkzNCA4MTYgJiMxMDt6IiBpZD0iVGltZXNOZXdSb21hblBTTVQtMzIiLz4mI3hhOyAgICAgICAgPHBhdGggdHJhbnNmb3JtPSJzY2FsZSgwLjAxNTYyNSkiIGQ9Ik0gMjMxIDIwOTQgJiMxMDtRIDIzMSAyODE5IDQ1MCAzMzQyICYjMTA7USA2NjkgMzg2NiAxMDMxIDQxMjIgJiMxMDtRIDEzMTMgNDMyNSAxNjEzIDQzMjUgJiMxMDtRIDIxMDAgNDMyNSAyNDg4IDM4MjggJiMxMDtRIDI5NzIgMzIxMyAyOTcyIDIxNTkgJiMxMDtRIDI5NzIgMTQyMiAyNzU5IDkwNiAmIzEwO1EgMjU0NyAzOTEgMjIxNyAxNTggJiMxMDtRIDE4ODggLTc1IDE1ODEgLTc1ICYjMTA7USA5NzUgLTc1IDU3MiA2NDEgJiMxMDtRIDIzMSAxMjQ0IDIzMSAyMDk0ICYjMTA7eiYjMTA7TSA4NDQgMjAxNiAmIzEwO1EgODQ0IDExNDEgMTA1OSA1ODggJiMxMDtRIDEyMzggMTIyIDE1OTEgMTIyICYjMTA7USAxNzU5IDEyMiAxOTQwIDI3MyAmIzEwO1EgMjEyMiA0MjUgMjIxNiA3ODEgJiMxMDtRIDIzNTkgMTMxOSAyMzU5IDIyOTcgJiMxMDtRIDIzNTkgMzAyMiAyMjA5IDM1MDYgJiMxMDtRIDIwOTcgMzg2NiAxOTE5IDQwMTYgJiMxMDtRIDE3OTEgNDExOSAxNjA5IDQxMTkgJiMxMDtRIDEzOTcgNDExOSAxMjMxIDM5MjggJiMxMDtRIDEwMDYgMzY2OSA5MjUgMzExMiAmIzEwO1EgODQ0IDI1NTYgODQ0IDIwMTYgJiMxMDt6IiBpZD0iVGltZXNOZXdSb21hblBTTVQtMzAiLz4mI3hhOyAgICAgICAgPHBhdGggdHJhbnNmb3JtPSJzY2FsZSgwLjAxNTYyNSkiIGQ9Ik0gNDM1MCA0MzM0ICYjMTA7TCAxMjYzIC0xNzUgJiMxMDtMIDk4NCAtMTc1ICYjMTA7TCA0MDcyIDQzMzQgJiMxMDtMIDQzNTAgNDMzNCAmIzEwO3omIzEwO00gMTEzOCA0MzM0ICYjMTA7USAxNTU5IDQzMzQgMTc5MiAzOTg0ICYjMTA7USAyMDI1IDM2MzQgMjAyNSAzMTgxICYjMTA7USAyMDI1IDI2MzggMTc2MiAyMzQxICYjMTA7USAxNTAwIDIwNDQgMTEzMSAyMDQ0ICYjMTA7USA4ODQgMjA0NCA2NzggMjE4MCAmIzEwO1EgNDcyIDIzMTYgMzQ4IDI1ODQgJiMxMDtRIDIyNSAyODUzIDIyNSAzMTgxICYjMTA7USAyMjUgMzUwOSAzNTAgMzc4NiAmIzEwO1EgNDc1IDQwNjMgNjkyIDQxOTggJiMxMDtRIDkwOSA0MzM0IDExMzggNDMzNCAmIzEwO3omIzEwO00gMTEyOCA0MTU5ICYjMTA7USA5NjkgNDE1OSA4NDUgMzk3MSAmIzEwO1EgNzIyIDM3ODQgNzIyIDMxODQgJiMxMDtRIDcyMiAyNzUwIDc5MSAyNTIyICYjMTA7USA4NDQgMjM1MCA5NTYgMjI1NiAmIzEwO1EgMTAyMiAyMjAwIDExMTkgMjIwMCAmIzEwO1EgMTI2OSAyMjAwIDEzNzUgMjM2MyAmIzEwO1EgMTUzMSAyNjAzIDE1MzEgMzE2NiAmIzEwO1EgMTUzMSAzNzU5IDEzNzggNDAwMCAmIzEwO1EgMTI3OCA0MTU5IDExMjggNDE1OSAmIzEwO3omIzEwO00gNDIwNiAyMTAzICYjMTA7USA0NDI4IDIxMDMgNDY0OCAxOTYyICYjMTA7USA0ODY5IDE4MjIgNDk4OSAxNTUzICYjMTA7USA1MTA5IDEyODQgNTEwOSA5NjMgJiMxMDtRIDUxMDkgNDA5IDQ4NDMgMTE3ICYjMTA7USA0NTc4IC0xNzUgNDIxNiAtMTc1ICYjMTA7USAzOTg4IC0xNzUgMzc3MyAtMzQgJiMxMDtRIDM1NTkgMTA2IDM0MzYgMzY3ICYjMTA7USAzMzEzIDYyOCAzMzEzIDk2MyAmIzEwO1EgMzMxMyAxMjkxIDM0MzYgMTU2MiAmIzEwO1EgMzU1OSAxODM0IDM3NzMgMTk2OCAmIzEwO1EgMzk4OCAyMTAzIDQyMDYgMjEwMyAmIzEwO3omIzEwO00gNDIwOSAxOTM4ICYjMTA7USA0MDU5IDE5MzggMzk1MCAxNzY5ICYjMTA7USAzODA5IDE1NTAgMzgwOSA5NDEgJiMxMDtRIDM4MDkgMzgxIDM5NTMgMTU5ICYjMTA7USA0MDU5IDAgNDIwOSAwICYjMTA7USA0MzUzIDAgNDQ2NiAxNzIgJiMxMDtRIDQ2MTYgNDAwIDQ2MTYgOTU2ICYjMTA7USA0NjE2IDE1NDQgNDQ2NiAxNzc4ICYjMTA7USA0MzYzIDE5MzggNDIwOSAxOTM4ICYjMTA7eiIgaWQ9IlRpbWVzTmV3Um9tYW5QU01ULTI1Ii8+JiN4YTsgICAgICAgPC9kZWZzPiYjeGE7ICAgICAgIDx1c2UgeGxpbms6aHJlZj0iI1RpbWVzTmV3Um9tYW5QU01ULTMyIi8+JiN4YTsgICAgICAgPHVzZSB4PSI1MCIgeGxpbms6aHJlZj0iI1RpbWVzTmV3Um9tYW5QU01ULTMwIi8+JiN4YTsgICAgICAgPHVzZSB4PSIxMDAiIHhsaW5rOmhyZWY9IiNUaW1lc05ld1JvbWFuUFNNVC0yNSIvPiYjeGE7ICAgICAgPC9nPiYjeGE7ICAgICA8L2c+JiN4YTsgICAgPC9nPiYjeGE7ICAgIDxnIGlkPSJ5dGlja18yIj4mI3hhOyAgICAgPGcgaWQ9ImxpbmUyZF84Ij4mI3hhOyAgICAgIDxwYXRoIHN0eWxlPSJmaWxsOiBub25lOyBzdHJva2U6ICNjY2NjY2M7IHN0cm9rZS1vcGFjaXR5OiAwLjM7IHN0cm9rZS13aWR0aDogMC44OyBzdHJva2UtbGluZWNhcDogcm91bmQiIGNsaXAtcGF0aD0idXJsKCNwNzAwOTBjM2E5MikiIGQ9Ik0gNTguNzEgMzAzLjc4NjM2ICYjMTA7TCA1NjUuMiAzMDMuNzg2MzYiLz4mI3hhOyAgICAgPC9nPiYjeGE7ICAgICA8ZyBpZD0ibGluZTJkXzkiLz4mI3hhOyAgICAgPGcgaWQ9InRleHRfOCI+JiN4YTsgICAgICAmI3hhOyAgICAgIDxnIHRyYW5zZm9ybT0idHJhbnNsYXRlKDMzLjIxNDM3NSAzMDcuOTUyNjEpIHNjYWxlKDAuMTIgLTAuMTIpIiBzdHlsZT0iZmlsbDogIzI2MjYyNiI+JiN4YTsgICAgICAgPGRlZnM+JiN4YTsgICAgICAgIDxwYXRoIHRyYW5zZm9ybT0ic2NhbGUoMC4wMTU2MjUpIiBkPSJNIDI5NzggMTU2MyAmIzEwO0wgMjk3OCAxMTE5ICYjMTA7TCAyNDA5IDExMTkgJiMxMDtMIDI0MDkgMCAmIzEwO0wgMTg5NCAwICYjMTA7TCAxODk0IDExMTkgJiMxMDtMIDEwMCAxMTE5ICYjMTA7TCAxMDAgMTUxOSAmIzEwO0wgMjA2NiA0MzI1ICYjMTA7TCAyNDA5IDQzMjUgJiMxMDtMIDI0MDkgMTU2MyAmIzEwO0wgMjk3OCAxNTYzICYjMTA7eiYjMTA7TSAxODk0IDE1NjMgJiMxMDtMIDE4OTQgMzY2NiAmIzEwO0wgNDA2IDE1NjMgJiMxMDtMIDE4OTQgMTU2MyAmIzEwO3oiIGlkPSJUaW1lc05ld1JvbWFuUFNNVC0zNCIvPiYjeGE7ICAgICAgIDwvZGVmcz4mI3hhOyAgICAgICA8dXNlIHhsaW5rOmhyZWY9IiNUaW1lc05ld1JvbWFuUFNNVC0zNCIvPiYjeGE7ICAgICAgIDx1c2UgeD0iNTAiIHhsaW5rOmhyZWY9IiNUaW1lc05ld1JvbWFuUFNNVC0zMCIvPiYjeGE7ICAgICAgIDx1c2UgeD0iMTAwIiB4bGluazpocmVmPSIjVGltZXNOZXdSb21hblBTTVQtMjUiLz4mI3hhOyAgICAgIDwvZz4mI3hhOyAgICAgPC9nPiYjeGE7ICAgIDwvZz4mI3hhOyAgICA8ZyBpZD0ieXRpY2tfMyI+JiN4YTsgICAgIDxnIGlkPSJsaW5lMmRfMTAiPiYjeGE7ICAgICAgPHBhdGggc3R5bGU9ImZpbGw6IG5vbmU7IHN0cm9rZTogI2NjY2NjYzsgc3Ryb2tlLW9wYWNpdHk6IDAuMzsgc3Ryb2tlLXdpZHRoOiAwLjg7IHN0cm9rZS1saW5lY2FwOiByb3VuZCIgY2xpcC1wYXRoPSJ1cmwoI3A3MDA5MGMzYTkyKSIgZD0iTSA1OC43MSAyMjcuNDQ3NCAmIzEwO0wgNTY1LjIgMjI3LjQ0NzQiLz4mI3hhOyAgICAgPC9nPiYjeGE7ICAgICA8ZyBpZD0ibGluZTJkXzExIi8+JiN4YTsgICAgIDxnIGlkPSJ0ZXh0XzkiPiYjeGE7ICAgICAgJiN4YTsgICAgICA8ZyB0cmFuc2Zvcm09InRyYW5zbGF0ZSgzMy4yMTQzNzUgMjMxLjYxMzY1KSBzY2FsZSgwLjEyIC0wLjEyKSIgc3R5bGU9ImZpbGw6ICMyNjI2MjYiPiYjeGE7ICAgICAgIDxkZWZzPiYjeGE7ICAgICAgICA8cGF0aCB0cmFuc2Zvcm09InNjYWxlKDAuMDE1NjI1KSIgZD0iTSAyODY5IDQzMjUgJiMxMDtMIDI4NjkgNDIwOSAmIzEwO1EgMjQ1NiA0MTY5IDIxOTUgNDA0NSAmIzEwO1EgMTkzNCAzOTIyIDE2NzkgMzY2OSAmIzEwO1EgMTQyNSAzNDE2IDEyNTggMzEwNSAmIzEwO1EgMTA5MSAyNzk0IDk3OCAyMzY2ICYjMTA7USAxNDI4IDI2NzUgMTg4MSAyNjc1ICYjMTA7USAyMzE2IDI2NzUgMjYzNCAyMzI1ICYjMTA7USAyOTUzIDE5NzUgMjk1MyAxNDI1ICYjMTA7USAyOTUzIDg5NCAyNjMxIDQ1NiAmIzEwO1EgMjI0NCAtNzUgMTYwNiAtNzUgJiMxMDtRIDExNzIgLTc1IDg2OSAyMTMgJiMxMDtRIDI3NSA3NzIgMjc1IDE2NjMgJiMxMDtRIDI3NSAyMjMxIDUwMyAyNzQzICYjMTA7USA3MzEgMzI1NiAxMTU0IDM2NTMgJiMxMDtRIDE1NzggNDA1MCAxOTY1IDQxODcgJiMxMDtRIDIzNTMgNDMyNSAyNjg4IDQzMjUgJiMxMDtMIDI4NjkgNDMyNSAmIzEwO3omIzEwO00gOTI1IDIxMzggJiMxMDtRIDg2OSAxNzE2IDg2OSAxNDU2ICYjMTA7USA4NjkgMTE1NiA5ODAgODA0ICYjMTA7USAxMDkxIDQ1MyAxMzA5IDI0NyAmIzEwO1EgMTQ2OSAxMDAgMTY5NyAxMDAgJiMxMDtRIDE5NjkgMTAwIDIxODMgMzU2ICYjMTA7USAyMzk3IDYxMyAyMzk3IDEwODggJiMxMDtRIDIzOTcgMTYyMiAyMTg0IDIwMTIgJiMxMDtRIDE5NzIgMjQwMyAxNTgxIDI0MDMgJiMxMDtRIDE0NjMgMjQwMyAxMzI3IDIzNTMgJiMxMDtRIDExOTEgMjMwMyA5MjUgMjEzOCAmIzEwO3oiIGlkPSJUaW1lc05ld1JvbWFuUFNNVC0zNiIvPiYjeGE7ICAgICAgIDwvZGVmcz4mI3hhOyAgICAgICA8dXNlIHhsaW5rOmhyZWY9IiNUaW1lc05ld1JvbWFuUFNNVC0zNiIvPiYjeGE7ICAgICAgIDx1c2UgeD0iNTAiIHhsaW5rOmhyZWY9IiNUaW1lc05ld1JvbWFuUFNNVC0zMCIvPiYjeGE7ICAgICAgIDx1c2UgeD0iMTAwIiB4bGluazpocmVmPSIjVGltZXNOZXdSb21hblBTTVQtMjUiLz4mI3hhOyAgICAgIDwvZz4mI3hhOyAgICAgPC9nPiYjeGE7ICAgIDwvZz4mI3hhOyAgICA8ZyBpZD0ieXRpY2tfNCI+JiN4YTsgICAgIDxnIGlkPSJsaW5lMmRfMTIiPiYjeGE7ICAgICAgPHBhdGggc3R5bGU9ImZpbGw6IG5vbmU7IHN0cm9rZTogI2NjY2NjYzsgc3Ryb2tlLW9wYWNpdHk6IDAuMzsgc3Ryb2tlLXdpZHRoOiAwLjg7IHN0cm9rZS1saW5lY2FwOiByb3VuZCIgY2xpcC1wYXRoPSJ1cmwoI3A3MDA5MGMzYTkyKSIgZD0iTSA1OC43MSAxNTEuMTA4NDQgJiMxMDtMIDU2NS4yIDE1MS4xMDg0NCIvPiYjeGE7ICAgICA8L2c+JiN4YTsgICAgIDxnIGlkPSJsaW5lMmRfMTMiLz4mI3hhOyAgICAgPGcgaWQ9InRleHRfMTAiPiYjeGE7ICAgICAgJiN4YTsgICAgICA8ZyB0cmFuc2Zvcm09InRyYW5zbGF0ZSgzMy4yMTQzNzUgMTU1LjI3NDY5KSBzY2FsZSgwLjEyIC0wLjEyKSIgc3R5bGU9ImZpbGw6ICMyNjI2MjYiPiYjeGE7ICAgICAgIDxkZWZzPiYjeGE7ICAgICAgICA8cGF0aCB0cmFuc2Zvcm09InNjYWxlKDAuMDE1NjI1KSIgZD0iTSAxMjI4IDIxMzQgJiMxMDtRIDcyNSAyNTQ3IDU3OSAyNzk3ICYjMTA7USA0MzQgMzA0NyA0MzQgMzMxNiAmIzEwO1EgNDM0IDM3MjggNzUzIDQwMjYgJiMxMDtRIDEwNzIgNDMyNSAxNjAwIDQzMjUgJiMxMDtRIDIxMTMgNDMyNSAyNDI1IDQwNDcgJiMxMDtRIDI3MzggMzc2OSAyNzM4IDM0MTMgJiMxMDtRIDI3MzggMzE3NSAyNTY5IDI5MjggJiMxMDtRIDI0MDAgMjY4MSAxODY2IDIzNDcgJiMxMDtRIDI0MTYgMTkyMiAyNTk0IDE2NzggJiMxMDtRIDI4MzEgMTM1OSAyODMxIDEwMDYgJiMxMDtRIDI4MzEgNTU5IDI0OTAgMjQyICYjMTA7USAyMTUwIC03NSAxNTk3IC03NSAmIzEwO1EgOTk0IC03NSA2NTYgMzAzICYjMTA7USAzODggNjA2IDM4OCA5NjYgJiMxMDtRIDM4OCAxMjQ3IDU3NyAxNTIzICYjMTA7USA3NjYgMTgwMCAxMjI4IDIxMzQgJiMxMDt6JiMxMDtNIDE3MTkgMjQ2OSAmIzEwO1EgMjA5NCAyODA2IDIxOTQgMzAwMSAmIzEwO1EgMjI5NCAzMTk3IDIyOTQgMzQ0NCAmIzEwO1EgMjI5NCAzNzcyIDIxMDkgMzk1OCAmIzEwO1EgMTkyNSA0MTQ0IDE2MDYgNDE0NCAmIzEwO1EgMTI4OCA0MTQ0IDEwODggMzk1OSAmIzEwO1EgODg4IDM3NzUgODg4IDM1MjggJiMxMDtRIDg4OCAzMzY2IDk3MCAzMjAzICYjMTA7USAxMDUzIDMwNDEgMTIwNiAyODk0ICYjMTA7TCAxNzE5IDI0NjkgJiMxMDt6JiMxMDtNIDEzNzUgMjAxNiAmIzEwO1EgMTExNiAxNzk3IDk5MSAxNTM5ICYjMTA7USA4NjYgMTI4MSA4NjYgOTgxICYjMTA7USA4NjYgNTc4IDEwODYgMzM2ICYjMTA7USAxMzA2IDk0IDE2NDcgOTQgJiMxMDtRIDE5ODQgOTQgMjE4NyAyODQgJiMxMDtRIDIzOTEgNDc1IDIzOTEgNzQ3ICYjMTA7USAyMzkxIDk3MiAyMjcyIDExNTAgJiMxMDtRIDIwNTAgMTQ4MSAxMzc1IDIwMTYgJiMxMDt6IiBpZD0iVGltZXNOZXdSb21hblBTTVQtMzgiLz4mI3hhOyAgICAgICA8L2RlZnM+JiN4YTsgICAgICAgPHVzZSB4bGluazpocmVmPSIjVGltZXNOZXdSb21hblBTTVQtMzgiLz4mI3hhOyAgICAgICA8dXNlIHg9IjUwIiB4bGluazpocmVmPSIjVGltZXNOZXdSb21hblBTTVQtMzAiLz4mI3hhOyAgICAgICA8dXNlIHg9IjEwMCIgeGxpbms6aHJlZj0iI1RpbWVzTmV3Um9tYW5QU01ULTI1Ii8+JiN4YTsgICAgICA8L2c+JiN4YTsgICAgIDwvZz4mI3hhOyAgICA8L2c+JiN4YTsgICAgPGcgaWQ9Inl0aWNrXzUiPiYjeGE7ICAgICA8ZyBpZD0ibGluZTJkXzE0Ij4mI3hhOyAgICAgIDxwYXRoIHN0eWxlPSJmaWxsOiBub25lOyBzdHJva2U6ICNjY2NjY2M7IHN0cm9rZS1vcGFjaXR5OiAwLjM7IHN0cm9rZS13aWR0aDogMC44OyBzdHJva2UtbGluZWNhcDogcm91bmQiIGNsaXAtcGF0aD0idXJsKCNwNzAwOTBjM2E5MikiIGQ9Ik0gNTguNzEgNzQuNzY5NDggJiMxMDtMIDU2NS4yIDc0Ljc2OTQ4Ii8+JiN4YTsgICAgIDwvZz4mI3hhOyAgICAgPGcgaWQ9ImxpbmUyZF8xNSIvPiYjeGE7ICAgICA8ZyBpZD0idGV4dF8xMSI+JiN4YTsgICAgICAmI3hhOyAgICAgIDxnIHRyYW5zZm9ybT0idHJhbnNsYXRlKDI3LjIxNDM3NSA3OC45MzU3Mykgc2NhbGUoMC4xMiAtMC4xMikiIHN0eWxlPSJmaWxsOiAjMjYyNjI2Ij4mI3hhOyAgICAgICA8ZGVmcz4mI3hhOyAgICAgICAgPHBhdGggdHJhbnNmb3JtPSJzY2FsZSgwLjAxNTYyNSkiIGQ9Ik0gNzUwIDM4MjIgJiMxMDtMIDE3ODEgNDMyNSAmIzEwO0wgMTg4NCA0MzI1ICYjMTA7TCAxODg0IDc0NyAmIzEwO1EgMTg4NCAzOTEgMTkxNCAzMDMgJiMxMDtRIDE5NDQgMjE2IDIwMzcgMTY5ICYjMTA7USAyMTMxIDEyMiAyNDE5IDExNiAmIzEwO0wgMjQxOSAwICYjMTA7TCA4MjUgMCAmIzEwO0wgODI1IDExNiAmIzEwO1EgMTEyNSAxMjIgMTIxMiAxNjcgJiMxMDtRIDEzMDAgMjEzIDEzMzQgMjg5ICYjMTA7USAxMzY5IDM2NiAxMzY5IDc0NyAmIzEwO0wgMTM2OSAzMDM0ICYjMTA7USAxMzY5IDM0OTcgMTMzOCAzNjI4ICYjMTA7USAxMzE2IDM3MjggMTI1OCAzNzc1ICYjMTA7USAxMjAwIDM4MjIgMTExOSAzODIyICYjMTA7USAxMDAzIDM4MjIgNzk3IDM3MjUgJiMxMDtMIDc1MCAzODIyICYjMTA7eiIgaWQ9IlRpbWVzTmV3Um9tYW5QU01ULTMxIi8+JiN4YTsgICAgICAgPC9kZWZzPiYjeGE7ICAgICAgIDx1c2UgeGxpbms6aHJlZj0iI1RpbWVzTmV3Um9tYW5QU01ULTMxIi8+JiN4YTsgICAgICAgPHVzZSB4PSI1MCIgeGxpbms6aHJlZj0iI1RpbWVzTmV3Um9tYW5QU01ULTMwIi8+JiN4YTsgICAgICAgPHVzZSB4PSIxMDAiIHhsaW5rOmhyZWY9IiNUaW1lc05ld1JvbWFuUFNNVC0zMCIvPiYjeGE7ICAgICAgIDx1c2UgeD0iMTUwIiB4bGluazpocmVmPSIjVGltZXNOZXdSb21hblBTTVQtMjUiLz4mI3hhOyAgICAgIDwvZz4mI3hhOyAgICAgPC9nPiYjeGE7ICAgIDwvZz4mI3hhOyAgICA8ZyBpZD0idGV4dF8xMiI+JiN4YTsgICAgICYjeGE7ICAgICA8ZyB0cmFuc2Zvcm09InRyYW5zbGF0ZSgyMC4xOTM0MzggMjg1LjU2NzA4Nykgcm90YXRlKC05MCkgc2NhbGUoMC4xNCAtMC4xNCkiIHN0eWxlPSJmaWxsOiAjMjYyNjI2Ij4mI3hhOyAgICAgIDxkZWZzPiYjeGE7ICAgICAgIDxwYXRoIHRyYW5zZm9ybT0ic2NhbGUoMC4wMTU2MjUpIiBkPSJNIDI2NjMgMTIwNiAmIzEwO0wgMTE2NiAxMjA2ICYjMTA7TCA5ODggNzk0ICYjMTA7USA5MDAgNTg4IDkwMCA0NTMgJiMxMDtRIDkwMCAyNzUgMTA0NCAxOTEgJiMxMDtRIDExMjggMTQxIDE0NTkgMTE2ICYjMTA7TCAxNDU5IDAgJiMxMDtMIDUwIDAgJiMxMDtMIDUwIDExNiAmIzEwO1EgMjc4IDE1MCA0MjUgMzA0ICYjMTA7USA1NzIgNDU5IDc4OCA5NDQgJiMxMDtMIDIzMDMgNDMyNSAmIzEwO0wgMjM2MyA0MzI1ICYjMTA7TCAzODkxIDg1MCAmIzEwO1EgNDEwOSAzNTYgNDI1MCAyMjggJiMxMDtRIDQzNTYgMTMxIDQ1NTAgMTE2ICYjMTA7TCA0NTUwIDAgJiMxMDtMIDI1MDAgMCAmIzEwO0wgMjUwMCAxMTYgJiMxMDtMIDI1ODQgMTE2ICYjMTA7USAyODMxIDExNiAyOTMxIDE4NCAmIzEwO1EgMzAwMCAyMzQgMzAwMCAzMjggJiMxMDtRIDMwMDAgMzg0IDI5ODEgNDQ0ICYjMTA7USAyOTc1IDQ3MiAyODg4IDY3OCAmIzEwO0wgMjY2MyAxMjA2ICYjMTA7eiYjMTA7TSAyNTU2IDE0MzggJiMxMDtMIDE5MjUgMjg5NyAmIzEwO0wgMTI3NSAxNDM4ICYjMTA7TCAyNTU2IDE0MzggJiMxMDt6IiBpZD0iVGltZXNOZXdSb21hblBTLUJvbGRNVC00MSIvPiYjeGE7ICAgICAgIDxwYXRoIHRyYW5zZm9ybT0ic2NhbGUoMC4wMTU2MjUpIiBkPSJNIDI2MDAgNzUzICYjMTA7TCAyNjk3IDY3OCAmIzEwO1EgMjQ5MSAyOTEgMjE4MyAxMDEgJiMxMDtRIDE4NzUgLTg4IDE1MjggLTg4ICYjMTA7USA5NDQgLTg4IDU5NCAzNTMgJiMxMDtRIDI0NCA3OTQgMjQ0IDE0MTMgJiMxMDtRIDI0NCAyMDA5IDU2MyAyNDYzICYjMTA7USA5NDcgMzAwOSAxNjIyIDMwMDkgJiMxMDtRIDIwNzUgMzAwOSAyMzQyIDI3ODEgJiMxMDtRIDI2MDkgMjU1MyAyNjA5IDIyNzIgJiMxMDtRIDI2MDkgMjA5NCAyNTAxIDE5ODcgJiMxMDtRIDIzOTQgMTg4MSAyMjE5IDE4ODEgJiMxMDtRIDIwMzQgMTg4MSAxOTE0IDIwMDMgJiMxMDtRIDE3OTQgMjEyNSAxNzY2IDI0MzggJiMxMDtRIDE3NDcgMjYzNCAxNjc1IDI3MTMgJiMxMDtRIDE2MDMgMjc5MSAxNTA2IDI3OTEgJiMxMDtRIDEzNTYgMjc5MSAxMjUwIDI2MzEgJiMxMDtRIDEwODggMjM5MSAxMDg4IDE4OTQgJiMxMDtRIDEwODggMTQ4MSAxMjE5IDExMDQgJiMxMDtRIDEzNTAgNzI4IDE1NzggNTQ0ICYjMTA7USAxNzUwIDQwOSAxOTg0IDQwOSAmIzEwO1EgMjEzOCA0MDkgMjI3NSA0ODEgJiMxMDtRIDI0MTMgNTUzIDI2MDAgNzUzICYjMTA7eiIgaWQ9IlRpbWVzTmV3Um9tYW5QUy1Cb2xkTVQtNjMiLz4mI3hhOyAgICAgICA8cGF0aCB0cmFuc2Zvcm09InNjYWxlKDAuMDE1NjI1KSIgZD0iTSAzMDM4IDI5MjIgJiMxMDtMIDMwMzggNjM0ICYjMTA7USAzMDM4IDMwMCAzMTAwIDIxNyAmIzEwO1EgMzE2MyAxMzQgMzM1MyAxMTMgJiMxMDtMIDMzNTMgMCAmIzEwO0wgMjE2MyAwICYjMTA7TCAyMTYzIDM5MSAmIzEwO1EgMTk1MyAxNDEgMTc0MyAyNiAmIzEwO1EgMTUzNCAtODggMTI3NSAtODggJiMxMDtRIDEwMjggLTg4IDgzNiA2NCAmIzEwO1EgNjQ0IDIxNiA1NzggNDE5ICYjMTA7USA1MTMgNjIyIDUxMyAxMTI4ICYjMTA7TCA1MTMgMjI4OCAmIzEwO1EgNTEzIDI2MTkgNDUyIDI3MDAgJiMxMDtRIDM5MSAyNzgxIDE5NyAyODA2ICYjMTA7TCAxOTcgMjkyMiAmIzEwO0wgMTM4OCAyOTIyICYjMTA7TCAxMzg4IDkyNSAmIzEwO1EgMTM4OCA2MTMgMTQxNyA1MjIgJiMxMDtRIDE0NDcgNDMxIDE1MTEgMzg0ICYjMTA7USAxNTc1IDMzOCAxNjU5IDMzOCAmIzEwO1EgMTc3MiAzMzggMTg2MyAzOTcgJiMxMDtRIDE5ODggNDc4IDIxNjMgNzI1ICYjMTA7TCAyMTYzIDIyODggJiMxMDtRIDIxNjMgMjYxOSAyMTAyIDI3MDAgJiMxMDtRIDIwNDEgMjc4MSAxODQ3IDI4MDYgJiMxMDtMIDE4NDcgMjkyMiAmIzEwO0wgMzAzOCAyOTIyICYjMTA7eiIgaWQ9IlRpbWVzTmV3Um9tYW5QUy1Cb2xkTVQtNzUiLz4mI3hhOyAgICAgICA8cGF0aCB0cmFuc2Zvcm09InNjYWxlKDAuMDE1NjI1KSIgZD0iTSAxNDI4IDI5MjIgJiMxMDtMIDE0MjggMjI1OSAmIzEwO1EgMTcxOSAyNzEzIDE5MzcgMjg2MSAmIzEwO1EgMjE1NiAzMDA5IDIzNTkgMzAwOSAmIzEwO1EgMjUzNCAzMDA5IDI2MzkgMjkwMSAmIzEwO1EgMjc0NCAyNzk0IDI3NDQgMjU5NyAmIzEwO1EgMjc0NCAyMzg4IDI2NDIgMjI3MiAmIzEwO1EgMjU0MSAyMTU2IDIzOTcgMjE1NiAmIzEwO1EgMjIzMSAyMTU2IDIxMDkgMjI2MiAmIzEwO1EgMTk4OCAyMzY5IDE5NjYgMjM4MSAmIzEwO1EgMTkzNCAyNDAwIDE4OTQgMjQwMCAmIzEwO1EgMTgwMyAyNDAwIDE3MjIgMjMzMSAmIzEwO1EgMTU5NCAyMjI1IDE1MjggMjAyOCAmIzEwO1EgMTQyOCAxNzI1IDE0MjggMTM1OSAmIzEwO0wgMTQyOCA2ODggJiMxMDtMIDE0MzEgNTEzICYjMTA7USAxNDMxIDMzNCAxNDUzIDI4NCAmIzEwO1EgMTQ5MSAyMDAgMTU2NCAxNjEgJiMxMDtRIDE2MzggMTIyIDE4MTMgMTEzICYjMTA7TCAxODEzIDAgJiMxMDtMIDIzNCAwICYjMTA7TCAyMzQgMTEzICYjMTA7USA0MjUgMTI4IDQ5MiAyMTcgJiMxMDtRIDU1OSAzMDYgNTU5IDY4OCAmIzEwO0wgNTU5IDIzMDMgJiMxMDtRIDU1OSAyNTUzIDUzNCAyNjIyICYjMTA7USA1MDMgMjcwOSA0NDMgMjc1MCAmIzEwO1EgMzg0IDI3OTEgMjM0IDI4MDYgJiMxMDtMIDIzNCAyOTIyICYjMTA7TCAxNDI4IDI5MjIgJiMxMDt6IiBpZD0iVGltZXNOZXdSb21hblBTLUJvbGRNVC03MiIvPiYjeGE7ICAgICAgIDxwYXRoIHRyYW5zZm9ybT0ic2NhbGUoMC4wMTU2MjUpIiBkPSJNIDE1NTYgLTExOSAmIzEwO0wgNjEzIDIwNDcgJiMxMDtRIDQwMCAyNTM4IDI5OCAyNjUwICYjMTA7USAxOTcgMjc2MyA1MyAyODA2ICYjMTA7TCA1MyAyOTIyICYjMTA7TCAxNjA2IDI5MjIgJiMxMDtMIDE2MDYgMjgwNiAmIzEwO1EgMTQ1MyAyODAwIDEzOTAgMjc0NyAmIzEwO1EgMTMyOCAyNjk0IDEzMjggMjYxOSAmIzEwO1EgMTMyOCAyNTAwIDE0ODQgMjE1MCAmIzEwO0wgMTk4NCAxMDA2ICYjMTA7TCAyMzI1IDE4OTEgJiMxMDtRIDI1MDkgMjM2MyAyNTA5IDI1NDcgJiMxMDtRIDI1MDkgMjY2MyAyNDMyIDI3MzEgJiMxMDtRIDIzNTYgMjgwMCAyMTYzIDI4MDYgJiMxMDtMIDIxNjMgMjkyMiAmIzEwO0wgMzE0MSAyOTIyICYjMTA7TCAzMTQxIDI4MDYgJiMxMDtRIDI5OTcgMjc5MSAyOTA2IDI2OTUgJiMxMDtRIDI4MTYgMjYwMCAyNjAzIDIwNDcgJiMxMDtMIDE3NjkgLTExOSAmIzEwO1EgMTQ1MyAtOTMxIDEzMDAgLTExMTkgJiMxMDtRIDEwODQgLTEzODEgNzU5IC0xMzgxICYjMTA7USA1MDAgLTEzODEgMzM5IC0xMjMyICYjMTA7USAxNzggLTEwODQgMTc4IC04NzUgJiMxMDtRIDE3OCAtNjk0IDI4OSAtNTc1ICYjMTA7USA0MDAgLTQ1NiA1NjMgLTQ1NiAmIzEwO1EgNzE5IC00NTYgODE0IC01NTYgJiMxMDtRIDkwOSAtNjU2IDkxMyAtODY2ICYjMTA7USA5MTYgLTk4NCA5NDEgLTEwMTkgJiMxMDtRIDk2NiAtMTA1MyAxMDEzIC0xMDUzICYjMTA7USAxMDg4IC0xMDUzIDExNzIgLTk2MyAmIzEwO1EgMTI5NyAtODMxIDE0NjYgLTM2MyAmIzEwO0wgMTU1NiAtMTE5ICYjMTA7eiIgaWQ9IlRpbWVzTmV3Um9tYW5QUy1Cb2xkTVQtNzkiLz4mI3hhOyAgICAgICA8cGF0aCB0cmFuc2Zvcm09InNjYWxlKDAuMDE1NjI1KSIgaWQ9IlRpbWVzTmV3Um9tYW5QUy1Cb2xkTVQtMjAiLz4mI3hhOyAgICAgICA8cGF0aCB0cmFuc2Zvcm09InNjYWxlKDAuMDE1NjI1KSIgZD0iTSAxNzAwIDE5MzEgJiMxMDtMIDE3MDAgNzQ0ICYjMTA7USAxNzAwIDQwMCAxNzQyIDMxMSAmIzEwO1EgMTc4NCAyMjIgMTg5MCAxNjkgJiMxMDtRIDE5OTcgMTE2IDIyODggMTE2ICYjMTA7TCAyMjg4IDAgJiMxMDtMIDExOSAwICYjMTA7TCAxMTkgMTE2ICYjMTA7USA0MTMgMTE2IDUxNyAxNzAgJiMxMDtRIDYyMiAyMjUgNjY0IDMxMiAmIzEwO1EgNzA2IDQwMCA3MDYgNzQ0ICYjMTA7TCA3MDYgMzQ5NCAmIzEwO1EgNzA2IDM4MzggNjY0IDM5MjcgJiMxMDtRIDYyMiA0MDE2IDUxNSA0MDY5ICYjMTA7USA0MDkgNDEyMiAxMTkgNDEyMiAmIzEwO0wgMTE5IDQyMzggJiMxMDtMIDIwODggNDIzOCAmIzEwO1EgMjg1NiA0MjM4IDMyMTIgNDEzMSAmIzEwO1EgMzU2OSA0MDI1IDM3OTQgMzczOSAmIzEwO1EgNDAxOSAzNDUzIDQwMTkgMzA2OSAmIzEwO1EgNDAxOSAyNjAwIDM2ODEgMjI5NCAmIzEwO1EgMzQ2NiAyMTAwIDMwNzggMjAwMyAmIzEwO0wgNDA5NyA1NjkgJiMxMDtRIDQyOTcgMjkxIDQzODEgMjIyICYjMTA7USA0NTA5IDEyNSA0Njc4IDExNiAmIzEwO0wgNDY3OCAwICYjMTA7TCAzMzQ0IDAgJiMxMDtMIDE5NzggMTkzMSAmIzEwO0wgMTcwMCAxOTMxICYjMTA7eiYjMTA7TSAxNzAwIDQwMDkgJiMxMDtMIDE3MDAgMjE1MyAmIzEwO0wgMTg3OCAyMTUzICYjMTA7USAyMzEzIDIxNTMgMjUyOCAyMjMzICYjMTA7USAyNzQ0IDIzMTMgMjg2NyAyNTIwICYjMTA7USAyOTkxIDI3MjggMjk5MSAzMDYzICYjMTA7USAyOTkxIDM1NDcgMjc2NCAzNzc4ICYjMTA7USAyNTM4IDQwMDkgMjAzNCA0MDA5ICYjMTA7TCAxNzAwIDQwMDkgJiMxMDt6IiBpZD0iVGltZXNOZXdSb21hblBTLUJvbGRNVC01MiIvPiYjeGE7ICAgICAgIDxwYXRoIHRyYW5zZm9ybT0ic2NhbGUoMC4wMTU2MjUpIiBkPSJNIDEzNzUgMzk5MSAmIzEwO0wgMTM3NSAyOTIyICYjMTA7TCAyMDY5IDI5MjIgJiMxMDtMIDIwNjkgMjYxMyAmIzEwO0wgMTM3NSAyNjEzICYjMTA7TCAxMzc1IDgwOSAmIzEwO1EgMTM3NSA1NTYgMTM5OCA0ODIgJiMxMDtRIDE0MjIgNDA5IDE0ODEgMzY0ICYjMTA7USAxNTQxIDMxOSAxNTkxIDMxOSAmIzEwO1EgMTc5NCAzMTkgMTk3NSA2MjggJiMxMDtMIDIwNjkgNTU5ICYjMTA7USAxODE2IC00MSAxMjQ3IC00MSAmIzEwO1EgOTY5IC00MSA3NzYgMTE0ICYjMTA7USA1ODQgMjY5IDUzMSA0NTkgJiMxMDtRIDUwMCA1NjYgNTAwIDEwMzQgJiMxMDtMIDUwMCAyNjEzICYjMTA7TCAxMTkgMjYxMyAmIzEwO0wgMTE5IDI3MjIgJiMxMDtRIDUxMyAzMDAwIDc4OSAzMzA2ICYjMTA7USAxMDY2IDM2MTMgMTI3MiAzOTkxICYjMTA7TCAxMzc1IDM5OTEgJiMxMDt6IiBpZD0iVGltZXNOZXdSb21hblBTLUJvbGRNVC03NCIvPiYjeGE7ICAgICAgIDxwYXRoIHRyYW5zZm9ybT0ic2NhbGUoMC4wMTU2MjUpIiBkPSJNIDkxOSA0MzM4ICYjMTA7USAxMTIyIDQzMzggMTI2MiA0MTk1ICYjMTA7USAxNDAzIDQwNTMgMTQwMyAzODUzICYjMTA7USAxNDAzIDM2NTMgMTI2MSAzNTEyICYjMTA7USAxMTE5IDMzNzIgOTE5IDMzNzIgJiMxMDtRIDcxOSAzMzcyIDU3OCAzNTEyICYjMTA7USA0MzggMzY1MyA0MzggMzg1MyAmIzEwO1EgNDM4IDQwNTMgNTc4IDQxOTUgJiMxMDtRIDcxOSA0MzM4IDkxOSA0MzM4ICYjMTA7eiYjMTA7TSAxMzU2IDI5MjIgJiMxMDtMIDEzNTYgNjA2ICYjMTA7USAxMzU2IDI5NyAxNDI4IDIxMSAmIzEwO1EgMTUwMCAxMjUgMTcwOSAxMTMgJiMxMDtMIDE3MDkgMCAmIzEwO0wgMTMxIDAgJiMxMDtMIDEzMSAxMTMgJiMxMDtRIDMyNSAxMTkgNDE5IDIyNSAmIzEwO1EgNDgxIDI5NyA0ODEgNjA2ICYjMTA7TCA0ODEgMjMxMyAmIzEwO1EgNDgxIDI2MjIgNDA5IDI3MDggJiMxMDtRIDMzOCAyNzk0IDEzMSAyODA2ICYjMTA7TCAxMzEgMjkyMiAmIzEwO0wgMTM1NiAyOTIyICYjMTA7eiIgaWQ9IlRpbWVzTmV3Um9tYW5QUy1Cb2xkTVQtNjkiLz4mI3hhOyAgICAgICA8cGF0aCB0cmFuc2Zvcm09InNjYWxlKDAuMDE1NjI1KSIgZD0iTSAxNTk0IDMwMDkgJiMxMDtRIDE5NzUgMzAwOSAyMzAzIDI4MTIgJiMxMDtRIDI2MzEgMjYxNiAyODAxIDIyNTMgJiMxMDtRIDI5NzIgMTg5MSAyOTcyIDE0NTkgJiMxMDtRIDI5NzIgODM4IDI2NTYgNDE5ICYjMTA7USAyMjc1IC04OCAxNjAzIC04OCAmIzEwO1EgOTQ0IC04OCA1ODcgMzc1ICYjMTA7USAyMzEgODM4IDIzMSAxNDQ3ICYjMTA7USAyMzEgMjA3NSA1OTUgMjU0MiAmIzEwO1EgOTU5IDMwMDkgMTU5NCAzMDA5ICYjMTA7eiYjMTA7TSAxNjA2IDI3ODggJiMxMDtRIDE0NDcgMjc4OCAxMzMzIDI2NjcgJiMxMDtRIDEyMTkgMjU0NyAxMTgzIDIxOTIgJiMxMDtRIDExNDcgMTgzOCAxMTQ3IDEyMDYgJiMxMDtRIDExNDcgODcyIDExOTEgNTgxICYjMTA7USAxMjI1IDM1OSAxMzM3IDI0MyAmIzEwO1EgMTQ1MCAxMjggMTU5NCAxMjggJiMxMDtRIDE3MzQgMTI4IDE4MjggMjA2ICYjMTA7USAxOTUwIDMxMyAxOTkxIDUwMyAmIzEwO1EgMjA1MyA4MDAgMjA1MyAxNzAzICYjMTA7USAyMDUzIDIyMzQgMTk5MyAyNDMyICYjMTA7USAxOTM0IDI2MzEgMTgxOSAyNzIyICYjMTA7USAxNzM4IDI3ODggMTYwNiAyNzg4ICYjMTA7eiIgaWQ9IlRpbWVzTmV3Um9tYW5QUy1Cb2xkTVQtNmYiLz4mI3hhOyAgICAgICA8cGF0aCB0cmFuc2Zvcm09InNjYWxlKDAuMDE1NjI1KSIgZD0iTSAyMDU2IDQzMzQgJiMxMDtMIDIwNTYgNDE5MSAmIzEwO1EgMTczMSAzOTc4IDE1NzggMzc3NSAmIzEwO1EgMTM2NiAzNDk0IDEyNDcgMzA1MyAmIzEwO1EgMTA5NyAyNTA2IDEwOTcgMTUyNSAmIzEwO1EgMTA5NyA2MDAgMTIzMyA4NyAmIzEwO1EgMTM2OSAtNDI1IDE2MDMgLTc0MSAmIzEwO1EgMTc2NiAtOTU5IDIwNTYgLTExMjUgJiMxMDtMIDIwNTYgLTEyODEgJiMxMDtRIDEzMDMgLTEwMjggNzc5IC0yNDggJiMxMDtRIDI1NiA1MzEgMjU2IDE1NDQgJiMxMDtRIDI1NiAyNTQ0IDc3OCAzMzE0ICYjMTA7USAxMzAwIDQwODQgMjA1NiA0MzM0ICYjMTA7eiIgaWQ9IlRpbWVzTmV3Um9tYW5QUy1Cb2xkTVQtMjgiLz4mI3hhOyAgICAgICA8cGF0aCB0cmFuc2Zvcm09InNjYWxlKDAuMDE1NjI1KSIgZD0iTSA0OTE2IDQzMzQgJiMxMDtMIDE5MDYgLTE3OCAmIzEwO0wgMTQ4OCAtMTc4ICYjMTA7TCA0NDk0IDQzMzQgJiMxMDtMIDQ5MTYgNDMzNCAmIzEwO3omIzEwO00gMTQ5NCA0MzM0ICYjMTA7USAxOTM4IDQzMzQgMjI0MiA0MDIwICYjMTA7USAyNTQ3IDM3MDYgMjU0NyAzMjA5ICYjMTA7USAyNTQ3IDI3MDAgMjI0MCAyMzgzICYjMTA7USAxOTM0IDIwNjYgMTQ4MSAyMDY2ICYjMTA7USAxMDM0IDIwNjYgNzM5IDIzNzIgJiMxMDtRIDQ0NCAyNjc4IDQ0NCAzMTc4ICYjMTA7USA0NDQgMzY5NCA3NDcgNDAxNCAmIzEwO1EgMTA1MCA0MzM0IDE0OTQgNDMzNCAmIzEwO3omIzEwO00gMTQ5NCA0MTY5ICYjMTA7USAxNDI1IDQxNjkgMTM4MSA0MTI4ICYjMTA7USAxMzAzIDQwNTYgMTI2NCAzODc5ICYjMTA7USAxMjI1IDM3MDMgMTIyNSAzMTUwICYjMTA7USAxMjI1IDI3MDkgMTI3OCAyNDY5ICYjMTA7USAxMzA5IDIzMzEgMTM4NCAyMjYzICYjMTA7USAxNDMxIDIyMjIgMTQ5NCAyMjIyICYjMTA7USAxNTYzIDIyMjIgMTYwMyAyMjU5ICYjMTA7USAxNjc1IDIzMjUgMTcwOSAyNDcyICYjMTA7USAxNzYzIDI3MDkgMTc2MyAzMTM4ICYjMTA7USAxNzYzIDM2NjMgMTcxMyAzODk3ICYjMTA7USAxNjc4IDQwNTkgMTYwMCA0MTM0ICYjMTA7USAxNTYzIDQxNjkgMTQ5NCA0MTY5ICYjMTA7eiYjMTA7TSA0ODk0IDIwOTcgJiMxMDtRIDUzNDcgMjA5NyA1NjUxIDE3ODYgJiMxMDtRIDU5NTYgMTQ3NSA1OTU2IDk3MiAmIzEwO1EgNTk1NiA0NjMgNTY0NyAxNDQgJiMxMDtRIDUzMzggLTE3NSA0OTAwIC0xNzUgJiMxMDtRIDQ0NjYgLTE3NSA0MTYxIDE0NCAmIzEwO1EgMzg1NiA0NjMgMzg1NiA5NjMgJiMxMDtRIDM4NTYgMTQ2NiA0MTUzIDE3ODEgJiMxMDtRIDQ0NTAgMjA5NyA0ODk0IDIwOTcgJiMxMDt6JiMxMDtNIDQ5MDMgMTkzNCAmIzEwO1EgNDg0MSAxOTM0IDQ3OTcgMTg5NyAmIzEwO1EgNDcyMiAxODI4IDQ2ODEgMTY1OCAmIzEwO1EgNDY0MSAxNDg4IDQ2NDEgMTAwNiAmIzEwO1EgNDY0MSA0OTQgNDY4OCAyNjkgJiMxMDtRIDQ3MjIgMTA5IDQ4MDMgMzggJiMxMDtRIDQ4NDQgMCA0OTA5IDAgJiMxMDtRIDQ5NjkgMCA1MDA2IDM0ICYjMTA7USA1MDg0IDEwNiA1MTIyIDI2OSAmIzEwO1EgNTE3NSA0OTcgNTE3NSA5NTkgJiMxMDtRIDUxNzUgMTQ0NyA1MTI1IDE2NzIgJiMxMDtRIDUwODggMTgzNCA1MDEzIDE5MDAgJiMxMDtRIDQ5NzUgMTkzNCA0OTAzIDE5MzQgJiMxMDt6IiBpZD0iVGltZXNOZXdSb21hblBTLUJvbGRNVC0yNSIvPiYjeGE7ICAgICAgIDxwYXRoIHRyYW5zZm9ybT0ic2NhbGUoMC4wMTU2MjUpIiBkPSJNIDc4IC0xMjgxICYjMTA7TCA3OCAtMTEzOCAmIzEwO1EgNDAzIC05MjIgNTU2IC03MTkgJiMxMDtRIDc2NiAtNDM4IDg4OCAwICYjMTA7USAxMDM4IDU1MCAxMDM4IDE1MzEgJiMxMDtRIDEwMzggMjQ1NiA5MDIgMjk2NyAmIzEwO1EgNzY2IDM0NzggNTMxIDM3OTQgJiMxMDtRIDM2OSA0MDEzIDc4IDQxNzggJiMxMDtMIDc4IDQzMzQgJiMxMDtRIDgzMSA0MDgxIDEzNTQgMzMwMSAmIzEwO1EgMTg3OCAyNTIyIDE4NzggMTUwOSAmIzEwO1EgMTg3OCA1MTMgMTM1NCAtMjU3ICYjMTA7USA4MzEgLTEwMjggNzggLTEyODEgJiMxMDt6IiBpZD0iVGltZXNOZXdSb21hblBTLUJvbGRNVC0yOSIvPiYjeGE7ICAgICAgPC9kZWZzPiYjeGE7ICAgICAgPHVzZSB4bGluazpocmVmPSIjVGltZXNOZXdSb21hblBTLUJvbGRNVC00MSIvPiYjeGE7ICAgICAgPHVzZSB4PSI3Mi4yMTY3OTciIHhsaW5rOmhyZWY9IiNUaW1lc05ld1JvbWFuUFMtQm9sZE1ULTYzIi8+JiN4YTsgICAgICA8dXNlIHg9IjExNi42MDE1NjIiIHhsaW5rOmhyZWY9IiNUaW1lc05ld1JvbWFuUFMtQm9sZE1ULTYzIi8+JiN4YTsgICAgICA8dXNlIHg9IjE2MC45ODYzMjgiIHhsaW5rOmhyZWY9IiNUaW1lc05ld1JvbWFuUFMtQm9sZE1ULTc1Ii8+JiN4YTsgICAgICA8dXNlIHg9IjIxNi42MDE1NjIiIHhsaW5rOmhyZWY9IiNUaW1lc05ld1JvbWFuUFMtQm9sZE1ULTcyIi8+JiN4YTsgICAgICA8dXNlIHg9IjI2MC45ODYzMjgiIHhsaW5rOmhyZWY9IiNUaW1lc05ld1JvbWFuUFMtQm9sZE1ULTYxIi8+JiN4YTsgICAgICA8dXNlIHg9IjMxMC45ODYzMjgiIHhsaW5rOmhyZWY9IiNUaW1lc05ld1JvbWFuUFMtQm9sZE1ULTYzIi8+JiN4YTsgICAgICA8dXNlIHg9IjM1NS4zNzEwOTQiIHhsaW5rOmhyZWY9IiNUaW1lc05ld1JvbWFuUFMtQm9sZE1ULTc5Ii8+JiN4YTsgICAgICA8dXNlIHg9IjQwNS4zNzEwOTQiIHhsaW5rOmhyZWY9IiNUaW1lc05ld1JvbWFuUFMtQm9sZE1ULTIwIi8+JiN4YTsgICAgICA8dXNlIHg9IjQzMC4zNzEwOTQiIHhsaW5rOmhyZWY9IiNUaW1lc05ld1JvbWFuUFMtQm9sZE1ULTUyIi8+JiN4YTsgICAgICA8dXNlIHg9IjUwMi41ODc4OTEiIHhsaW5rOmhyZWY9IiNUaW1lc05ld1JvbWFuUFMtQm9sZE1ULTYxIi8+JiN4YTsgICAgICA8dXNlIHg9IjU1Mi41ODc4OTEiIHhsaW5rOmhyZWY9IiNUaW1lc05ld1JvbWFuUFMtQm9sZE1ULTc0Ii8+JiN4YTsgICAgICA8dXNlIHg9IjU4NS44ODg2NzIiIHhsaW5rOmhyZWY9IiNUaW1lc05ld1JvbWFuUFMtQm9sZE1ULTY5Ii8+JiN4YTsgICAgICA8dXNlIHg9IjYxMy42NzE4NzUiIHhsaW5rOmhyZWY9IiNUaW1lc05ld1JvbWFuUFMtQm9sZE1ULTZmIi8+JiN4YTsgICAgICA8dXNlIHg9IjY2My42NzE4NzUiIHhsaW5rOmhyZWY9IiNUaW1lc05ld1JvbWFuUFMtQm9sZE1ULTI4Ii8+JiN4YTsgICAgICA8dXNlIHg9IjY5Ni45NzI2NTYiIHhsaW5rOmhyZWY9IiNUaW1lc05ld1JvbWFuUFMtQm9sZE1ULTI1Ii8+JiN4YTsgICAgICA8dXNlIHg9Ijc5Ni45NzI2NTYiIHhsaW5rOmhyZWY9IiNUaW1lc05ld1JvbWFuUFMtQm9sZE1ULTI5Ii8+JiN4YTsgICAgIDwvZz4mI3hhOyAgICA8L2c+JiN4YTsgICA8L2c+JiN4YTsgICA8ZyBpZD0icGF0Y2hfMyI+JiN4YTsgICAgPHBhdGggc3R5bGU9ImZpbGw6ICM5OGU2ZTI7IHN0cm9rZTogIzZhYTE5ZTsgc3Ryb2tlLXdpZHRoOiAwLjU7IHN0cm9rZS1saW5lam9pbjogbWl0ZXIiIGNsaXAtcGF0aD0idXJsKCNwNzAwOTBjM2E5MikiIGQ9Ik0gODEuNzMyMjczIDQ1Ni40NjQyOCAmIzEwO0wgMTAxLjQwOTQyOSA0NTYuNDY0MjggJiMxMDtMIDEwMS40MDk0MjkgMTI0LjM4OTgwNCAmIzEwO0wgODEuNzMyMjczIDEyNC4zODk4MDQgJiMxMDt6Ii8+JiN4YTsgICA8L2c+JiN4YTsgICA8ZyBpZD0icGF0Y2hfNCI+JiN4YTsgICAgPHBhdGggc3R5bGU9ImZpbGw6ICM5OGU2ZTI7IHN0cm9rZTogIzZhYTE5ZTsgc3Ryb2tlLXdpZHRoOiAwLjU7IHN0cm9rZS1saW5lam9pbjogbWl0ZXIiIGNsaXAtcGF0aD0idXJsKCNwNzAwOTBjM2E5MikiIGQ9Ik0gMTgwLjExODA1NCA0NTYuNDY0MjggJiMxMDtMIDE5OS43OTUyMSA0NTYuNDY0MjggJiMxMDtMIDE5OS43OTUyMSAxNTMuNzgwMzA0ICYjMTA7TCAxODAuMTE4MDU0IDE1My43ODAzMDQgJiMxMDt6Ii8+JiN4YTsgICA8L2c+JiN4YTsgICA8ZyBpZD0icGF0Y2hfNSI+JiN4YTsgICAgPHBhdGggc3R5bGU9ImZpbGw6ICM5OGU2ZTI7IHN0cm9rZTogIzZhYTE5ZTsgc3Ryb2tlLXdpZHRoOiAwLjU7IHN0cm9rZS1saW5lam9pbjogbWl0ZXIiIGNsaXAtcGF0aD0idXJsKCNwNzAwOTBjM2E5MikiIGQ9Ik0gMjc4LjUwMzgzNCA0NTYuNDY0MjggJiMxMDtMIDI5OC4xODA5OTEgNDU2LjQ2NDI4ICYjMTA7TCAyOTguMTgwOTkxIDEzOS42NTc1OTYgJiMxMDtMIDI3OC41MDM4MzQgMTM5LjY1NzU5NiAmIzEwO3oiLz4mI3hhOyAgIDwvZz4mI3hhOyAgIDxnIGlkPSJwYXRjaF82Ij4mI3hhOyAgICA8cGF0aCBzdHlsZT0iZmlsbDogIzk4ZTZlMjsgc3Ryb2tlOiAjNmFhMTllOyBzdHJva2Utd2lkdGg6IDAuNTsgc3Ryb2tlLWxpbmVqb2luOiBtaXRlciIgY2xpcC1wYXRoPSJ1cmwoI3A3MDA5MGMzYTkyKSIgZD0iTSAzNzYuODg5NjE1IDQ1Ni40NjQyOCAmIzEwO0wgMzk2LjU2Njc3MiA0NTYuNDY0MjggJiMxMDtMIDM5Ni41NjY3NzIgMzkxLjU3NjE2NCAmIzEwO0wgMzc2Ljg4OTYxNSAzOTEuNTc2MTY0ICYjMTA7eiIvPiYjeGE7ICAgPC9nPiYjeGE7ICAgPGcgaWQ9InBhdGNoXzciPiYjeGE7ICAgIDxwYXRoIHN0eWxlPSJmaWxsOiAjOThlNmUyOyBzdHJva2U6ICM2YWExOWU7IHN0cm9rZS13aWR0aDogMC41OyBzdHJva2UtbGluZWpvaW46IG1pdGVyIiBjbGlwLXBhdGg9InVybCgjcDcwMDkwYzNhOTIpIiBkPSJNIDQ3NS4yNzUzOTYgNDU2LjQ2NDI4ICYjMTA7TCA0OTQuOTUyNTUyIDQ1Ni40NjQyOCAmIzEwO0wgNDk0Ljk1MjU1MiAzNjYuMDAyNjEyICYjMTA7TCA0NzUuMjc1Mzk2IDM2Ni4wMDI2MTIgJiMxMDt6Ii8+JiN4YTsgICA8L2c+JiN4YTsgICA8ZyBpZD0icGF0Y2hfOCI+JiN4YTsgICAgPHBhdGggc3R5bGU9ImZpbGw6ICNmZmU2OTk7IHN0cm9rZTogI2IyYTE2Yjsgc3Ryb2tlLXdpZHRoOiAwLjU7IHN0cm9rZS1saW5lam9pbjogbWl0ZXIiIGNsaXAtcGF0aD0idXJsKCNwNzAwOTBjM2E5MikiIGQ9Ik0gMTA1LjM0NDg2IDQ1Ni40NjQyOCAmIzEwO0wgMTI1LjAyMjAxNiA0NTYuNDY0MjggJiMxMDtMIDEyNS4wMjIwMTYgOTYuNTI2MDg0ICYjMTA7TCAxMDUuMzQ0ODYgOTYuNTI2MDg0ICYjMTA7eiIvPiYjeGE7ICAgPC9nPiYjeGE7ICAgPGcgaWQ9InBhdGNoXzkiPiYjeGE7ICAgIDxwYXRoIHN0eWxlPSJmaWxsOiAjZmZlNjk5OyBzdHJva2U6ICNiMmExNmI7IHN0cm9rZS13aWR0aDogMC41OyBzdHJva2UtbGluZWpvaW46IG1pdGVyIiBjbGlwLXBhdGg9InVybCgjcDcwMDkwYzNhOTIpIiBkPSJNIDIwMy43MzA2NDEgNDU2LjQ2NDI4ICYjMTA7TCAyMjMuNDA3Nzk3IDQ1Ni40NjQyOCAmIzEwO0wgMjIzLjQwNzc5NyAxNDcuMjkxNDkyICYjMTA7TCAyMDMuNzMwNjQxIDE0Ny4yOTE0OTIgJiMxMDt6Ii8+JiN4YTsgICA8L2c+JiN4YTsgICA8ZyBpZD0icGF0Y2hfMTAiPiYjeGE7ICAgIDxwYXRoIHN0eWxlPSJmaWxsOiAjZmZlNjk5OyBzdHJva2U6ICNiMmExNmI7IHN0cm9rZS13aWR0aDogMC41OyBzdHJva2UtbGluZWpvaW46IG1pdGVyIiBjbGlwLXBhdGg9InVybCgjcDcwMDkwYzNhOTIpIiBkPSJNIDMwMi4xMTY0MjIgNDU2LjQ2NDI4ICYjMTA7TCAzMjEuNzkzNTc4IDQ1Ni40NjQyOCAmIzEwO0wgMzIxLjc5MzU3OCAxMzIuMDIzNyAmIzEwO0wgMzAyLjExNjQyMiAxMzIuMDIzNyAmIzEwO3oiLz4mI3hhOyAgIDwvZz4mI3hhOyAgIDxnIGlkPSJwYXRjaF8xMSI+JiN4YTsgICAgPHBhdGggc3R5bGU9ImZpbGw6ICNmZmU2OTk7IHN0cm9rZTogI2IyYTE2Yjsgc3Ryb2tlLXdpZHRoOiAwLjU7IHN0cm9rZS1saW5lam9pbjogbWl0ZXIiIGNsaXAtcGF0aD0idXJsKCNwNzAwOTBjM2E5MikiIGQ9Ik0gNDAwLjUwMjIwMyA0NTYuNDY0MjggJiMxMDtMIDQyMC4xNzkzNTkgNDU2LjQ2NDI4ICYjMTA7TCA0MjAuMTc5MzU5IDM1MC43MzQ4MiAmIzEwO0wgNDAwLjUwMjIwMyAzNTAuNzM0ODIgJiMxMDt6Ii8+JiN4YTsgICA8L2c+JiN4YTsgICA8ZyBpZD0icGF0Y2hfMTIiPiYjeGE7ICAgIDxwYXRoIHN0eWxlPSJmaWxsOiAjZmZlNjk5OyBzdHJva2U6ICNiMmExNmI7IHN0cm9rZS13aWR0aDogMC41OyBzdHJva2UtbGluZWpvaW46IG1pdGVyIiBjbGlwLXBhdGg9InVybCgjcDcwMDkwYzNhOTIpIiBkPSJNIDQ5OC44ODc5ODQgNDU2LjQ2NDI4ICYjMTA7TCA1MTguNTY1MTQgNDU2LjQ2NDI4ICYjMTA7TCA1MTguNTY1MTQgMzYzLjcxMjQ0NCAmIzEwO0wgNDk4Ljg4Nzk4NCAzNjMuNzEyNDQ0ICYjMTA7eiIvPiYjeGE7ICAgPC9nPiYjeGE7ICAgPGcgaWQ9InBhdGNoXzEzIj4mI3hhOyAgICA8cGF0aCBzdHlsZT0iZmlsbDogI2RhZTNmMzsgc3Ryb2tlOiAjOTk5ZmFhOyBzdHJva2Utd2lkdGg6IDAuNTsgc3Ryb2tlLWxpbmVqb2luOiBtaXRlciIgY2xpcC1wYXRoPSJ1cmwoI3A3MDA5MGMzYTkyKSIgZD0iTSAxMjguOTU3NDQ4IDQ1Ni40NjQyOCAmIzEwO0wgMTQ4LjYzNDYwNCA0NTYuNDY0MjggJiMxMDtMIDE0OC42MzQ2MDQgNzkuNzMxNTEyICYjMTA7TCAxMjguOTU3NDQ4IDc5LjczMTUxMiAmIzEwO3oiLz4mI3hhOyAgIDwvZz4mI3hhOyAgIDxnIGlkPSJwYXRjaF8xNCI+JiN4YTsgICAgPHBhdGggc3R5bGU9ImZpbGw6ICNkYWUzZjM7IHN0cm9rZTogIzk5OWZhYTsgc3Ryb2tlLXdpZHRoOiAwLjU7IHN0cm9rZS1saW5lam9pbjogbWl0ZXIiIGNsaXAtcGF0aD0idXJsKCNwNzAwOTBjM2E5MikiIGQ9Ik0gMjI3LjM0MzIyOCA0NTYuNDY0MjggJiMxMDtMIDI0Ny4wMjAzODUgNDU2LjQ2NDI4ICYjMTA7TCAyNDcuMDIwMzg1IDEzOS42NTc1OTYgJiMxMDtMIDIyNy4zNDMyMjggMTM5LjY1NzU5NiAmIzEwO3oiLz4mI3hhOyAgIDwvZz4mI3hhOyAgIDxnIGlkPSJwYXRjaF8xNSI+JiN4YTsgICAgPHBhdGggc3R5bGU9ImZpbGw6ICNkYWUzZjM7IHN0cm9rZTogIzk5OWZhYTsgc3Ryb2tlLXdpZHRoOiAwLjU7IHN0cm9rZS1saW5lam9pbjogbWl0ZXIiIGNsaXAtcGF0aD0idXJsKCNwNzAwOTBjM2E5MikiIGQ9Ik0gMzI1LjcyOTAwOSA0NTYuNDY0MjggJiMxMDtMIDM0NS40MDYxNjYgNDU2LjQ2NDI4ICYjMTA7TCAzNDUuNDA2MTY2IDExNi43NTU5MDggJiMxMDtMIDMyNS43MjkwMDkgMTE2Ljc1NTkwOCAmIzEwO3oiLz4mI3hhOyAgIDwvZz4mI3hhOyAgIDxnIGlkPSJwYXRjaF8xNiI+JiN4YTsgICAgPHBhdGggc3R5bGU9ImZpbGw6ICNkYWUzZjM7IHN0cm9rZTogIzk5OWZhYTsgc3Ryb2tlLXdpZHRoOiAwLjU7IHN0cm9rZS1saW5lam9pbjogbWl0ZXIiIGNsaXAtcGF0aD0idXJsKCNwNzAwOTBjM2E5MikiIGQ9Ik0gNDI0LjExNDc5IDQ1Ni40NjQyOCAmIzEwO0wgNDQzLjc5MTk0NiA0NTYuNDY0MjggJiMxMDtMIDQ0My43OTE5NDYgMjg5LjY2MzY1MiAmIzEwO0wgNDI0LjExNDc5IDI4OS42NjM2NTIgJiMxMDt6Ii8+JiN4YTsgICA8L2c+JiN4YTsgICA8ZyBpZD0icGF0Y2hfMTciPiYjeGE7ICAgIDxwYXRoIHN0eWxlPSJmaWxsOiAjZGFlM2YzOyBzdHJva2U6ICM5OTlmYWE7IHN0cm9rZS13aWR0aDogMC41OyBzdHJva2UtbGluZWpvaW46IG1pdGVyIiBjbGlwLXBhdGg9InVybCgjcDcwMDkwYzNhOTIpIiBkPSJNIDUyMi41MDA1NzEgNDU2LjQ2NDI4ICYjMTA7TCA1NDIuMTc3NzI3IDQ1Ni40NjQyOCAmIzEwO0wgNTQyLjE3NzcyNyAzNTMuNDA2Njg0ICYjMTA7TCA1MjIuNTAwNTcxIDM1My40MDY2ODQgJiMxMDt6Ii8+JiN4YTsgICA8L2c+JiN4YTsgICA8ZyBpZD0iTGluZUNvbGxlY3Rpb25fMSI+JiN4YTsgICAgPHBhdGggc3R5bGU9ImZpbGw6IG5vbmU7IHN0cm9rZTogIzZhYTE5ZTsgc3Ryb2tlLXdpZHRoOiAxLjUiIGNsaXAtcGF0aD0idXJsKCNwNzAwOTBjM2E5MikiIGQ9Ik0gOTEuNTcwODUxIDEzNC42OTU1NjQgJiMxMDtMIDkxLjU3MDg1MSAxMTQuMDg0MDQ0Ii8+JiN4YTsgICAgPHBhdGggc3R5bGU9ImZpbGw6IG5vbmU7IHN0cm9rZTogIzZhYTE5ZTsgc3Ryb2tlLXdpZHRoOiAxLjUiIGNsaXAtcGF0aD0idXJsKCNwNzAwOTBjM2E5MikiIGQ9Ik0gMTg5Ljk1NjYzMiAxNjcuMTM5NjIyICYjMTA7TCAxODkuOTU2NjMyIDE0MC40MjA5ODYiLz4mI3hhOyAgICA8cGF0aCBzdHlsZT0iZmlsbDogbm9uZTsgc3Ryb2tlOiAjNmFhMTllOyBzdHJva2Utd2lkdGg6IDEuNSIgY2xpcC1wYXRoPSJ1cmwoI3A3MDA5MGMzYTkyKSIgZD0iTSAyODguMzQyNDEzIDE1Ni40NTIxNjcgJiMxMDtMIDI4OC4zNDI0MTMgMTIyLjg2MzAyNSIvPiYjeGE7ICAgIDxwYXRoIHN0eWxlPSJmaWxsOiBub25lOyBzdHJva2U6ICM2YWExOWU7IHN0cm9rZS13aWR0aDogMS41IiBjbGlwLXBhdGg9InVybCgjcDcwMDkwYzNhOTIpIiBkPSJNIDM4Ni43MjgxOTMgMzk5LjIxMDA2ICYjMTA7TCAzODYuNzI4MTkzIDM4My45NDIyNjgiLz4mI3hhOyAgICA8cGF0aCBzdHlsZT0iZmlsbDogbm9uZTsgc3Ryb2tlOiAjNmFhMTllOyBzdHJva2Utd2lkdGg6IDEuNSIgY2xpcC1wYXRoPSJ1cmwoI3A3MDA5MGMzYTkyKSIgZD0iTSA0ODUuMTEzOTc0IDM2OC4yOTI3ODEgJiMxMDtMIDQ4NS4xMTM5NzQgMzYzLjcxMjQ0NCIvPiYjeGE7ICAgPC9nPiYjeGE7ICAgPGcgaWQ9ImxpbmUyZF8xNiI+JiN4YTsgICAgPGRlZnM+JiN4YTsgICAgIDxwYXRoIHN0eWxlPSJzdHJva2U6ICM2YWExOWU7IHN0cm9rZS13aWR0aDogMS41IiBkPSJNIDUgMCAmIzEwO0wgLTUgLTAiIGlkPSJtMzk4MTUyMzg3ZiIvPiYjeGE7ICAgIDwvZGVmcz4mI3hhOyAgICA8ZyBjbGlwLXBhdGg9InVybCgjcDcwMDkwYzNhOTIpIj4mI3hhOyAgICAgPHVzZSBzdHlsZT0iZmlsbDogIzZhYTE5ZTsgc3Ryb2tlOiAjNmFhMTllOyBzdHJva2Utd2lkdGg6IDEuNSIgeT0iMTM0LjY5NTU2NCIgeD0iOTEuNTcwODUxIiB4bGluazpocmVmPSIjbTM5ODE1MjM4N2YiLz4mI3hhOyAgICAgPHVzZSBzdHlsZT0iZmlsbDogIzZhYTE5ZTsgc3Ryb2tlOiAjNmFhMTllOyBzdHJva2Utd2lkdGg6IDEuNSIgeT0iMTY3LjEzOTYyMiIgeD0iMTg5Ljk1NjYzMiIgeGxpbms6aHJlZj0iI20zOTgxNTIzODdmIi8+JiN4YTsgICAgIDx1c2Ugc3R5bGU9ImZpbGw6ICM2YWExOWU7IHN0cm9rZTogIzZhYTE5ZTsgc3Ryb2tlLXdpZHRoOiAxLjUiIHk9IjE1Ni40NTIxNjciIHg9IjI4OC4zNDI0MTMiIHhsaW5rOmhyZWY9IiNtMzk4MTUyMzg3ZiIvPiYjeGE7ICAgICA8dXNlIHN0eWxlPSJmaWxsOiAjNmFhMTllOyBzdHJva2U6ICM2YWExOWU7IHN0cm9rZS13aWR0aDogMS41IiB5PSIzOTkuMjEwMDYiIHg9IjM4Ni43MjgxOTMiIHhsaW5rOmhyZWY9IiNtMzk4MTUyMzg3ZiIvPiYjeGE7ICAgICA8dXNlIHN0eWxlPSJmaWxsOiAjNmFhMTllOyBzdHJva2U6ICM2YWExOWU7IHN0cm9rZS13aWR0aDogMS41IiB5PSIzNjguMjkyNzgxIiB4PSI0ODUuMTEzOTc0IiB4bGluazpocmVmPSIjbTM5ODE1MjM4N2YiLz4mI3hhOyAgICA8L2c+JiN4YTsgICA8L2c+JiN4YTsgICA8ZyBpZD0ibGluZTJkXzE3Ij4mI3hhOyAgICA8ZyBjbGlwLXBhdGg9InVybCgjcDcwMDkwYzNhOTIpIj4mI3hhOyAgICAgPHVzZSBzdHlsZT0iZmlsbDogIzZhYTE5ZTsgc3Ryb2tlOiAjNmFhMTllOyBzdHJva2Utd2lkdGg6IDEuNSIgeT0iMTE0LjA4NDA0NCIgeD0iOTEuNTcwODUxIiB4bGluazpocmVmPSIjbTM5ODE1MjM4N2YiLz4mI3hhOyAgICAgPHVzZSBzdHlsZT0iZmlsbDogIzZhYTE5ZTsgc3Ryb2tlOiAjNmFhMTllOyBzdHJva2Utd2lkdGg6IDEuNSIgeT0iMTQwLjQyMDk4NiIgeD0iMTg5Ljk1NjYzMiIgeGxpbms6aHJlZj0iI20zOTgxNTIzODdmIi8+JiN4YTsgICAgIDx1c2Ugc3R5bGU9ImZpbGw6ICM2YWExOWU7IHN0cm9rZTogIzZhYTE5ZTsgc3Ryb2tlLXdpZHRoOiAxLjUiIHk9IjEyMi44NjMwMjUiIHg9IjI4OC4zNDI0MTMiIHhsaW5rOmhyZWY9IiNtMzk4MTUyMzg3ZiIvPiYjeGE7ICAgICA8dXNlIHN0eWxlPSJmaWxsOiAjNmFhMTllOyBzdHJva2U6ICM2YWExOWU7IHN0cm9rZS13aWR0aDogMS41IiB5PSIzODMuOTQyMjY4IiB4PSIzODYuNzI4MTkzIiB4bGluazpocmVmPSIjbTM5ODE1MjM4N2YiLz4mI3hhOyAgICAgPHVzZSBzdHlsZT0iZmlsbDogIzZhYTE5ZTsgc3Ryb2tlOiAjNmFhMTllOyBzdHJva2Utd2lkdGg6IDEuNSIgeT0iMzYzLjcxMjQ0NCIgeD0iNDg1LjExMzk3NCIgeGxpbms6aHJlZj0iI20zOTgxNTIzODdmIi8+JiN4YTsgICAgPC9nPiYjeGE7ICAgPC9nPiYjeGE7ICAgPGcgaWQ9IkxpbmVDb2xsZWN0aW9uXzIiPiYjeGE7ICAgIDxwYXRoIHN0eWxlPSJmaWxsOiBub25lOyBzdHJva2U6ICNiMmExNmI7IHN0cm9rZS13aWR0aDogMS41IiBjbGlwLXBhdGg9InVybCgjcDcwMDkwYzNhOTIpIiBkPSJNIDExNS4xODM0MzggMTA2LjA2ODQ1NCAmIzEwO0wgMTE1LjE4MzQzOCA4Ni45ODM3MTQiLz4mI3hhOyAgICA8cGF0aCBzdHlsZT0iZmlsbDogbm9uZTsgc3Ryb2tlOiAjYjJhMTZiOyBzdHJva2Utd2lkdGg6IDEuNSIgY2xpcC1wYXRoPSJ1cmwoI3A3MDA5MGMzYTkyKSIgZD0iTSAyMTMuNTY5MjE5IDE2MS4wMzI1MDUgJiMxMDtMIDIxMy41NjkyMTkgMTMzLjU1MDQ3OSIvPiYjeGE7ICAgIDxwYXRoIHN0eWxlPSJmaWxsOiBub25lOyBzdHJva2U6ICNiMmExNmI7IHN0cm9rZS13aWR0aDogMS41IiBjbGlwLXBhdGg9InVybCgjcDcwMDkwYzNhOTIpIiBkPSJNIDMxMS45NTUgMTQyLjMyOTQ2ICYjMTA7TCAzMTEuOTU1IDEyMS43MTc5NCIvPiYjeGE7ICAgIDxwYXRoIHN0eWxlPSJmaWxsOiBub25lOyBzdHJva2U6ICNiMmExNmI7IHN0cm9rZS13aWR0aDogMS41IiBjbGlwLXBhdGg9InVybCgjcDcwMDkwYzNhOTIpIiBkPSJNIDQxMC4zNDA3ODEgMzYyLjk0OTA1NCAmIzEwO0wgNDEwLjM0MDc4MSAzMzguNTIwNTg3Ii8+JiN4YTsgICAgPHBhdGggc3R5bGU9ImZpbGw6IG5vbmU7IHN0cm9rZTogI2IyYTE2Yjsgc3Ryb2tlLXdpZHRoOiAxLjUiIGNsaXAtcGF0aD0idXJsKCNwNzAwOTBjM2E5MikiIGQ9Ik0gNTA4LjcyNjU2MiAzNzUuNTQ0OTgyICYjMTA7TCA1MDguNzI2NTYyIDM1MS44Nzk5MDUiLz4mI3hhOyAgIDwvZz4mI3hhOyAgIDxnIGlkPSJsaW5lMmRfMTgiPiYjeGE7ICAgIDxkZWZzPiYjeGE7ICAgICA8cGF0aCBzdHlsZT0ic3Ryb2tlOiAjYjJhMTZiOyBzdHJva2Utd2lkdGg6IDEuNSIgZD0iTSA1IDAgJiMxMDtMIC01IC0wIiBpZD0ibTUyMmJhNTJkZWQiLz4mI3hhOyAgICA8L2RlZnM+JiN4YTsgICAgPGcgY2xpcC1wYXRoPSJ1cmwoI3A3MDA5MGMzYTkyKSI+JiN4YTsgICAgIDx1c2Ugc3R5bGU9ImZpbGw6ICNiMmExNmI7IHN0cm9rZTogI2IyYTE2Yjsgc3Ryb2tlLXdpZHRoOiAxLjUiIHk9IjEwNi4wNjg0NTQiIHg9IjExNS4xODM0MzgiIHhsaW5rOmhyZWY9IiNtNTIyYmE1MmRlZCIvPiYjeGE7ICAgICA8dXNlIHN0eWxlPSJmaWxsOiAjYjJhMTZiOyBzdHJva2U6ICNiMmExNmI7IHN0cm9rZS13aWR0aDogMS41IiB5PSIxNjEuMDMyNTA1IiB4PSIyMTMuNTY5MjE5IiB4bGluazpocmVmPSIjbTUyMmJhNTJkZWQiLz4mI3hhOyAgICAgPHVzZSBzdHlsZT0iZmlsbDogI2IyYTE2Yjsgc3Ryb2tlOiAjYjJhMTZiOyBzdHJva2Utd2lkdGg6IDEuNSIgeT0iMTQyLjMyOTQ2IiB4PSIzMTEuOTU1IiB4bGluazpocmVmPSIjbTUyMmJhNTJkZWQiLz4mI3hhOyAgICAgPHVzZSBzdHlsZT0iZmlsbDogI2IyYTE2Yjsgc3Ryb2tlOiAjYjJhMTZiOyBzdHJva2Utd2lkdGg6IDEuNSIgeT0iMzYyLjk0OTA1NCIgeD0iNDEwLjM0MDc4MSIgeGxpbms6aHJlZj0iI201MjJiYTUyZGVkIi8+JiN4YTsgICAgIDx1c2Ugc3R5bGU9ImZpbGw6ICNiMmExNmI7IHN0cm9rZTogI2IyYTE2Yjsgc3Ryb2tlLXdpZHRoOiAxLjUiIHk9IjM3NS41NDQ5ODIiIHg9IjUwOC43MjY1NjIiIHhsaW5rOmhyZWY9IiNtNTIyYmE1MmRlZCIvPiYjeGE7ICAgIDwvZz4mI3hhOyAgIDwvZz4mI3hhOyAgIDxnIGlkPSJsaW5lMmRfMTkiPiYjeGE7ICAgIDxnIGNsaXAtcGF0aD0idXJsKCNwNzAwOTBjM2E5MikiPiYjeGE7ICAgICA8dXNlIHN0eWxlPSJmaWxsOiAjYjJhMTZiOyBzdHJva2U6ICNiMmExNmI7IHN0cm9rZS13aWR0aDogMS41IiB5PSI4Ni45ODM3MTQiIHg9IjExNS4xODM0MzgiIHhsaW5rOmhyZWY9IiNtNTIyYmE1MmRlZCIvPiYjeGE7ICAgICA8dXNlIHN0eWxlPSJmaWxsOiAjYjJhMTZiOyBzdHJva2U6ICNiMmExNmI7IHN0cm9rZS13aWR0aDogMS41IiB5PSIxMzMuNTUwNDc5IiB4PSIyMTMuNTY5MjE5IiB4bGluazpocmVmPSIjbTUyMmJhNTJkZWQiLz4mI3hhOyAgICAgPHVzZSBzdHlsZT0iZmlsbDogI2IyYTE2Yjsgc3Ryb2tlOiAjYjJhMTZiOyBzdHJva2Utd2lkdGg6IDEuNSIgeT0iMTIxLjcxNzk0IiB4PSIzMTEuOTU1IiB4bGluazpocmVmPSIjbTUyMmJhNTJkZWQiLz4mI3hhOyAgICAgPHVzZSBzdHlsZT0iZmlsbDogI2IyYTE2Yjsgc3Ryb2tlOiAjYjJhMTZiOyBzdHJva2Utd2lkdGg6IDEuNSIgeT0iMzM4LjUyMDU4NyIgeD0iNDEwLjM0MDc4MSIgeGxpbms6aHJlZj0iI201MjJiYTUyZGVkIi8+JiN4YTsgICAgIDx1c2Ugc3R5bGU9ImZpbGw6ICNiMmExNmI7IHN0cm9rZTogI2IyYTE2Yjsgc3Ryb2tlLXdpZHRoOiAxLjUiIHk9IjM1MS44Nzk5MDUiIHg9IjUwOC43MjY1NjIiIHhsaW5rOmhyZWY9IiNtNTIyYmE1MmRlZCIvPiYjeGE7ICAgIDwvZz4mI3hhOyAgIDwvZz4mI3hhOyAgIDxnIGlkPSJMaW5lQ29sbGVjdGlvbl8zIj4mI3hhOyAgICA8cGF0aCBzdHlsZT0iZmlsbDogbm9uZTsgc3Ryb2tlOiAjOTk5ZmFhOyBzdHJva2Utd2lkdGg6IDEuNSIgY2xpcC1wYXRoPSJ1cmwoI3A3MDA5MGMzYTkyKSIgZD0iTSAxMzguNzk2MDI2IDg1LjQ1NjkzNCAmIzEwO0wgMTM4Ljc5NjAyNiA3NC4wMDYwOSIvPiYjeGE7ICAgIDxwYXRoIHN0eWxlPSJmaWxsOiBub25lOyBzdHJva2U6ICM5OTlmYWE7IHN0cm9rZS13aWR0aDogMS41IiBjbGlwLXBhdGg9InVybCgjcDcwMDkwYzNhOTIpIiBkPSJNIDIzNy4xODE4MDcgMTQ2LjE0NjQwOCAmIzEwO0wgMjM3LjE4MTgwNyAxMzMuMTY4Nzg0Ii8+JiN4YTsgICAgPHBhdGggc3R5bGU9ImZpbGw6IG5vbmU7IHN0cm9rZTogIzk5OWZhYTsgc3Ryb2tlLXdpZHRoOiAxLjUiIGNsaXAtcGF0aD0idXJsKCNwNzAwOTBjM2E5MikiIGQ9Ik0gMzM1LjU2NzU4NyAxMzYuNjA0MDM4ICYjMTA7TCAzMzUuNTY3NTg3IDk2LjkwNzc3OCIvPiYjeGE7ICAgIDxwYXRoIHN0eWxlPSJmaWxsOiBub25lOyBzdHJva2U6ICM5OTlmYWE7IHN0cm9rZS13aWR0aDogMS41IiBjbGlwLXBhdGg9InVybCgjcDcwMDkwYzNhOTIpIiBkPSJNIDQzMy45NTMzNjggMzA2LjgzOTkxOCAmIzEwO0wgNDMzLjk1MzM2OCAyNzIuNDg3Mzg2Ii8+JiN4YTsgICAgPHBhdGggc3R5bGU9ImZpbGw6IG5vbmU7IHN0cm9rZTogIzk5OWZhYTsgc3Ryb2tlLXdpZHRoOiAxLjUiIGNsaXAtcGF0aD0idXJsKCNwNzAwOTBjM2E5MikiIGQ9Ik0gNTMyLjMzOTE0OSAzNTkuODk1NDk2ICYjMTA7TCA1MzIuMzM5MTQ5IDM0Ni45MTc4NzIiLz4mI3hhOyAgIDwvZz4mI3hhOyAgIDxnIGlkPSJsaW5lMmRfMjAiPiYjeGE7ICAgIDxkZWZzPiYjeGE7ICAgICA8cGF0aCBzdHlsZT0ic3Ryb2tlOiAjOTk5ZmFhOyBzdHJva2Utd2lkdGg6IDEuNSIgZD0iTSA1IDAgJiMxMDtMIC01IC0wIiBpZD0ibTI5Njk5MzQ3MWEiLz4mI3hhOyAgICA8L2RlZnM+JiN4YTsgICAgPGcgY2xpcC1wYXRoPSJ1cmwoI3A3MDA5MGMzYTkyKSI+JiN4YTsgICAgIDx1c2Ugc3R5bGU9ImZpbGw6ICM5OTlmYWE7IHN0cm9rZTogIzk5OWZhYTsgc3Ryb2tlLXdpZHRoOiAxLjUiIHk9Ijg1LjQ1NjkzNCIgeD0iMTM4Ljc5NjAyNiIgeGxpbms6aHJlZj0iI20yOTY5OTM0NzFhIi8+JiN4YTsgICAgIDx1c2Ugc3R5bGU9ImZpbGw6ICM5OTlmYWE7IHN0cm9rZTogIzk5OWZhYTsgc3Ryb2tlLXdpZHRoOiAxLjUiIHk9IjE0Ni4xNDY0MDgiIHg9IjIzNy4xODE4MDciIHhsaW5rOmhyZWY9IiNtMjk2OTkzNDcxYSIvPiYjeGE7ICAgICA8dXNlIHN0eWxlPSJmaWxsOiAjOTk5ZmFhOyBzdHJva2U6ICM5OTlmYWE7IHN0cm9rZS13aWR0aDogMS41IiB5PSIxMzYuNjA0MDM4IiB4PSIzMzUuNTY3NTg3IiB4bGluazpocmVmPSIjbTI5Njk5MzQ3MWEiLz4mI3hhOyAgICAgPHVzZSBzdHlsZT0iZmlsbDogIzk5OWZhYTsgc3Ryb2tlOiAjOTk5ZmFhOyBzdHJva2Utd2lkdGg6IDEuNSIgeT0iMzA2LjgzOTkxOCIgeD0iNDMzLjk1MzM2OCIgeGxpbms6aHJlZj0iI20yOTY5OTM0NzFhIi8+JiN4YTsgICAgIDx1c2Ugc3R5bGU9ImZpbGw6ICM5OTlmYWE7IHN0cm9rZTogIzk5OWZhYTsgc3Ryb2tlLXdpZHRoOiAxLjUiIHk9IjM1OS44OTU0OTYiIHg9IjUzMi4zMzkxNDkiIHhsaW5rOmhyZWY9IiNtMjk2OTkzNDcxYSIvPiYjeGE7ICAgIDwvZz4mI3hhOyAgIDwvZz4mI3hhOyAgIDxnIGlkPSJsaW5lMmRfMjEiPiYjeGE7ICAgIDxnIGNsaXAtcGF0aD0idXJsKCNwNzAwOTBjM2E5MikiPiYjeGE7ICAgICA8dXNlIHN0eWxlPSJmaWxsOiAjOTk5ZmFhOyBzdHJva2U6ICM5OTlmYWE7IHN0cm9rZS13aWR0aDogMS41IiB5PSI3NC4wMDYwOSIgeD0iMTM4Ljc5NjAyNiIgeGxpbms6aHJlZj0iI20yOTY5OTM0NzFhIi8+JiN4YTsgICAgIDx1c2Ugc3R5bGU9ImZpbGw6ICM5OTlmYWE7IHN0cm9rZTogIzk5OWZhYTsgc3Ryb2tlLXdpZHRoOiAxLjUiIHk9IjEzMy4xNjg3ODQiIHg9IjIzNy4xODE4MDciIHhsaW5rOmhyZWY9IiNtMjk2OTkzNDcxYSIvPiYjeGE7ICAgICA8dXNlIHN0eWxlPSJmaWxsOiAjOTk5ZmFhOyBzdHJva2U6ICM5OTlmYWE7IHN0cm9rZS13aWR0aDogMS41IiB5PSI5Ni45MDc3NzgiIHg9IjMzNS41Njc1ODciIHhsaW5rOmhyZWY9IiNtMjk2OTkzNDcxYSIvPiYjeGE7ICAgICA8dXNlIHN0eWxlPSJmaWxsOiAjOTk5ZmFhOyBzdHJva2U6ICM5OTlmYWE7IHN0cm9rZS13aWR0aDogMS41IiB5PSIyNzIuNDg3Mzg2IiB4PSI0MzMuOTUzMzY4IiB4bGluazpocmVmPSIjbTI5Njk5MzQ3MWEiLz4mI3hhOyAgICAgPHVzZSBzdHlsZT0iZmlsbDogIzk5OWZhYTsgc3Ryb2tlOiAjOTk5ZmFhOyBzdHJva2Utd2lkdGg6IDEuNSIgeT0iMzQ2LjkxNzg3MiIgeD0iNTMyLjMzOTE0OSIgeGxpbms6aHJlZj0iI20yOTY5OTM0NzFhIi8+JiN4YTsgICAgPC9nPiYjeGE7ICAgPC9nPiYjeGE7ICAgPGcgaWQ9InBhdGNoXzE4Ij4mI3hhOyAgICA8cGF0aCBzdHlsZT0iZmlsbDogbm9uZTsgc3Ryb2tlOiAjY2NjY2NjOyBzdHJva2UtbGluZWpvaW46IG1pdGVyOyBzdHJva2UtbGluZWNhcDogc3F1YXJlIiBkPSJNIDU4LjcxIDQxOC4yOTQ4ICYjMTA7TCA1OC43MSAzNi42Ii8+JiN4YTsgICA8L2c+JiN4YTsgICA8ZyBpZD0icGF0Y2hfMTkiPiYjeGE7ICAgIDxwYXRoIHN0eWxlPSJmaWxsOiBub25lOyBzdHJva2U6ICNjY2NjY2M7IHN0cm9rZS1saW5lam9pbjogbWl0ZXI7IHN0cm9rZS1saW5lY2FwOiBzcXVhcmUiIGQ9Ik0gNTY1LjIgNDE4LjI5NDggJiMxMDtMIDU2NS4yIDM2LjYiLz4mI3hhOyAgIDwvZz4mI3hhOyAgIDxnIGlkPSJwYXRjaF8yMCI+JiN4YTsgICAgPHBhdGggc3R5bGU9ImZpbGw6IG5vbmU7IHN0cm9rZTogI2NjY2NjYzsgc3Ryb2tlLWxpbmVqb2luOiBtaXRlcjsgc3Ryb2tlLWxpbmVjYXA6IHNxdWFyZSIgZD0iTSA1OC43MSA0MTguMjk0OCAmIzEwO0wgNTY1LjIgNDE4LjI5NDgiLz4mI3hhOyAgIDwvZz4mI3hhOyAgIDxnIGlkPSJwYXRjaF8yMSI+JiN4YTsgICAgPHBhdGggc3R5bGU9ImZpbGw6IG5vbmU7IHN0cm9rZTogI2NjY2NjYzsgc3Ryb2tlLWxpbmVqb2luOiBtaXRlcjsgc3Ryb2tlLWxpbmVjYXA6IHNxdWFyZSIgZD0iTSA1OC43MSAzNi42ICYjMTA7TCA1NjUuMiAzNi42Ii8+JiN4YTsgICA8L2c+JiN4YTsgICA8ZyBpZD0idGV4dF8xMyI+JiN4YTsgICAgJiN4YTsgICAgPGcgdHJhbnNmb3JtPSJ0cmFuc2xhdGUoODIuODIwODUxIDEwOC4xMjgwMzQpIHNjYWxlKDAuMSAtMC4xKSIgc3R5bGU9ImZpbGw6ICMyNjI2MjYiPiYjeGE7ICAgICA8ZGVmcz4mI3hhOyAgICAgIDxwYXRoIHRyYW5zZm9ybT0ic2NhbGUoMC4wMTU2MjUpIiBkPSJNIDIxODEgMjM5NCAmIzEwO1EgMjYyOCAyMDY2IDI4MDEgMTc4MyAmIzEwO1EgMjk3NSAxNTAwIDI5NzUgMTEzNCAmIzEwO1EgMjk3NSA2MjIgMjU4OSAyNjcgJiMxMDtRIDIyMDMgLTg4IDE1NDEgLTg4ICYjMTA7USA5MTMgLTg4IDU2OSAyMjEgJiMxMDtRIDIyNSA1MzEgMjI1IDk3OCAmIzEwO1EgMjI1IDEzMTkgNDIzIDE1NzUgJiMxMDtRIDYyMiAxODMxIDEwODQgMjA0NCAmIzEwO1EgNTgxIDI0MjggNDM5IDI2NzIgJiMxMDtRIDI5NyAyOTE2IDI5NyAzMjM4ICYjMTA7USAyOTcgMzY2MyA2NTggMzk4NiAmIzEwO1EgMTAxOSA0MzA5IDE2NDcgNDMwOSAmIzEwO1EgMjI1MyA0MzA5IDI1NzkgNDAyMyAmIzEwO1EgMjkwNiAzNzM4IDI5MDYgMzMzOCAmIzEwO1EgMjkwNiAzMDM4IDI3MjkgMjgwOCAmIzEwO1EgMjU1MyAyNTc4IDIxODEgMjM5NCAmIzEwO3omIzEwO00gMTk0NCAyNTUzICYjMTA7USAyMDU5IDI3MDkgMjExNSAyOTAzICYjMTA7USAyMTcyIDMwOTcgMjE3MiAzMzI4ICYjMTA7USAyMTcyIDM3MzQgMTk5NyAzOTUwICYjMTA7USAxODY2IDQxMTYgMTYzNCA0MTE2ICYjMTA7USAxNDI1IDQxMTYgMTI3OCAzOTY0ICYjMTA7USAxMTMxIDM4MTMgMTEzMSAzNTg4ICYjMTA7USAxMTMxIDMzNTkgMTI5NSAzMTE0ICYjMTA7USAxNDU5IDI4NjkgMTk0NCAyNTUzICYjMTA7eiYjMTA7TSAxMzE5IDE4OTQgJiMxMDtRIDEyMjIgMTgwNiAxMTgxIDE3MzQgJiMxMDtRIDExMTkgMTYyNSAxMDY5IDE0MTUgJiMxMDtRIDEwMTkgMTIwNiAxMDE5IDk3OCAmIzEwO1EgMTAxOSA2ODQgMTA5NCA0ODYgJiMxMDtRIDExNjkgMjg4IDEzMDggMjAwICYjMTA7USAxNDQ3IDExMyAxNTk0IDExMyAmIzEwO1EgMTgyMiAxMTMgMTk3OCAyODAgJiMxMDtRIDIxMzQgNDQ3IDIxMzQgNzM4ICYjMTA7USAyMTM0IDEzNDQgMTMxOSAxODk0ICYjMTA7eiIgaWQ9IlRpbWVzTmV3Um9tYW5QUy1Cb2xkTVQtMzgiLz4mI3hhOyAgICAgIDxwYXRoIHRyYW5zZm9ybT0ic2NhbGUoMC4wMTU2MjUpIiBkPSJNIDExMzQgLTg4ICYjMTA7TCAyMjg4IDM0MDkgJiMxMDtMIDE0MDkgMzQwOSAmIzEwO1EgODk0IDM0MDkgNjM0IDMyNzUgJiMxMDtRIDQ1MyAzMTgxIDMzNCAyOTIyICYjMTA7TCAyMTYgMjkyMiAmIzEwO0wgNTIyIDQyMzggJiMxMDtMIDMwNDcgNDIzOCAmIzEwO0wgMTYyNSAtODggJiMxMDtMIDExMzQgLTg4ICYjMTA7eiIgaWQ9IlRpbWVzTmV3Um9tYW5QUy1Cb2xkTVQtMzciLz4mI3hhOyAgICAgIDxwYXRoIHRyYW5zZm9ybT0ic2NhbGUoMC4wMTU2MjUpIiBkPSJNIDgwMCA5NjMgJiMxMDtRIDEwMTkgOTYzIDExNzAgODA5ICYjMTA7USAxMzIyIDY1NiAxMzIyIDQ0MSAmIzEwO1EgMTMyMiAyMjUgMTE2OSA3MyAmIzEwO1EgMTAxNiAtNzggODAwIC03OCAmIzEwO1EgNTg0IC03OCA0MzIgNzMgJiMxMDtRIDI4MSAyMjUgMjgxIDQ0MSAmIzEwO1EgMjgxIDY1NiA0MzIgODA5ICYjMTA7USA1ODQgOTYzIDgwMCA5NjMgJiMxMDt6IiBpZD0iVGltZXNOZXdSb21hblBTLUJvbGRNVC0yZSIvPiYjeGE7ICAgICAgPHBhdGggdHJhbnNmb3JtPSJzY2FsZSgwLjAxNTYyNSkiIGQ9Ik0gMjk2NiAyMTE5ICYjMTA7USAyOTY2IDE0ODQgMjc4OCA5MzQgJiMxMDtRIDI2ODEgNTk3IDI1MDEgMzgxICYjMTA7USAyMzIyIDE2NiAyMDk0IDM5ICYjMTA7USAxODY2IC04OCAxNTk3IC04OCAmIzEwO1EgMTI5MSAtODggMTA0NCA2OCAmIzEwO1EgNzk3IDIyNSA2MDYgNTE2ICYjMTA7USA0NjkgNzI4IDM2NiAxMDgxICYjMTA7USAyMzEgMTU1OSAyMzEgMjA2OSAmIzEwO1EgMjMxIDI3NTkgNDI1IDMzMzggJiMxMDtRIDU4NCAzODE2IDkwOSA0MDcwICYjMTA7USAxMjM0IDQzMjUgMTU5NyA0MzI1ICYjMTA7USAxOTY2IDQzMjUgMjI4NiA0MDczICYjMTA7USAyNjA2IDM4MjIgMjc1NiAzMzk3ICYjMTA7USAyOTY2IDI4MTMgMjk2NiAyMTE5ICYjMTA7eiYjMTA7TSAyMDAzIDIxMjUgJiMxMDtRIDIwMDMgMzIzOCAxOTkxIDM0MjIgJiMxMDtRIDE5NTkgMzg1NiAxODQxIDQwMDkgJiMxMDtRIDE3NjMgNDEwOSAxNTg4IDQxMDkgJiMxMDtRIDE0NTMgNDEwOSAxMzc1IDQwMzQgJiMxMDtRIDEyNTkgMzkyNSAxMjE4IDM2NDggJiMxMDtRIDExNzggMzM3MiAxMTc4IDE3MTkgJiMxMDtRIDExNzggODE5IDEyNDEgNTEzICYjMTA7USAxMjg4IDI5MSAxMzc1IDIxNiAmIzEwO1EgMTQ2MyAxNDEgMTYwNiAxNDEgJiMxMDtRIDE3NjMgMTQxIDE4NDEgMjQxICYjMTA7USAxOTcyIDQxNiAxOTkxIDc4MSAmIzEwO0wgMjAwMyAyMTI1ICYjMTA7eiIgaWQ9IlRpbWVzTmV3Um9tYW5QUy1Cb2xkTVQtMzAiLz4mI3hhOyAgICAgPC9kZWZzPiYjeGE7ICAgICA8dXNlIHhsaW5rOmhyZWY9IiNUaW1lc05ld1JvbWFuUFMtQm9sZE1ULTM4Ii8+JiN4YTsgICAgIDx1c2UgeD0iNTAiIHhsaW5rOmhyZWY9IiNUaW1lc05ld1JvbWFuUFMtQm9sZE1ULTM3Ii8+JiN4YTsgICAgIDx1c2UgeD0iMTAwIiB4bGluazpocmVmPSIjVGltZXNOZXdSb21hblBTLUJvbGRNVC0yZSIvPiYjeGE7ICAgICA8dXNlIHg9IjEyNSIgeGxpbms6aHJlZj0iI1RpbWVzTmV3Um9tYW5QUy1Cb2xkTVQtMzAiLz4mI3hhOyAgICA8L2c+JiN4YTsgICA8L2c+JiN4YTsgICA8ZyBpZD0idGV4dF8xNCI+JiN4YTsgICAgJiN4YTsgICAgPGcgdHJhbnNmb3JtPSJ0cmFuc2xhdGUoMTA2LjQzMzQzOCA4MS4wMjc3MDMpIHNjYWxlKDAuMSAtMC4xKSIgc3R5bGU9ImZpbGw6ICMyNjI2MjYiPiYjeGE7ICAgICA8ZGVmcz4mI3hhOyAgICAgIDxwYXRoIHRyYW5zZm9ybT0ic2NhbGUoMC4wMTU2MjUpIiBkPSJNIDE5NyAtODggJiMxMDtMIDE5NyAwICYjMTA7USA3MTYgMTE5IDEwNzcgMzUwICYjMTA7USAxNDM4IDU4MSAxNjQ4IDkyMiAmIzEwO1EgMTg1OSAxMjYzIDE5NDQgMTcwNiAmIzEwO1EgMTc1MCAxNjA2IDE2MTQgMTU2NyAmIzEwO1EgMTQ3OCAxNTI4IDEzMjggMTUyOCAmIzEwO1EgODQ3IDE1MjggNTI2IDE4NzUgJiMxMDtRIDIwNiAyMjIyIDIwNiAyODI1ICYjMTA7USAyMDYgMzI0NCAzNzkgMzU5MiAmIzEwO1EgNTUzIDM5NDEgODc1IDQxMzMgJiMxMDtRIDExOTcgNDMyNSAxNTQ0IDQzMjUgJiMxMDtRIDE5MTYgNDMyNSAyMjQ3IDQxMTIgJiMxMDtRIDI1NzggMzkwMCAyNzc1IDM0OTcgJiMxMDtRIDI5NzIgMzA5NCAyOTcyIDI1NzggJiMxMDtRIDI5NzIgMTkwOSAyNjUxIDEyOTYgJiMxMDtRIDIzMzEgNjg0IDE2OTcgMzE0ICYjMTA7USAxMDYzIC01NiAxOTcgLTg4ICYjMTA7eiYjMTA7TSAxOTkxIDE5NjkgJiMxMDtRIDIwMjIgMjMxOSAyMDIyIDI1ODQgJiMxMDtRIDIwMjIgMzE1MyAxODkxIDM2NDQgJiMxMDtRIDE4MTYgMzkxNiAxNjY5IDQwNDQgJiMxMDtRIDE1OTEgNDExMyAxNDY2IDQxMTMgJiMxMDtRIDEzMDkgNDExMyAxMjIyIDM5NzggJiMxMDtRIDExMDAgMzc5NCAxMTAwIDMyNzUgJiMxMDtRIDExMDAgMjQwOSAxMzA2IDIwODEgJiMxMDtRIDE0NDEgMTg2OSAxNjY5IDE4NjkgJiMxMDtRIDE3OTEgMTg2OSAxOTkxIDE5NjkgJiMxMDt6IiBpZD0iVGltZXNOZXdSb21hblBTLUJvbGRNVC0zOSIvPiYjeGE7ICAgICAgPHBhdGggdHJhbnNmb3JtPSJzY2FsZSgwLjAxNTYyNSkiIGQ9Ik0gMTU5IDE1OTcgJiMxMDtMIDIxNzIgNDMyNSAmIzEwO0wgMjU1MyA0MzI1ICYjMTA7TCAyNTUzIDE1OTcgJiMxMDtMIDI5NDEgMTU5NyAmIzEwO0wgMjk0MSA5NTAgJiMxMDtMIDI1NTMgOTUwICYjMTA7TCAyNTUzIDAgJiMxMDtMIDE2OTQgMCAmIzEwO0wgMTY5NCA5NTAgJiMxMDtMIDE1OSA5NTAgJiMxMDtMIDE1OSAxNTk3ICYjMTA7eiYjMTA7TSA0NjMgMTU5NyAmIzEwO0wgMTY5NCAxNTk3ICYjMTA7TCAxNjk0IDMyNjkgJiMxMDtMIDQ2MyAxNTk3ICYjMTA7eiIgaWQ9IlRpbWVzTmV3Um9tYW5QUy1Cb2xkTVQtMzQiLz4mI3hhOyAgICAgIDxwYXRoIHRyYW5zZm9ybT0ic2NhbGUoMC4wMTU2MjUpIiBkPSJNIDk0NyAyMTI1ICYjMTA7TCA5NDcgMjIzNCAmIzEwO1EgMTMwMyAyMzM4IDE0NDAgMjQyNyAmIzEwO1EgMTU3OCAyNTE2IDE2NzggMjY5OCAmIzEwO1EgMTc3OCAyODgxIDE3NzggMzA2OSAmIzEwO1EgMTc3OCAzMzI4IDE1ODkgMzUxNCAmIzEwO1EgMTQwMCAzNzAwIDExMTkgMzcwMCAmIzEwO1EgNjgxIDM3MDAgMzc1IDMyMzggJiMxMDtMIDI1OSAzMjc4ICYjMTA7USA0ODQgMzgwMCA4MzYgNDA2MiAmIzEwO1EgMTE4OCA0MzI1IDE2MTkgNDMyNSAmIzEwO1EgMjA1OSA0MzI1IDIzNDUgNDA1NiAmIzEwO1EgMjYzMSAzNzg4IDI2MzEgMzQyOCAmIzEwO1EgMjYzMSAzMTk0IDI0OTggMjk3NiAmIzEwO1EgMjM2NiAyNzU5IDIwODEgMjU5NCAmIzEwO1EgMjQ0NyAyNDE2IDI2MzkgMjE1NSAmIzEwO1EgMjgzMSAxODk0IDI4MzEgMTUwMCAmIzEwO1EgMjgzMSA4MzggMjM1MSAzNzMgJiMxMDtRIDE4NzIgLTkxIDEwNjYgLTkxICYjMTA7USA1MjggLTkxIDI4MSA4OCAmIzEwO1EgMTAzIDIxMyAxMDMgNDA5ICYjMTA7USAxMDMgNTUzIDIwNiA2NTQgJiMxMDtRIDMwOSA3NTYgNDQ0IDc1NiAmIzEwO1EgNTQ3IDc1NiA2MzggNzEzICYjMTA7USA2ODggNjg4IDk5MiA0MzkgJiMxMDtRIDEyOTcgMTkxIDE1NjMgMTkxICYjMTA7USAxNzk0IDE5MSAxOTU5IDM3MyAmIzEwO1EgMjEyNSA1NTYgMjEyNSA4MzggJiMxMDtRIDIxMjUgMTI2NiAxODI1IDE2MjcgJiMxMDtRIDE1MjUgMTk4OCA5NDcgMjEyNSAmIzEwO3oiIGlkPSJUaW1lc05ld1JvbWFuUFMtQm9sZE1ULTMzIi8+JiN4YTsgICAgIDwvZGVmcz4mI3hhOyAgICAgPHVzZSB4bGluazpocmVmPSIjVGltZXNOZXdSb21hblBTLUJvbGRNVC0zOSIvPiYjeGE7ICAgICA8dXNlIHg9IjUwIiB4bGluazpocmVmPSIjVGltZXNOZXdSb21hblBTLUJvbGRNVC0zNCIvPiYjeGE7ICAgICA8dXNlIHg9IjEwMCIgeGxpbms6aHJlZj0iI1RpbWVzTmV3Um9tYW5QUy1Cb2xkTVQtMmUiLz4mI3hhOyAgICAgPHVzZSB4PSIxMjUiIHhsaW5rOmhyZWY9IiNUaW1lc05ld1JvbWFuUFMtQm9sZE1ULTMzIi8+JiN4YTsgICAgPC9nPiYjeGE7ICAgPC9nPiYjeGE7ICAgPGcgaWQ9InRleHRfMTUiPiYjeGE7ICAgICYjeGE7ICAgIDxnIHRyYW5zZm9ybT0idHJhbnNsYXRlKDEzMC4wNDYwMjYgNjguMDUwMDgpIHNjYWxlKDAuMSAtMC4xKSIgc3R5bGU9ImZpbGw6ICMyNjI2MjYiPiYjeGE7ICAgICA8dXNlIHhsaW5rOmhyZWY9IiNUaW1lc05ld1JvbWFuUFMtQm9sZE1ULTM5Ii8+JiN4YTsgICAgIDx1c2UgeD0iNTAiIHhsaW5rOmhyZWY9IiNUaW1lc05ld1JvbWFuUFMtQm9sZE1ULTM4Ii8+JiN4YTsgICAgIDx1c2UgeD0iMTAwIiB4bGluazpocmVmPSIjVGltZXNOZXdSb21hblBTLUJvbGRNVC0yZSIvPiYjeGE7ICAgICA8dXNlIHg9IjEyNSIgeGxpbms6aHJlZj0iI1RpbWVzTmV3Um9tYW5QUy1Cb2xkTVQtMzciLz4mI3hhOyAgICA8L2c+JiN4YTsgICA8L2c+JiN4YTsgICA8ZyBpZD0idGV4dF8xNiI+JiN4YTsgICAgJiN4YTsgICAgPGcgdHJhbnNmb3JtPSJ0cmFuc2xhdGUoMTgxLjIwNjYzMiAxMzQuNDY0OTc1KSBzY2FsZSgwLjEgLTAuMSkiIHN0eWxlPSJmaWxsOiAjMjYyNjI2Ij4mI3hhOyAgICAgPHVzZSB4bGluazpocmVmPSIjVGltZXNOZXdSb21hblBTLUJvbGRNVC0zNyIvPiYjeGE7ICAgICA8dXNlIHg9IjUwIiB4bGluazpocmVmPSIjVGltZXNOZXdSb21hblBTLUJvbGRNVC0zOSIvPiYjeGE7ICAgICA8dXNlIHg9IjEwMCIgeGxpbms6aHJlZj0iI1RpbWVzTmV3Um9tYW5QUy1Cb2xkTVQtMmUiLz4mI3hhOyAgICAgPHVzZSB4PSIxMjUiIHhsaW5rOmhyZWY9IiNUaW1lc05ld1JvbWFuUFMtQm9sZE1ULTMzIi8+JiN4YTsgICAgPC9nPiYjeGE7ICAgPC9nPiYjeGE7ICAgPGcgaWQ9InRleHRfMTciPiYjeGE7ICAgICYjeGE7ICAgIDxnIHRyYW5zZm9ybT0idHJhbnNsYXRlKDIwNC44MTkyMTkgMTI3LjU5NDQ2OSkgc2NhbGUoMC4xIC0wLjEpIiBzdHlsZT0iZmlsbDogIzI2MjYyNiI+JiN4YTsgICAgIDxkZWZzPiYjeGE7ICAgICAgPHBhdGggdHJhbnNmb3JtPSJzY2FsZSgwLjAxNTYyNSkiIGQ9Ik0gMjA4NCA0MzI1ICYjMTA7TCAyMDg0IDg1OSAmIzEwO1EgMjA4NCA0NjkgMjExOCAzNjEgJiMxMDtRIDIxNTMgMjUzIDIyNjIgMTg0ICYjMTA7USAyMzcyIDExNiAyNjEzIDExNiAmIzEwO0wgMjcwOSAxMTYgJiMxMDtMIDI3MDkgMCAmIzEwO0wgNDc4IDAgJiMxMDtMIDQ3OCAxMTYgJiMxMDtMIDU5MSAxMTYgJiMxMDtRIDg2MyAxMTYgOTc4IDE3OCAmIzEwO1EgMTA5NCAyNDEgMTEzNCAzNTAgJiMxMDtRIDExNzUgNDU5IDExNzUgODU5ICYjMTA7TCAxMTc1IDMwNTYgJiMxMDtRIDExNzUgMzM1MCAxMTQ3IDM0MjMgJiMxMDtRIDExMTkgMzQ5NyAxMDQyIDM1NDggJiMxMDtRIDk2NiAzNjAwIDg2NiAzNjAwICYjMTA7USA3MDYgMzYwMCA0NzggMzUwMCAmIzEwO0wgNDIyIDM2MTMgJiMxMDtMIDE5ODEgNDMyNSAmIzEwO0wgMjA4NCA0MzI1ICYjMTA7eiIgaWQ9IlRpbWVzTmV3Um9tYW5QUy1Cb2xkTVQtMzEiLz4mI3hhOyAgICAgPC9kZWZzPiYjeGE7ICAgICA8dXNlIHhsaW5rOmhyZWY9IiNUaW1lc05ld1JvbWFuUFMtQm9sZE1ULTM4Ii8+JiN4YTsgICAgIDx1c2UgeD0iNTAiIHhsaW5rOmhyZWY9IiNUaW1lc05ld1JvbWFuUFMtQm9sZE1ULTMxIi8+JiN4YTsgICAgIDx1c2UgeD0iMTAwIiB4bGluazpocmVmPSIjVGltZXNOZXdSb21hblBTLUJvbGRNVC0yZSIvPiYjeGE7ICAgICA8dXNlIHg9IjEyNSIgeGxpbms6aHJlZj0iI1RpbWVzTmV3Um9tYW5QUy1Cb2xkTVQtMzAiLz4mI3hhOyAgICA8L2c+JiN4YTsgICA8L2c+JiN4YTsgICA8ZyBpZD0idGV4dF8xOCI+JiN4YTsgICAgJiN4YTsgICAgPGcgdHJhbnNmb3JtPSJ0cmFuc2xhdGUoMjI4LjQzMTgwNyAxMjcuMjEyNzc0KSBzY2FsZSgwLjEgLTAuMSkiIHN0eWxlPSJmaWxsOiAjMjYyNjI2Ij4mI3hhOyAgICAgPHVzZSB4bGluazpocmVmPSIjVGltZXNOZXdSb21hblBTLUJvbGRNVC0zOCIvPiYjeGE7ICAgICA8dXNlIHg9IjUwIiB4bGluazpocmVmPSIjVGltZXNOZXdSb21hblBTLUJvbGRNVC0zMyIvPiYjeGE7ICAgICA8dXNlIHg9IjEwMCIgeGxpbms6aHJlZj0iI1RpbWVzTmV3Um9tYW5QUy1Cb2xkTVQtMmUiLz4mI3hhOyAgICAgPHVzZSB4PSIxMjUiIHhsaW5rOmhyZWY9IiNUaW1lc05ld1JvbWFuUFMtQm9sZE1ULTMwIi8+JiN4YTsgICAgPC9nPiYjeGE7ICAgPC9nPiYjeGE7ICAgPGcgaWQ9InRleHRfMTkiPiYjeGE7ICAgICYjeGE7ICAgIDxnIHRyYW5zZm9ybT0idHJhbnNsYXRlKDI3OS41OTI0MTMgMTE2LjkwNzAxNCkgc2NhbGUoMC4xIC0wLjEpIiBzdHlsZT0iZmlsbDogIzI2MjYyNiI+JiN4YTsgICAgIDx1c2UgeGxpbms6aHJlZj0iI1RpbWVzTmV3Um9tYW5QUy1Cb2xkTVQtMzgiLz4mI3hhOyAgICAgPHVzZSB4PSI1MCIgeGxpbms6aHJlZj0iI1RpbWVzTmV3Um9tYW5QUy1Cb2xkTVQtMzMiLz4mI3hhOyAgICAgPHVzZSB4PSIxMDAiIHhsaW5rOmhyZWY9IiNUaW1lc05ld1JvbWFuUFMtQm9sZE1ULTJlIi8+JiN4YTsgICAgIDx1c2UgeD0iMTI1IiB4bGluazpocmVmPSIjVGltZXNOZXdSb21hblBTLUJvbGRNVC0zMCIvPiYjeGE7ICAgIDwvZz4mI3hhOyAgIDwvZz4mI3hhOyAgIDxnIGlkPSJ0ZXh0XzIwIj4mI3hhOyAgICAmI3hhOyAgICA8ZyB0cmFuc2Zvcm09InRyYW5zbGF0ZSgzMDMuMjA1IDExNS43NjE5Mykgc2NhbGUoMC4xIC0wLjEpIiBzdHlsZT0iZmlsbDogIzI2MjYyNiI+JiN4YTsgICAgIDxkZWZzPiYjeGE7ICAgICAgPHBhdGggdHJhbnNmb3JtPSJzY2FsZSgwLjAxNTYyNSkiIGQ9Ik0gOTc1IDQyMzggJiMxMDtMIDI5NTkgNDIzOCAmIzEwO0wgMjY0NCAzNDMxICYjMTA7TCA5NzUgMzQzMSAmIzEwO0wgODE2IDMwMDkgJiMxMDtRIDE4OTQgMjk2OSAyNDc1IDI0NzIgJiMxMDtRIDI5NTMgMjA2MyAyOTUzIDE0NTMgJiMxMDtRIDI5NTMgMTA2MyAyNzMxIDY4OSAmIzEwO1EgMjUwOSAzMTYgMjEwNiAxMTQgJiMxMDtRIDE3MDMgLTg4IDEyMjIgLTg4ICYjMTA7USA3MDMgLTg4IDQyNSAxMDYgJiMxMDtRIDIzMSAyNDQgMjMxIDQxOSAmIzEwO1EgMjMxIDU1MyAzMzIgNjU2ICYjMTA7USA0MzQgNzU5IDU2OSA3NTkgJiMxMDtRIDY5MSA3NTkgODE2IDcwOSAmIzEwO1EgOTQxIDY1OSAxMjQ0IDQ0NyAmIzEwO1EgMTQzNCAzMTYgMTU3MiAyNjYgJiMxMDtRIDE2NjkgMjI4IDE3OTEgMjI4ICYjMTA7USAyMDQ3IDIyOCAyMjI2IDQxNSAmIzEwO1EgMjQwNiA2MDMgMjQwNiA4NjYgJiMxMDtRIDI0MDYgMTQxNiAxODU2IDE3NTkgJiMxMDtRIDEzMDYgMjEwMyA0NjkgMjEwMyAmIzEwO1EgMzg0IDIxMDMgMjE2IDIxMDAgJiMxMDtMIDk3NSA0MjM4ICYjMTA7eiIgaWQ9IlRpbWVzTmV3Um9tYW5QUy1Cb2xkTVQtMzUiLz4mI3hhOyAgICAgPC9kZWZzPiYjeGE7ICAgICA8dXNlIHhsaW5rOmhyZWY9IiNUaW1lc05ld1JvbWFuUFMtQm9sZE1ULTM4Ii8+JiN4YTsgICAgIDx1c2UgeD0iNTAiIHhsaW5rOmhyZWY9IiNUaW1lc05ld1JvbWFuUFMtQm9sZE1ULTM1Ii8+JiN4YTsgICAgIDx1c2UgeD0iMTAwIiB4bGluazpocmVmPSIjVGltZXNOZXdSb21hblBTLUJvbGRNVC0yZSIvPiYjeGE7ICAgICA8dXNlIHg9IjEyNSIgeGxpbms6aHJlZj0iI1RpbWVzTmV3Um9tYW5QUy1Cb2xkTVQtMzAiLz4mI3hhOyAgICA8L2c+JiN4YTsgICA8L2c+JiN4YTsgICA8ZyBpZD0idGV4dF8yMSI+JiN4YTsgICAgJiN4YTsgICAgPGcgdHJhbnNmb3JtPSJ0cmFuc2xhdGUoMzI2LjgxNzU4NyA5MC45NTE3NjgpIHNjYWxlKDAuMSAtMC4xKSIgc3R5bGU9ImZpbGw6ICMyNjI2MjYiPiYjeGE7ICAgICA8dXNlIHhsaW5rOmhyZWY9IiNUaW1lc05ld1JvbWFuUFMtQm9sZE1ULTM4Ii8+JiN4YTsgICAgIDx1c2UgeD0iNTAiIHhsaW5rOmhyZWY9IiNUaW1lc05ld1JvbWFuUFMtQm9sZE1ULTM5Ii8+JiN4YTsgICAgIDx1c2UgeD0iMTAwIiB4bGluazpocmVmPSIjVGltZXNOZXdSb21hblBTLUJvbGRNVC0yZSIvPiYjeGE7ICAgICA8dXNlIHg9IjEyNSIgeGxpbms6aHJlZj0iI1RpbWVzTmV3Um9tYW5QUy1Cb2xkTVQtMzAiLz4mI3hhOyAgICA8L2c+JiN4YTsgICA8L2c+JiN4YTsgICA8ZyBpZD0idGV4dF8yMiI+JiN4YTsgICAgJiN4YTsgICAgPGcgdHJhbnNmb3JtPSJ0cmFuc2xhdGUoMzc3Ljk3ODE5MyAzNzcuOTg2MjU3KSBzY2FsZSgwLjEgLTAuMSkiIHN0eWxlPSJmaWxsOiAjMjYyNjI2Ij4mI3hhOyAgICAgPHVzZSB4bGluazpocmVmPSIjVGltZXNOZXdSb21hblBTLUJvbGRNVC0zMSIvPiYjeGE7ICAgICA8dXNlIHg9IjUwIiB4bGluazpocmVmPSIjVGltZXNOZXdSb21hblBTLUJvbGRNVC0zNyIvPiYjeGE7ICAgICA8dXNlIHg9IjEwMCIgeGxpbms6aHJlZj0iI1RpbWVzTmV3Um9tYW5QUy1Cb2xkTVQtMmUiLz4mI3hhOyAgICAgPHVzZSB4PSIxMjUiIHhsaW5rOmhyZWY9IiNUaW1lc05ld1JvbWFuUFMtQm9sZE1ULTMwIi8+JiN4YTsgICAgPC9nPiYjeGE7ICAgPC9nPiYjeGE7ICAgPGcgaWQ9InRleHRfMjMiPiYjeGE7ICAgICYjeGE7ICAgIDxnIHRyYW5zZm9ybT0idHJhbnNsYXRlKDQwMS41OTA3ODEgMzMyLjU2NDU3Nikgc2NhbGUoMC4xIC0wLjEpIiBzdHlsZT0iZmlsbDogIzI2MjYyNiI+JiN4YTsgICAgIDxkZWZzPiYjeGE7ICAgICAgPHBhdGggdHJhbnNmb3JtPSJzY2FsZSgwLjAxNTYyNSkiIGQ9Ik0gMjY1MCAwICYjMTA7TCAxNTYgMCAmIzEwO0wgMTU2IDY5ICYjMTA7USAxMzAzIDE0MzQgMTU0OCAxOTA2ICYjMTA7USAxNzk0IDIzNzggMTc5NCAyODI4ICYjMTA7USAxNzk0IDMxNTYgMTU5MSAzMzczICYjMTA7USAxMzg4IDM1OTEgMTA5NCAzNTkxICYjMTA7USA2MTMgMzU5MSAzNDcgMzEwOSAmIzEwO0wgMjMxIDMxNTAgJiMxMDtRIDQwMCAzNzUwIDc0NCA0MDM3ICYjMTA7USAxMDg4IDQzMjUgMTUzOCA0MzI1ICYjMTA7USAxODU5IDQzMjUgMjEyNSA0MTc1ICYjMTA7USAyMzkxIDQwMjUgMjU0MSAzNzY0ICYjMTA7USAyNjkxIDM1MDMgMjY5MSAzMjc1ICYjMTA7USAyNjkxIDI4NTkgMjQ1OSAyNDMxICYjMTA7USAyMTQ0IDE4NTMgMTA4MSA4MTkgJiMxMDtMIDE5OTcgODE5ICYjMTA7USAyMzM0IDgxOSAyNDM2IDg0NyAmIzEwO1EgMjUzOCA4NzUgMjYwMyA5NDIgJiMxMDtRIDI2NjkgMTAwOSAyNzc1IDEyMjUgJiMxMDtMIDI4ODggMTIyNSAmIzEwO0wgMjY1MCAwICYjMTA7eiIgaWQ9IlRpbWVzTmV3Um9tYW5QUy1Cb2xkTVQtMzIiLz4mI3hhOyAgICAgPC9kZWZzPiYjeGE7ICAgICA8dXNlIHhsaW5rOmhyZWY9IiNUaW1lc05ld1JvbWFuUFMtQm9sZE1ULTMyIi8+JiN4YTsgICAgIDx1c2UgeD0iNTAiIHhsaW5rOmhyZWY9IiNUaW1lc05ld1JvbWFuUFMtQm9sZE1ULTM3Ii8+JiN4YTsgICAgIDx1c2UgeD0iMTAwIiB4bGluazpocmVmPSIjVGltZXNOZXdSb21hblBTLUJvbGRNVC0yZSIvPiYjeGE7ICAgICA8dXNlIHg9IjEyNSIgeGxpbms6aHJlZj0iI1RpbWVzTmV3Um9tYW5QUy1Cb2xkTVQtMzciLz4mI3hhOyAgICA8L2c+JiN4YTsgICA8L2c+JiN4YTsgICA8ZyBpZD0idGV4dF8yNCI+JiN4YTsgICAgJiN4YTsgICAgPGcgdHJhbnNmb3JtPSJ0cmFuc2xhdGUoNDI1LjIwMzM2OCAyNjYuNTMxMzc2KSBzY2FsZSgwLjEgLTAuMSkiIHN0eWxlPSJmaWxsOiAjMjYyNjI2Ij4mI3hhOyAgICAgPHVzZSB4bGluazpocmVmPSIjVGltZXNOZXdSb21hblBTLUJvbGRNVC0zNCIvPiYjeGE7ICAgICA8dXNlIHg9IjUwIiB4bGluazpocmVmPSIjVGltZXNOZXdSb21hblBTLUJvbGRNVC0zMyIvPiYjeGE7ICAgICA8dXNlIHg9IjEwMCIgeGxpbms6aHJlZj0iI1RpbWVzTmV3Um9tYW5QUy1Cb2xkTVQtMmUiLz4mI3hhOyAgICAgPHVzZSB4PSIxMjUiIHhsaW5rOmhyZWY9IiNUaW1lc05ld1JvbWFuUFMtQm9sZE1ULTM3Ii8+JiN4YTsgICAgPC9nPiYjeGE7ICAgPC9nPiYjeGE7ICAgPGcgaWQ9InRleHRfMjUiPiYjeGE7ICAgICYjeGE7ICAgIDxnIHRyYW5zZm9ybT0idHJhbnNsYXRlKDQ3Ni4zNjM5NzQgMzU3Ljc1NjQzMykgc2NhbGUoMC4xIC0wLjEpIiBzdHlsZT0iZmlsbDogIzI2MjYyNiI+JiN4YTsgICAgIDx1c2UgeGxpbms6aHJlZj0iI1RpbWVzTmV3Um9tYW5QUy1Cb2xkTVQtMzIiLz4mI3hhOyAgICAgPHVzZSB4PSI1MCIgeGxpbms6aHJlZj0iI1RpbWVzTmV3Um9tYW5QUy1Cb2xkTVQtMzMiLz4mI3hhOyAgICAgPHVzZSB4PSIxMDAiIHhsaW5rOmhyZWY9IiNUaW1lc05ld1JvbWFuUFMtQm9sZE1ULTJlIi8+JiN4YTsgICAgIDx1c2UgeD0iMTI1IiB4bGluazpocmVmPSIjVGltZXNOZXdSb21hblBTLUJvbGRNVC0zNyIvPiYjeGE7ICAgIDwvZz4mI3hhOyAgIDwvZz4mI3hhOyAgIDxnIGlkPSJ0ZXh0XzI2Ij4mI3hhOyAgICAmI3hhOyAgICA8ZyB0cmFuc2Zvcm09InRyYW5zbGF0ZSg0OTkuOTc2NTYyIDM0NS45MjM4OTQpIHNjYWxlKDAuMSAtMC4xKSIgc3R5bGU9ImZpbGw6ICMyNjI2MjYiPiYjeGE7ICAgICA8dXNlIHhsaW5rOmhyZWY9IiNUaW1lc05ld1JvbWFuUFMtQm9sZE1ULTMyIi8+JiN4YTsgICAgIDx1c2UgeD0iNTAiIHhsaW5rOmhyZWY9IiNUaW1lc05ld1JvbWFuUFMtQm9sZE1ULTM0Ii8+JiN4YTsgICAgIDx1c2UgeD0iMTAwIiB4bGluazpocmVmPSIjVGltZXNOZXdSb21hblBTLUJvbGRNVC0yZSIvPiYjeGE7ICAgICA8dXNlIHg9IjEyNSIgeGxpbms6aHJlZj0iI1RpbWVzTmV3Um9tYW5QUy1Cb2xkTVQtMzMiLz4mI3hhOyAgICA8L2c+JiN4YTsgICA8L2c+JiN4YTsgICA8ZyBpZD0idGV4dF8yNyI+JiN4YTsgICAgJiN4YTsgICAgPGcgdHJhbnNmb3JtPSJ0cmFuc2xhdGUoNTIzLjU4OTE0OSAzNDAuOTYxODYyKSBzY2FsZSgwLjEgLTAuMSkiIHN0eWxlPSJmaWxsOiAjMjYyNjI2Ij4mI3hhOyAgICAgPHVzZSB4bGluazpocmVmPSIjVGltZXNOZXdSb21hblBTLUJvbGRNVC0zMiIvPiYjeGE7ICAgICA8dXNlIHg9IjUwIiB4bGluazpocmVmPSIjVGltZXNOZXdSb21hblBTLUJvbGRNVC0zNyIvPiYjeGE7ICAgICA8dXNlIHg9IjEwMCIgeGxpbms6aHJlZj0iI1RpbWVzTmV3Um9tYW5QUy1Cb2xkTVQtMmUiLz4mI3hhOyAgICAgPHVzZSB4PSIxMjUiIHhsaW5rOmhyZWY9IiNUaW1lc05ld1JvbWFuUFMtQm9sZE1ULTMwIi8+JiN4YTsgICAgPC9nPiYjeGE7ICAgPC9nPiYjeGE7ICAgPGcgaWQ9InRleHRfMjgiPiYjeGE7ICAgICYjeGE7ICAgIDxnIHRyYW5zZm9ybT0idHJhbnNsYXRlKDE0MC4xMTYyNSAyMS42KSBzY2FsZSgwLjE2IC0wLjE2KSIgc3R5bGU9ImZpbGw6ICMyNjI2MjYiPiYjeGE7ICAgICA8ZGVmcz4mI3hhOyAgICAgIDxwYXRoIHRyYW5zZm9ybT0ic2NhbGUoMC4wMTU2MjUpIiBkPSJNIDE3MjggMTkxOSAmIzEwO0wgMTcyOCA3NDQgJiMxMDtRIDE3MjggNDAwIDE3NzAgMzExICYjMTA7USAxODEzIDIyMiAxOTIwIDE2OSAmIzEwO1EgMjAyOCAxMTYgMjMxNiAxMTYgJiMxMDtMIDIzMTYgMCAmIzEwO0wgMTYzIDAgJiMxMDtMIDE2MyAxMTYgJiMxMDtRIDQ1NiAxMTYgNTYxIDE3MCAmIzEwO1EgNjY2IDIyNSA3MDggMzEyICYjMTA7USA3NTAgNDAwIDc1MCA3NDQgJiMxMDtMIDc1MCAzNDk0ICYjMTA7USA3NTAgMzgzOCA3MDggMzkyNyAmIzEwO1EgNjY2IDQwMTYgNTU5IDQwNjkgJiMxMDtRIDQ1MyA0MTIyIDE2MyA0MTIyICYjMTA7TCAxNjMgNDIzOCAmIzEwO0wgMjAwOSA0MjM4ICYjMTA7USAyOTIyIDQyMzggMzMxOSAzOTEzICYjMTA7USAzNzE2IDM1ODggMzcxNiAzMTAwICYjMTA7USAzNzE2IDI2ODggMzQ1OSAyMzk0ICYjMTA7USAzMjAzIDIxMDAgMjc1MyAxOTk0ICYjMTA7USAyNDUwIDE5MTkgMTcyOCAxOTE5ICYjMTA7eiYjMTA7TSAxNzI4IDM5OTQgJiMxMDtMIDE3MjggMjE2MyAmIzEwO1EgMTgzMSAyMTU2IDE4ODQgMjE1NiAmIzEwO1EgMjI2NiAyMTU2IDI0NzIgMjM4MiAmIzEwO1EgMjY3OCAyNjA5IDI2NzggMzA4NCAmIzEwO1EgMjY3OCAzNTU2IDI0NzIgMzc3NSAmIzEwO1EgMjI2NiAzOTk0IDE4NTYgMzk5NCAmIzEwO0wgMTcyOCAzOTk0ICYjMTA7eiIgaWQ9IlRpbWVzTmV3Um9tYW5QUy1Cb2xkTVQtNTAiLz4mI3hhOyAgICAgIDxwYXRoIHRyYW5zZm9ybT0ic2NhbGUoMC4wMTU2MjUpIiBkPSJNIDI2OTEgMTU2NiAmIzEwO0wgMTA4OCAxNTY2ICYjMTA7USAxMTE2IDk4NCAxMzk3IDY0NyAmIzEwO1EgMTYxMyAzODggMTkxNiAzODggJiMxMDtRIDIxMDMgMzg4IDIyNTYgNDkyICYjMTA7USAyNDA5IDU5NyAyNTg0IDg2OSAmIzEwO0wgMjY5MSA4MDAgJiMxMDtRIDI0NTMgMzE2IDIxNjUgMTE0ICYjMTA7USAxODc4IC04OCAxNTAwIC04OCAmIzEwO1EgODUwIC04OCA1MTYgNDEzICYjMTA7USAyNDcgODE2IDI0NyAxNDEzICYjMTA7USAyNDcgMjE0NCA2NDIgMjU3NiAmIzEwO1EgMTAzOCAzMDA5IDE1NjkgMzAwOSAmIzEwO1EgMjAxMyAzMDA5IDIzMzkgMjY0NSAmIzEwO1EgMjY2NiAyMjgxIDI2OTEgMTU2NiAmIzEwO3omIzEwO00gMTkyMiAxNzc1ICYjMTA7USAxOTIyIDIyNzggMTg2NyAyNDY1ICYjMTA7USAxODEzIDI2NTMgMTY5NyAyNzUwICYjMTA7USAxNjMxIDI4MDYgMTUyMiAyODA2ICYjMTA7USAxMzU5IDI4MDYgMTI1NiAyNjQ3ICYjMTA7USAxMDcyIDIzNjkgMTA3MiAxODg0ICYjMTA7TCAxMDcyIDE3NzUgJiMxMDtMIDE5MjIgMTc3NSAmIzEwO3oiIGlkPSJUaW1lc05ld1JvbWFuUFMtQm9sZE1ULTY1Ii8+JiN4YTsgICAgICA8cGF0aCB0cmFuc2Zvcm09InNjYWxlKDAuMDE1NjI1KSIgZD0iTSAxNDk3IDI2MTYgJiMxMDtMIDE0OTcgNTg4ICYjMTA7USAxNDk3IDI5NCAxNTU5IDIxOSAmIzEwO1EgMTY1OSAxMDMgMTkyOCAxMTMgJiMxMDtMIDE5MjggMCAmIzEwO0wgMjA2IDAgJiMxMDtMIDIwNiAxMTMgJiMxMDtRIDQwMyAxMTYgNDg2IDE1OCAmIzEwO1EgNTY5IDIwMCA2MDAgMjc1ICYjMTA7USA2MzEgMzUwIDYzMSA1ODggJiMxMDtMIDYzMSAyNjE2ICYjMTA7TCAyMDYgMjYxNiAmIzEwO0wgMjA2IDI5MjIgJiMxMDtMIDYzMSAyOTIyICYjMTA7TCA2MzEgMzEzOCAmIzEwO0wgNjI4IDMyODQgJiMxMDtRIDYyOCAzNzM0IDk1OCA0MDM0ICYjMTA7USAxMjg4IDQzMzQgMTg1MCA0MzM0ICYjMTA7USAyMjM0IDQzMzQgMjQyMCA0MTkwICYjMTA7USAyNjA2IDQwNDcgMjYwNiAzODcyICYjMTA7USAyNjA2IDM3MzEgMjQ5MCAzNjI4ICYjMTA7USAyMzc1IDM1MjUgMjE4NCAzNTI1ICYjMTA7USAyMDIyIDM1MjUgMTkyNiAzNjA5ICYjMTA7USAxODMxIDM2OTQgMTgzMSAzNzk3ICYjMTA7USAxODMxIDM4MjUgMTg1MCAzOTEzICYjMTA7USAxODYzIDM5NjYgMTg2MyA0MDEzICYjMTA7USAxODYzIDQwNzggMTgyNSA0MTA5ICYjMTA7USAxNzc1IDQxNTYgMTcwMyA0MTU2ICYjMTA7USAxNjEzIDQxNTYgMTU1MiA0MDgxICYjMTA7USAxNDkxIDQwMDYgMTQ5MSAzODQxICYjMTA7TCAxNDk3IDMyOTQgJiMxMDtMIDE0OTcgMjkyMiAmIzEwO0wgMTkyOCAyOTIyICYjMTA7TCAxOTI4IDI2MTYgJiMxMDtMIDE0OTcgMjYxNiAmIzEwO3oiIGlkPSJUaW1lc05ld1JvbWFuUFMtQm9sZE1ULTY2Ii8+JiN4YTsgICAgICA8cGF0aCB0cmFuc2Zvcm09InNjYWxlKDAuMDE1NjI1KSIgZD0iTSAxNDI4IDI5MjIgJiMxMDtMIDE0MjggMjUzOCAmIzEwO1EgMTY2OSAyODAwIDE4NzMgMjkwNCAmIzEwO1EgMjA3OCAzMDA5IDIzMjIgMzAwOSAmIzEwO1EgMjYwMyAzMDA5IDI3OTMgMjg3OCAmIzEwO1EgMjk4NCAyNzQ3IDMwODggMjQ3OCAmIzEwO1EgMzMzOCAyNzU5IDM1NjcgMjg4NCAmIzEwO1EgMzc5NyAzMDA5IDQwNDcgMzAwOSAmIzEwO1EgNDM1MCAzMDA5IDQ1MjkgMjg3MCAmIzEwO1EgNDcwOSAyNzMxIDQ3NzkgMjUxNyAmIzEwO1EgNDg1MCAyMzAzIDQ4NTAgMTgzNCAmIzEwO0wgNDg1MCA2MzggJiMxMDtRIDQ4NTAgMzAwIDQ5MTEgMjE5ICYjMTA7USA0OTcyIDEzOCA1MTY2IDExMyAmIzEwO0wgNTE2NiAwICYjMTA7TCAzNjU2IDAgJiMxMDtMIDM2NTYgMTEzICYjMTA7USAzODM0IDEyOCAzOTE5IDI1MCAmIzEwO1EgMzk3NSAzMzQgMzk3NSA2MzggJiMxMDtMIDM5NzUgMTg5NCAmIzEwO1EgMzk3NSAyMjg0IDM5NDQgMjM5MCAmIzEwO1EgMzkxMyAyNDk3IDM4NDUgMjU0OCAmIzEwO1EgMzc3OCAyNjAwIDM2ODggMjYwMCAmIzEwO1EgMzU1MyAyNjAwIDM0MTUgMjUwMSAmIzEwO1EgMzI3OCAyNDAzIDMxMzggMjIwNiAmIzEwO0wgMzEzOCA2MzggJiMxMDtRIDMxMzggMzIyIDMxOTEgMjQxICYjMTA7USAzMjYzIDEyNSAzNDY2IDExMyAmIzEwO0wgMzQ2NiAwICYjMTA7TCAxOTUzIDAgJiMxMDtMIDE5NTMgMTEzICYjMTA7USAyMDc1IDExOSAyMTQ1IDE3MyAmIzEwO1EgMjIxNiAyMjggMjIzOSAzMDQgJiMxMDtRIDIyNjMgMzgxIDIyNjMgNjM4ICYjMTA7TCAyMjYzIDE4OTQgJiMxMDtRIDIyNjMgMjI5MSAyMjMxIDIzOTEgJiMxMDtRIDIyMDAgMjQ5MSAyMTI2IDI1NDcgJiMxMDtRIDIwNTMgMjYwMyAxOTY5IDI2MDMgJiMxMDtRIDE4NDQgMjYwMyAxNzQxIDI1MzggJiMxMDtRIDE1OTQgMjQ0MSAxNDI4IDIyMDYgJiMxMDtMIDE0MjggNjM4ICYjMTA7USAxNDI4IDMyOCAxNDg5IDIyOSAmIzEwO1EgMTU1MCAxMzEgMTc0NCAxMTMgJiMxMDtMIDE3NDQgMCAmIzEwO0wgMjM4IDAgJiMxMDtMIDIzOCAxMTMgJiMxMDtRIDQyMiAxMzEgNTAwIDIzMSAmIzEwO1EgNTUzIDMwMCA1NTMgNjM4ICYjMTA7TCA1NTMgMjI4OCAmIzEwO1EgNTUzIDI2MTkgNDkyIDI3MDAgJiMxMDtRIDQzMSAyNzgxIDIzOCAyODA2ICYjMTA7TCAyMzggMjkyMiAmIzEwO0wgMTQyOCAyOTIyICYjMTA7eiIgaWQ9IlRpbWVzTmV3Um9tYW5QUy1Cb2xkTVQtNmQiLz4mI3hhOyAgICAgIDxwYXRoIHRyYW5zZm9ybT0ic2NhbGUoMC4wMTU2MjUpIiBkPSJNIDE0MDkgMjkyMiAmIzEwO0wgMTQwOSAyNTQ0ICYjMTA7USAxNjM0IDI3ODggMTg0MCAyODk4ICYjMTA7USAyMDQ3IDMwMDkgMjI4NCAzMDA5ICYjMTA7USAyNTY5IDMwMDkgMjc1NiAyODUxICYjMTA7USAyOTQ0IDI2OTQgMzAwNiAyNDU5ICYjMTA7USAzMDU2IDIyODEgMzA1NiAxNzc1ICYjMTA7TCAzMDU2IDYzOCAmIzEwO1EgMzA1NiAzMDAgMzExNyAyMTcgJiMxMDtRIDMxNzggMTM0IDMzNzIgMTEzICYjMTA7TCAzMzcyIDAgJiMxMDtMIDE4OTQgMCAmIzEwO0wgMTg5NCAxMTMgJiMxMDtRIDIwNTkgMTM0IDIxMzEgMjUwICYjMTA7USAyMTgxIDMyOCAyMTgxIDYzOCAmIzEwO0wgMjE4MSAxOTM4ICYjMTA7USAyMTgxIDIyOTcgMjE1MyAyMzkwICYjMTA7USAyMTI1IDI0ODQgMjA1OCAyNTM2ICYjMTA7USAxOTkxIDI1ODggMTkwOSAyNTg4ICYjMTA7USAxNjQxIDI1ODggMTQwOSAyMjAzICYjMTA7TCAxNDA5IDYzOCAmIzEwO1EgMTQwOSAzMDkgMTQ3MCAyMjEgJiMxMDtRIDE1MzEgMTM0IDE2OTcgMTEzICYjMTA7TCAxNjk3IDAgJiMxMDtMIDIxOSAwICYjMTA7TCAyMTkgMTEzICYjMTA7USA0MDMgMTMxIDQ4MSAyMzEgJiMxMDtRIDUzNCAzMDAgNTM0IDYzOCAmIzEwO0wgNTM0IDIyODggJiMxMDtRIDUzNCAyNjE5IDQ3MyAyNzAwICYjMTA7USA0MTMgMjc4MSAyMTkgMjgwNiAmIzEwO0wgMjE5IDI5MjIgJiMxMDtMIDE0MDkgMjkyMiAmIzEwO3oiIGlkPSJUaW1lc05ld1JvbWFuUFMtQm9sZE1ULTZlIi8+JiN4YTsgICAgICA8cGF0aCB0cmFuc2Zvcm09InNjYWxlKDAuMDE1NjI1KSIgZD0iTSA4NCAwICYjMTA7TCA4NCAxMTYgJiMxMDtMIDIyNSAxMTYgJiMxMDtRIDQwOSAxMTYgNTA3IDE3MyAmIzEwO1EgNjA2IDIzMSA2NTMgMzMxICYjMTA7USA2ODEgMzk3IDY4MSA3MjUgJiMxMDtMIDY4MSAzNTEzICYjMTA7USA2ODEgMzgzOCA2NDcgMzkxOSAmIzEwO1EgNjEzIDQwMDAgNTA4IDQwNjEgJiMxMDtRIDQwMyA0MTIyIDIyNSA0MTIyICYjMTA7TCA4NCA0MTIyICYjMTA7TCA4NCA0MjM4ICYjMTA7TCAxOTgxIDQyMzggJiMxMDtRIDI3NDEgNDIzOCAzMjAzIDQwMzEgJiMxMDtRIDM3NjkgMzc3OCA0MDYxIDMyNjUgJiMxMDtRIDQzNTMgMjc1MyA0MzUzIDIxMDYgJiMxMDtRIDQzNTMgMTY1OSA0MjA5IDEyODIgJiMxMDtRIDQwNjYgOTA2IDM4MzcgNjYxICYjMTA7USAzNjA5IDQxNiAzMzExIDI2NyAmIzEwO1EgMzAxMyAxMTkgMjU4MSAzOCAmIzEwO1EgMjM5MSAwIDE5ODEgMCAmIzEwO0wgODQgMCAmIzEwO3omIzEwO00gMTcwMCAzOTk3ICYjMTA7TCAxNzAwIDY5MSAmIzEwO1EgMTcwMCA0MjggMTcyNSAzNjggJiMxMDtRIDE3NTAgMzA5IDE4MDkgMjc4ICYjMTA7USAxODk0IDIzMSAyMDUzIDIzMSAmIzEwO1EgMjU3NSAyMzEgMjg1MCA1ODggJiMxMDtRIDMyMjUgMTA2OSAzMjI1IDIwODEgJiMxMDtRIDMyMjUgMjg5NyAyOTY5IDMzODQgJiMxMDtRIDI3NjYgMzc2NiAyNDQ3IDM5MDMgJiMxMDtRIDIyMjIgNDAwMCAxNzAwIDM5OTcgJiMxMDt6IiBpZD0iVGltZXNOZXdSb21hblBTLUJvbGRNVC00NCIvPiYjeGE7ICAgICA8L2RlZnM+JiN4YTsgICAgIDx1c2UgeGxpbms6aHJlZj0iI1RpbWVzTmV3Um9tYW5QUy1Cb2xkTVQtNTQiLz4mI3hhOyAgICAgPHVzZSB4PSI1Ny41NzQyMTkiIHhsaW5rOmhyZWY9IiNUaW1lc05ld1JvbWFuUFMtQm9sZE1ULTYxIi8+JiN4YTsgICAgIDx1c2UgeD0iMTA3LjU3NDIxOSIgeGxpbms6aHJlZj0iI1RpbWVzTmV3Um9tYW5QUy1Cb2xkTVQtNzMiLz4mI3hhOyAgICAgPHVzZSB4PSIxNDYuNDkwMjM0IiB4bGluazpocmVmPSIjVGltZXNOZXdSb21hblBTLUJvbGRNVC02YiIvPiYjeGE7ICAgICA8dXNlIHg9IjIwMi4xMDU0NjkiIHhsaW5rOmhyZWY9IiNUaW1lc05ld1JvbWFuUFMtQm9sZE1ULTIwIi8+JiN4YTsgICAgIDx1c2UgeD0iMjI3LjEwNTQ2OSIgeGxpbms6aHJlZj0iI1RpbWVzTmV3Um9tYW5QUy1Cb2xkTVQtNTAiLz4mI3hhOyAgICAgPHVzZSB4PSIyODguMTg5NDUzIiB4bGluazpocmVmPSIjVGltZXNOZXdSb21hblBTLUJvbGRNVC02NSIvPiYjeGE7ICAgICA8dXNlIHg9IjMzMi41NzQyMTkiIHhsaW5rOmhyZWY9IiNUaW1lc05ld1JvbWFuUFMtQm9sZE1ULTcyIi8+JiN4YTsgICAgIDx1c2UgeD0iMzc2Ljk1ODk4NCIgeGxpbms6aHJlZj0iI1RpbWVzTmV3Um9tYW5QUy1Cb2xkTVQtNjYiLz4mI3hhOyAgICAgPHVzZSB4PSI0MTAuMjU5NzY2IiB4bGluazpocmVmPSIjVGltZXNOZXdSb21hblBTLUJvbGRNVC02ZiIvPiYjeGE7ICAgICA8dXNlIHg9IjQ2MC4yNTk3NjYiIHhsaW5rOmhyZWY9IiNUaW1lc05ld1JvbWFuUFMtQm9sZE1ULTcyIi8+JiN4YTsgICAgIDx1c2UgeD0iNTA0LjY0NDUzMSIgeGxpbms6aHJlZj0iI1RpbWVzTmV3Um9tYW5QUy1Cb2xkTVQtNmQiLz4mI3hhOyAgICAgPHVzZSB4PSI1ODcuOTQ1MzEyIiB4bGluazpocmVmPSIjVGltZXNOZXdSb21hblBTLUJvbGRNVC02MSIvPiYjeGE7ICAgICA8dXNlIHg9IjYzNy45NDUzMTIiIHhsaW5rOmhyZWY9IiNUaW1lc05ld1JvbWFuUFMtQm9sZE1ULTZlIi8+JiN4YTsgICAgIDx1c2UgeD0iNjkzLjU2MDU0NyIgeGxpbms6aHJlZj0iI1RpbWVzTmV3Um9tYW5QUy1Cb2xkTVQtNjMiLz4mI3hhOyAgICAgPHVzZSB4PSI3MzcuOTQ1MzEyIiB4bGluazpocmVmPSIjVGltZXNOZXdSb21hblBTLUJvbGRNVC02NSIvPiYjeGE7ICAgICA8dXNlIHg9Ijc4Mi4zMzAwNzgiIHhsaW5rOmhyZWY9IiNUaW1lc05ld1JvbWFuUFMtQm9sZE1ULTIwIi8+JiN4YTsgICAgIDx1c2UgeD0iODAxLjgzMDA3OCIgeGxpbms6aHJlZj0iI1RpbWVzTmV3Um9tYW5QUy1Cb2xkTVQtNDEiLz4mI3hhOyAgICAgPHVzZSB4PSI4NzQuMDQ2ODc1IiB4bGluazpocmVmPSIjVGltZXNOZXdSb21hblBTLUJvbGRNVC02MyIvPiYjeGE7ICAgICA8dXNlIHg9IjkxOC40MzE2NDEiIHhsaW5rOmhyZWY9IiNUaW1lc05ld1JvbWFuUFMtQm9sZE1ULTcyIi8+JiN4YTsgICAgIDx1c2UgeD0iOTYxLjA2NjQwNiIgeGxpbms6aHJlZj0iI1RpbWVzTmV3Um9tYW5QUy1Cb2xkTVQtNmYiLz4mI3hhOyAgICAgPHVzZSB4PSIxMDExLjA2NjQwNiIgeGxpbms6aHJlZj0iI1RpbWVzTmV3Um9tYW5QUy1Cb2xkTVQtNzMiLz4mI3hhOyAgICAgPHVzZSB4PSIxMDQ5Ljk4MjQyMiIgeGxpbms6aHJlZj0iI1RpbWVzTmV3Um9tYW5QUy1Cb2xkTVQtNzMiLz4mI3hhOyAgICAgPHVzZSB4PSIxMDg4Ljg5ODQzOCIgeGxpbms6aHJlZj0iI1RpbWVzTmV3Um9tYW5QUy1Cb2xkTVQtMjAiLz4mI3hhOyAgICAgPHVzZSB4PSIxMTEzLjg5ODQzOCIgeGxpbms6aHJlZj0iI1RpbWVzTmV3Um9tYW5QUy1Cb2xkTVQtNDQiLz4mI3hhOyAgICAgPHVzZSB4PSIxMTg2LjExNTIzNCIgeGxpbms6aHJlZj0iI1RpbWVzTmV3Um9tYW5QUy1Cb2xkTVQtNjkiLz4mI3hhOyAgICAgPHVzZSB4PSIxMjEzLjg5ODQzOCIgeGxpbms6aHJlZj0iI1RpbWVzTmV3Um9tYW5QUy1Cb2xkTVQtNjYiLz4mI3hhOyAgICAgPHVzZSB4PSIxMjQ3LjE5OTIxOSIgeGxpbms6aHJlZj0iI1RpbWVzTmV3Um9tYW5QUy1Cb2xkTVQtNjYiLz4mI3hhOyAgICAgPHVzZSB4PSIxMjgwLjUiIHhsaW5rOmhyZWY9IiNUaW1lc05ld1JvbWFuUFMtQm9sZE1ULTY1Ii8+JiN4YTsgICAgIDx1c2UgeD0iMTMyNC44ODQ3NjYiIHhsaW5rOmhyZWY9IiNUaW1lc05ld1JvbWFuUFMtQm9sZE1ULTcyIi8+JiN4YTsgICAgIDx1c2UgeD0iMTM2Ny41MTk1MzEiIHhsaW5rOmhyZWY9IiNUaW1lc05ld1JvbWFuUFMtQm9sZE1ULTY1Ii8+JiN4YTsgICAgIDx1c2UgeD0iMTQxMS45MDQyOTciIHhsaW5rOmhyZWY9IiNUaW1lc05ld1JvbWFuUFMtQm9sZE1ULTZlIi8+JiN4YTsgICAgIDx1c2UgeD0iMTQ2Ny41MTk1MzEiIHhsaW5rOmhyZWY9IiNUaW1lc05ld1JvbWFuUFMtQm9sZE1ULTc0Ii8+JiN4YTsgICAgIDx1c2UgeD0iMTUwMC44MjAzMTIiIHhsaW5rOmhyZWY9IiNUaW1lc05ld1JvbWFuUFMtQm9sZE1ULTIwIi8+JiN4YTsgICAgIDx1c2UgeD0iMTUyNS44MjAzMTIiIHhsaW5rOmhyZWY9IiNUaW1lc05ld1JvbWFuUFMtQm9sZE1ULTQ0Ii8+JiN4YTsgICAgIDx1c2UgeD0iMTU5OC4wMzcxMDkiIHhsaW5rOmhyZWY9IiNUaW1lc05ld1JvbWFuUFMtQm9sZE1ULTY1Ii8+JiN4YTsgICAgIDx1c2UgeD0iMTY0Mi40MjE4NzUiIHhsaW5rOmhyZWY9IiNUaW1lc05ld1JvbWFuUFMtQm9sZE1ULTZkIi8+JiN4YTsgICAgIDx1c2UgeD0iMTcyNS43MjI2NTYiIHhsaW5rOmhyZWY9IiNUaW1lc05ld1JvbWFuUFMtQm9sZE1ULTZmIi8+JiN4YTsgICAgIDx1c2UgeD0iMTc3NS43MjI2NTYiIHhsaW5rOmhyZWY9IiNUaW1lc05ld1JvbWFuUFMtQm9sZE1ULTczIi8+JiN4YTsgICAgIDx1c2UgeD0iMTgxNC42Mzg2NzIiIHhsaW5rOmhyZWY9IiNUaW1lc05ld1JvbWFuUFMtQm9sZE1ULTc0Ii8+JiN4YTsgICAgIDx1c2UgeD0iMTg0Ny45Mzk0NTMiIHhsaW5rOmhyZWY9IiNUaW1lc05ld1JvbWFuUFMtQm9sZE1ULTcyIi8+JiN4YTsgICAgIDx1c2UgeD0iMTg5Mi4zMjQyMTkiIHhsaW5rOmhyZWY9IiNUaW1lc05ld1JvbWFuUFMtQm9sZE1ULTYxIi8+JiN4YTsgICAgIDx1c2UgeD0iMTk0Mi4zMjQyMTkiIHhsaW5rOmhyZWY9IiNUaW1lc05ld1JvbWFuUFMtQm9sZE1ULTc0Ii8+JiN4YTsgICAgIDx1c2UgeD0iMTk3NS42MjUiIHhsaW5rOmhyZWY9IiNUaW1lc05ld1JvbWFuUFMtQm9sZE1ULTY5Ii8+JiN4YTsgICAgIDx1c2UgeD0iMjAwMy40MDgyMDMiIHhsaW5rOmhyZWY9IiNUaW1lc05ld1JvbWFuUFMtQm9sZE1ULTZmIi8+JiN4YTsgICAgIDx1c2UgeD0iMjA1My40MDgyMDMiIHhsaW5rOmhyZWY9IiNUaW1lc05ld1JvbWFuUFMtQm9sZE1ULTZlIi8+JiN4YTsgICAgIDx1c2UgeD0iMjEwOS4wMjM0MzgiIHhsaW5rOmhyZWY9IiNUaW1lc05ld1JvbWFuUFMtQm9sZE1ULTczIi8+JiN4YTsgICAgPC9nPiYjeGE7ICAgPC9nPiYjeGE7ICAgPGcgaWQ9ImxlZ2VuZF8xIj4mI3hhOyAgICA8ZyBpZD0icGF0Y2hfMjIiPiYjeGE7ICAgICA8cGF0aCBzdHlsZT0iZmlsbDogI2ZmZmZmZjsgb3BhY2l0eTogMC44OyBzdHJva2U6ICNjY2NjY2M7IHN0cm9rZS1saW5lam9pbjogbWl0ZXIiIGQ9Ik0gNDY3LjQxMTI1IDk3LjEwMDYyNSAmIzEwO0wgNTU2LjggOTcuMTAwNjI1ICYjMTA7USA1NTkuMiA5Ny4xMDA2MjUgNTU5LjIgOTQuNzAwNjI1ICYjMTA7TCA1NTkuMiA0NSAmIzEwO1EgNTU5LjIgNDIuNiA1NTYuOCA0Mi42ICYjMTA7TCA0NjcuNDExMjUgNDIuNiAmIzEwO1EgNDY1LjAxMTI1IDQyLjYgNDY1LjAxMTI1IDQ1ICYjMTA7TCA0NjUuMDExMjUgOTQuNzAwNjI1ICYjMTA7USA0NjUuMDExMjUgOTcuMTAwNjI1IDQ2Ny40MTEyNSA5Ny4xMDA2MjUgJiMxMDt6Ii8+JiN4YTsgICAgPC9nPiYjeGE7ICAgIDxnIGlkPSJwYXRjaF8yMyI+JiN4YTsgICAgIDxwYXRoIHN0eWxlPSJmaWxsOiAjOThlNmUyOyBzdHJva2U6ICM2YWExOWU7IHN0cm9rZS13aWR0aDogMC41OyBzdHJva2UtbGluZWpvaW46IG1pdGVyIiBkPSJNIDQ2OS44MTEyNSA1NS44ICYjMTA7TCA0OTMuODExMjUgNTUuOCAmIzEwO0wgNDkzLjgxMTI1IDQ3LjQgJiMxMDtMIDQ2OS44MTEyNSA0Ny40ICYjMTA7eiIvPiYjeGE7ICAgIDwvZz4mI3hhOyAgICA8ZyBpZD0idGV4dF8yOSI+JiN4YTsgICAgICYjeGE7ICAgICA8ZyB0cmFuc2Zvcm09InRyYW5zbGF0ZSg1MDMuNDExMjUgNTUuOCkgc2NhbGUoMC4xMiAtMC4xMikiIHN0eWxlPSJmaWxsOiAjMjYyNjI2Ij4mI3hhOyAgICAgIDx1c2UgeGxpbms6aHJlZj0iI1RpbWVzTmV3Um9tYW5QUy1Cb2xkTVQtMzIiLz4mI3hhOyAgICAgIDx1c2UgeD0iNTAiIHhsaW5rOmhyZWY9IiNUaW1lc05ld1JvbWFuUFMtQm9sZE1ULTMwIi8+JiN4YTsgICAgICA8dXNlIHg9IjEwMCIgeGxpbms6aHJlZj0iI1RpbWVzTmV3Um9tYW5QUy1Cb2xkTVQtMjAiLz4mI3hhOyAgICAgIDx1c2UgeD0iMTI1IiB4bGluazpocmVmPSIjVGltZXNOZXdSb21hblBTLUJvbGRNVC00NCIvPiYjeGE7ICAgICAgPHVzZSB4PSIxOTcuMjE2Nzk3IiB4bGluazpocmVmPSIjVGltZXNOZXdSb21hblBTLUJvbGRNVC02NSIvPiYjeGE7ICAgICAgPHVzZSB4PSIyNDEuNjAxNTYyIiB4bGluazpocmVmPSIjVGltZXNOZXdSb21hblBTLUJvbGRNVC02ZCIvPiYjeGE7ICAgICAgPHVzZSB4PSIzMjQuOTAyMzQ0IiB4bGluazpocmVmPSIjVGltZXNOZXdSb21hblBTLUJvbGRNVC02ZiIvPiYjeGE7ICAgICA8L2c+JiN4YTsgICAgPC9nPiYjeGE7ICAgIDxnIGlkPSJwYXRjaF8yNCI+JiN4YTsgICAgIDxwYXRoIHN0eWxlPSJmaWxsOiAjZmZlNjk5OyBzdHJva2U6ICNiMmExNmI7IHN0cm9rZS13aWR0aDogMC41OyBzdHJva2UtbGluZWpvaW46IG1pdGVyIiBkPSJNIDQ2OS44MTEyNSA3Mi43NjY4NzUgJiMxMDtMIDQ5My44MTEyNSA3Mi43NjY4NzUgJiMxMDtMIDQ5My44MTEyNSA2NC4zNjY4NzUgJiMxMDtMIDQ2OS44MTEyNSA2NC4zNjY4NzUgJiMxMDt6Ii8+JiN4YTsgICAgPC9nPiYjeGE7ICAgIDxnIGlkPSJ0ZXh0XzMwIj4mI3hhOyAgICAgJiN4YTsgICAgIDxnIHRyYW5zZm9ybT0idHJhbnNsYXRlKDUwMy40MTEyNSA3Mi43NjY4NzUpIHNjYWxlKDAuMTIgLTAuMTIpIiBzdHlsZT0iZmlsbDogIzI2MjYyNiI+JiN4YTsgICAgICA8dXNlIHhsaW5rOmhyZWY9IiNUaW1lc05ld1JvbWFuUFMtQm9sZE1ULTM1Ii8+JiN4YTsgICAgICA8dXNlIHg9IjUwIiB4bGluazpocmVmPSIjVGltZXNOZXdSb21hblBTLUJvbGRNVC0zMCIvPiYjeGE7ICAgICAgPHVzZSB4PSIxMDAiIHhsaW5rOmhyZWY9IiNUaW1lc05ld1JvbWFuUFMtQm9sZE1ULTIwIi8+JiN4YTsgICAgICA8dXNlIHg9IjEyNSIgeGxpbms6aHJlZj0iI1RpbWVzTmV3Um9tYW5QUy1Cb2xkTVQtNDQiLz4mI3hhOyAgICAgIDx1c2UgeD0iMTk3LjIxNjc5NyIgeGxpbms6aHJlZj0iI1RpbWVzTmV3Um9tYW5QUy1Cb2xkTVQtNjUiLz4mI3hhOyAgICAgIDx1c2UgeD0iMjQxLjYwMTU2MiIgeGxpbms6aHJlZj0iI1RpbWVzTmV3Um9tYW5QUy1Cb2xkTVQtNmQiLz4mI3hhOyAgICAgIDx1c2UgeD0iMzI0LjkwMjM0NCIgeGxpbms6aHJlZj0iI1RpbWVzTmV3Um9tYW5QUy1Cb2xkTVQtNmYiLz4mI3hhOyAgICAgPC9nPiYjeGE7ICAgIDwvZz4mI3hhOyAgICA8ZyBpZD0icGF0Y2hfMjUiPiYjeGE7ICAgICA8cGF0aCBzdHlsZT0iZmlsbDogI2RhZTNmMzsgc3Ryb2tlOiAjOTk5ZmFhOyBzdHJva2Utd2lkdGg6IDAuNTsgc3Ryb2tlLWxpbmVqb2luOiBtaXRlciIgZD0iTSA0NjkuODExMjUgODkuNzMzNzUgJiMxMDtMIDQ5My44MTEyNSA4OS43MzM3NSAmIzEwO0wgNDkzLjgxMTI1IDgxLjMzMzc1ICYjMTA7TCA0NjkuODExMjUgODEuMzMzNzUgJiMxMDt6Ii8+JiN4YTsgICAgPC9nPiYjeGE7ICAgIDxnIGlkPSJ0ZXh0XzMxIj4mI3hhOyAgICAgJiN4YTsgICAgIDxnIHRyYW5zZm9ybT0idHJhbnNsYXRlKDUwMy40MTEyNSA4OS43MzM3NSkgc2NhbGUoMC4xMiAtMC4xMikiIHN0eWxlPSJmaWxsOiAjMjYyNjI2Ij4mI3hhOyAgICAgIDx1c2UgeGxpbms6aHJlZj0iI1RpbWVzTmV3Um9tYW5QUy1Cb2xkTVQtMzEiLz4mI3hhOyAgICAgIDx1c2UgeD0iNTAiIHhsaW5rOmhyZWY9IiNUaW1lc05ld1JvbWFuUFMtQm9sZE1ULTMwIi8+JiN4YTsgICAgICA8dXNlIHg9IjEwMCIgeGxpbms6aHJlZj0iI1RpbWVzTmV3Um9tYW5QUy1Cb2xkTVQtMzAiLz4mI3hhOyAgICAgIDx1c2UgeD0iMTUwIiB4bGluazpocmVmPSIjVGltZXNOZXdSb21hblBTLUJvbGRNVC0yMCIvPiYjeGE7ICAgICAgPHVzZSB4PSIxNzUiIHhsaW5rOmhyZWY9IiNUaW1lc05ld1JvbWFuUFMtQm9sZE1ULTQ0Ii8+JiN4YTsgICAgICA8dXNlIHg9IjI0Ny4yMTY3OTciIHhsaW5rOmhyZWY9IiNUaW1lc05ld1JvbWFuUFMtQm9sZE1ULTY1Ii8+JiN4YTsgICAgICA8dXNlIHg9IjI5MS42MDE1NjIiIHhsaW5rOmhyZWY9IiNUaW1lc05ld1JvbWFuUFMtQm9sZE1ULTZkIi8+JiN4YTsgICAgICA8dXNlIHg9IjM3NC45MDIzNDQiIHhsaW5rOmhyZWY9IiNUaW1lc05ld1JvbWFuUFMtQm9sZE1ULTZmIi8+JiN4YTsgICAgIDwvZz4mI3hhOyAgICA8L2c+JiN4YTsgICA8L2c+JiN4YTsgIDwvZz4mI3hhOyA8L2c+JiN4YTsgPGRlZnM+JiN4YTsgIDxjbGlwUGF0aCBpZD0icDcwMDkwYzNhOTIiPiYjeGE7ICAgPHJlY3QgaGVpZ2h0PSIzODEuNjk0OCIgd2lkdGg9IjUwNi40OSIgeT0iMzYuNiIgeD0iNTguNzEiLz4mI3hhOyAgPC9jbGlwUGF0aD4mI3hhOyA8L2RlZnM+JiN4YTs8L3N2Zz4=;clipPath=inset(0% 0% 2.05% 0%);" vertex="1" parent="1">
          <mxGeometry x="12" y="18" width="576" height="458.88" as="geometry" />
        </mxCell>
      </root>
    </mxGraphModel>
  </diagram>
</mxfile>
